<svg width="122" height="71" viewBox="0 0 122 71" fill="none" xmlns="http://www.w3.org/2000/svg">
<g clip-path="url(#clip0_11101_1406)">
<path d="M33.4626 56.7551L33.2673 56.9444C30.1996 60.07 26.6497 61.7214 22.9929 61.7214C15.3558 61.7214 9.81568 55.992 9.81568 48.0894C9.81568 40.1989 15.3558 34.4604 22.9929 34.4604C26.6497 34.4604 30.1996 36.1209 33.2673 39.2588L33.4626 39.445L38.3739 33.505L38.2427 33.3463C34.1586 28.5204 29.2564 26.1732 23.231 26.1732C17.1903 26.1732 11.6593 28.2091 7.67901 31.875C3.3446 35.8493 1.06445 41.4535 1.06445 48.0894C1.06445 54.7253 3.3446 60.3417 7.67901 64.3159C11.6593 68.0032 17.1903 70.0239 23.231 70.0239C29.2564 70.0239 34.1586 67.6736 38.2427 62.8447L38.3739 62.6982L33.4626 56.7551Z" fill="#004685"/>
<path d="M43.334 69.2139H52.0088V26.8588H43.334V69.2139Z" fill="#004685"/>
<path d="M85.9955 60.0065C83.6787 61.4167 81.5268 62.1279 79.5916 62.1279C76.7864 62.1279 75.5166 60.6444 75.5166 57.3478V34.873H84.3594V26.9001H75.5166V13.7199L67.0157 18.274V26.9001H59.6777V34.873H67.0157V58.7794C67.0157 65.2902 70.8739 69.7467 76.6369 69.8626C80.547 69.939 82.9034 68.7729 84.332 67.9183L84.4235 67.8603L86.5083 59.6921L85.9955 60.0065Z" fill="#004685"/>
<path d="M93.1768 69.2139H101.864V26.8588H93.1768V69.2139Z" fill="#004685"/>
<path d="M106.924 19.4343C98.9968 8.2076 85.8349 1.51064 72.444 1.51064C59.0562 1.51064 45.8912 8.2076 37.9793 19.4343L37.5703 20.0112H47.5517L47.6615 19.8922C54.4531 12.8778 63.3234 9.17216 72.444 9.17216C81.5646 9.17216 90.4287 12.8778 97.2356 19.8922L97.3455 20.0112H107.321L106.924 19.4343Z" fill="#EE1C25"/>
<path d="M116.338 13.9827C113.744 13.9827 111.628 15.9964 111.628 18.4879C111.628 20.9795 113.744 22.9932 116.338 22.9932C118.932 22.9932 121.048 20.9795 121.048 18.4879C121.048 15.9964 118.932 13.9827 116.338 13.9827ZM116.338 22.0034C114.29 22.0034 112.618 20.4334 112.618 18.4879C112.618 16.5425 114.29 14.9725 116.338 14.9725C118.386 14.9725 120.058 16.5425 120.058 18.4879C120.058 20.4334 118.386 22.0034 116.338 22.0034ZM117.498 20.8088L116.543 18.8975H115.519V20.8088H114.529V16.0646H117.191C117.942 16.0646 118.556 16.679 118.556 17.4299V17.5323C118.556 18.1807 118.079 18.7268 117.464 18.8292L118.556 20.7747H117.464L117.498 20.8088ZM115.519 18.1466H116.952C117.225 18.1466 117.464 17.9077 117.464 17.6347V17.464C117.464 17.191 117.225 16.952 116.952 16.952H115.519V18.1466Z" fill="#004685"/>
</g>
<defs>
<clipPath id="clip0_11101_1406">
<rect width="121.333" height="70" fill="white" transform="translate(0.345703 0.792725)"/>
</clipPath>
</defs>
</svg>
