<svg width="242" height="66" viewBox="0 0 242 66" fill="none" xmlns="http://www.w3.org/2000/svg">
<path fill-rule="evenodd" clip-rule="evenodd" d="M49.2588 14.97C51.4187 14.97 54.1017 12.1198 54.1017 8.53053V8.52087C54.1017 5.55958 51.7626 2.82534 47.4766 2.82534C39.0742 2.82534 28.9671 11.772 19.8237 22.3128C11.828 31.4866 4.10844 42.3172 4.10844 50.1238C4.10844 53.887 6.00201 56.3363 10.1718 56.3363C20.2256 56.3363 32.3958 45.8534 37.9361 39.1241C43.365 32.5735 52.3292 25.6751 59.4773 25.6751C62.3298 25.6751 64.6786 27.39 64.6786 30.2885C64.6786 32.7426 63.6471 35.3077 62.446 37.641C62.338 37.8118 62.2793 38.0091 62.2765 38.2111C62.2765 38.385 62.446 38.8391 64.0442 38.0999C69.6426 35.472 74.1029 32.0421 78.8441 26.2451H84.7863L68.8435 46.3606C64.79 51.491 65.4244 53.7711 66.9063 53.7711C68.3883 53.7711 72.1609 52.1769 76.5582 47.9017C79.4178 45.0793 82.0888 42.0729 84.5539 38.9019C84.612 38.9019 84.612 38.8391 84.612 38.8391C90.6705 31.3175 94.6707 26.2451 94.6707 26.2451H101.18L85.5515 45.8486C83.2124 48.8727 82.2438 50.9837 82.2438 52.2929C82.2438 53.3412 82.8589 53.7421 83.9534 53.7421C85.0478 53.7421 87.2707 53.3557 92.8643 48.9113C96.3051 46.1288 99.4458 42.996 102.235 39.5637L115.795 22.5834H107.345L109.165 20.651H117.398C120.895 16.2695 123.694 12.7333 123.694 12.7333H130.048C130.048 12.7333 127.351 16.1536 123.752 20.651H136.203C139.7 16.2695 142.499 12.7333 142.499 12.7333H148.843C148.843 12.7333 146.146 16.1536 142.548 20.651H151.71L149.933 22.5834H141.003L122.663 45.8872C120.319 48.9113 119.35 51.0224 119.35 52.3315C119.35 53.3798 120.033 53.7808 121.065 53.7808C124.033 53.7808 130.663 50.5151 138.668 43.0564C144.364 37.6797 151.299 30.1774 158.892 20.7718L160.495 22.081C158.627 23.9978 157.797 26.6949 158.268 29.3272L158.955 34.4478C159.124 35.8913 159.22 37.3424 159.241 38.7956C159.241 44.4911 157.522 47.2254 156.209 49.2784C153.987 52.6938 149.352 55.7711 145.182 55.7711C141.642 55.7711 138.954 53.1528 138.954 50.1866C138.954 47.1094 141.129 45.5201 143.356 45.5201C144.148 45.4872 144.918 45.7779 145.49 46.3251C146.061 46.8723 146.384 47.6284 146.383 48.4186C146.383 50.1818 145.124 51.2108 143.87 51.2108C143.674 51.2108 143.519 51.1776 143.386 51.1494C143.172 51.1036 143.017 51.0704 142.843 51.2108C142.62 51.4159 142.496 51.7056 142.499 52.0079C142.499 53.0948 143.584 53.718 144.785 53.718C149.754 53.718 152.04 47.9065 153.41 43.7472C154.713 39.7311 155.407 35.5431 155.468 31.3223C155.508 30.0816 155.621 28.8444 155.807 27.6171C151.013 33.7241 145.719 39.4246 139.981 44.6602C132.557 51.4378 125.762 55.66 120.905 55.66C116.047 55.66 115.529 50.9837 117.079 46.8775C109.306 53.6648 104.894 55.7131 101.988 55.7131C97.1454 55.7131 96.3802 51.4813 97.9832 47.206C90.8448 53.7663 86.6024 55.6986 83.6967 55.6986C79.1298 55.6986 78.0983 51.9934 79.5851 47.7181C73.7106 53.8774 68.674 55.6986 66.4463 55.6986C64.2185 55.6986 62.4993 53.8387 62.4993 51.4233C62.4993 48.3509 63.928 45.3317 67.8749 40.3125L71.478 35.9647L71.3618 35.9067C67.9378 38.4175 64.0896 40.2942 60.0004 41.4477C53.4867 49.9354 45.7768 55.8097 40.3527 55.8097C36.4251 55.8097 33.5727 53.0368 33.5727 49.0466C33.5701 48.295 33.6661 47.5463 33.8584 46.8196C25.4559 54.8146 16.5305 58.6792 9.75042 58.6792C3.75006 58.6792 0.321289 54.3991 0.321289 47.4476C0.321289 40.496 4.25857 30.8972 13.7458 20.2694C27.1122 5.16345 39.3405 0.434082 47.2248 0.434082C53.3898 0.434082 56.1938 4.82046 56.1938 8.5257C56.1938 13.429 51.6221 17.7042 47.5686 17.7042C45.1472 17.7042 43.21 16.168 43.21 14.1149C43.177 13.3255 43.4685 12.5569 44.0171 11.9869C44.5656 11.4169 45.3237 11.095 46.1158 11.0957C46.7859 11.0811 47.433 11.3399 47.9075 11.8122C48.3819 12.2845 48.6426 12.9295 48.6292 13.5981C48.6292 13.839 48.5959 14.0004 48.568 14.1349C48.5323 14.3078 48.5057 14.4362 48.5711 14.6318C48.7224 14.86 48.9852 14.9893 49.2588 14.97ZM102.264 53.7807C101.237 53.7807 100.554 53.3798 100.554 52.3315C100.554 51.0224 101.523 48.9113 103.867 45.8872L122.207 22.5833H134.605C132.824 24.8196 131.175 26.8926 129.665 28.7913L129.65 28.8105L129.65 28.8111C125.743 33.7237 122.765 37.4674 120.832 39.8487C117.987 43.1267 114.853 46.142 111.465 48.8581C105.862 53.2977 103.349 53.7807 102.264 53.7807ZM57.3035 41.1873C56.0735 42.7255 54.7557 44.1916 53.3565 45.5785C47.022 51.96 42.7942 53.6701 40.3921 53.6701C38.5615 53.6701 37.7043 52.4673 37.7043 51.2547C37.7043 47.4336 41.8207 41.5931 48.562 34.9556C54.8578 28.8011 58.3931 27.777 59.9283 27.777C60.6148 27.7214 61.2918 27.9649 61.7848 28.4446C62.2778 28.9244 62.5386 29.5934 62.4999 30.2793C62.4025 31.9065 61.9758 33.4972 61.2456 34.9556C59.3084 35.2406 56.2187 37.1198 56.2187 39.3033C56.1948 40.0852 56.6144 40.8139 57.3035 41.1873Z" fill="#282829"/>
<rect x="175.057" y="0.434326" width="1.61792" height="64.7168" fill="#A39161"/>
<path fill-rule="evenodd" clip-rule="evenodd" d="M216.203 6.90626H213.198L214.698 8.40679L216.203 6.90626ZM212.283 7.78594V10.8157L213.802 9.3008L212.283 7.78594ZM210.542 30.1166H207.786V28.5348H210.542V30.1166ZM206.018 33.3753H223.389V31.2153H206.018V33.3753ZM232.812 36.9388C233.767 36.5986 234.899 36.1949 236.124 36.1949L236.119 36.2093C239.369 36.2093 241.392 38.8519 241.392 41.6809C241.336 42.8052 241.125 43.9164 240.764 44.983L239.11 50.1871H239.072C237.858 50.1337 236.798 49.3509 236.393 48.2087C236.897 47.3676 237.807 46.8523 238.789 46.8515C238.472 46.2724 237.964 45.82 237.351 45.5708C237.463 44.6417 237.035 43.73 236.249 43.2197C235.459 43.7485 235.022 44.6646 235.108 45.609C234.512 45.8688 234.011 46.3041 233.67 46.8563C234.64 46.8242 235.547 47.3326 236.024 48.1752C235.4 49.2026 234.111 49.714 232.86 49.714C231.235 49.714 230.463 48.763 229.917 47.6257C229.361 48.7582 228.479 49.714 226.854 49.714C225.618 49.714 224.323 49.2026 223.7 48.1752C224.176 47.3318 225.084 46.8231 226.054 46.8563C225.712 46.305 225.211 45.8701 224.616 45.609C224.698 44.6653 224.261 43.7512 223.475 43.2197C222.688 43.7304 222.259 44.6411 222.368 45.5708C221.755 45.82 221.247 46.2724 220.93 46.8515C221.912 46.8533 222.822 47.3684 223.326 48.2087C222.919 49.3517 221.858 50.1343 220.642 50.1871L219.051 44.9687C218.689 43.9022 218.476 42.791 218.418 41.6666C218.418 38.8376 220.446 36.1949 223.691 36.1949C224.91 36.1949 226.04 36.5972 226.995 36.937C227.537 37.1301 228.023 37.303 228.436 37.3705C228.286 37.1422 228.209 36.8739 228.215 36.6011C228.215 35.6695 228.973 34.9142 229.907 34.9142C230.842 34.9142 231.599 35.6695 231.599 36.6011C231.604 36.8737 231.527 37.1414 231.379 37.3705C231.789 37.3032 232.272 37.1311 232.812 36.9388ZM229.888 46.7514L226.925 43.9749H232.912L229.888 46.7514ZM231.838 41.1264C234.58 41.4227 236.952 42.0822 238.893 43.5827C239.126 42.9483 239.253 42.2798 239.267 41.6043C239.267 39.6594 238.05 38.307 236.065 38.307C235.155 38.307 234.361 38.5454 233.501 38.8034C232.486 39.1078 231.381 39.4395 229.887 39.4395C228.394 39.4395 227.289 39.1082 226.274 38.8039C225.413 38.5457 224.617 38.307 223.704 38.307C221.796 38.307 220.507 39.6594 220.507 41.6043C220.52 42.2791 220.643 42.9472 220.871 43.5827C222.822 42.0822 225.214 41.4227 227.936 41.1264C229.233 40.9963 230.541 40.9963 231.838 41.1264ZM205.448 28.1097C206.662 28.0512 207.723 27.2711 208.137 26.1313C207.629 25.2945 206.721 24.7806 205.74 24.7742C206.053 24.192 206.563 23.7386 207.178 23.4935C207.07 22.5649 207.496 21.655 208.28 21.1423C209.072 21.6687 209.509 22.5873 209.416 23.5317C210.013 23.7902 210.515 24.2257 210.854 24.779C209.884 24.7494 208.977 25.2569 208.496 26.0979C209.124 27.1253 210.413 27.6366 211.66 27.6366C213.28 27.6366 214.167 26.6809 214.713 25.5483C215.264 26.6857 216.036 27.6366 217.656 27.6366C218.907 27.6366 220.196 27.1253 220.819 26.0979C220.342 25.2584 219.438 24.7508 218.471 24.779C218.809 24.2251 219.312 23.7894 219.909 23.5317C219.816 22.5873 220.253 21.6687 221.045 21.1423C221.831 21.6535 222.258 22.5646 222.147 23.4935C222.76 23.7427 223.268 24.195 223.585 24.7742C222.603 24.7769 221.694 25.2917 221.189 26.1313C221.599 27.2719 222.659 28.0531 223.873 28.1097H223.916L225.579 22.9009C225.943 21.8351 226.154 20.7234 226.207 19.5988C226.207 16.7746 224.18 14.1319 220.935 14.1319C219.718 14.1319 218.593 14.5338 217.64 14.8741C217.09 15.0702 216.599 15.2459 216.18 15.3123C216.331 15.0827 216.41 14.8129 216.405 14.5381C216.357 13.64 215.613 12.9363 214.711 12.9363C213.808 12.9363 213.064 13.64 213.016 14.5381C213.011 14.8129 213.09 15.0827 213.241 15.3123C212.825 15.246 212.336 15.071 211.788 14.8753C210.836 14.5348 209.709 14.1319 208.491 14.1319C205.261 14.1319 203.219 16.7746 203.219 19.5988C203.275 20.7227 203.484 21.8337 203.842 22.9009L205.448 28.1097ZM211.726 21.9116L214.717 24.669L217.713 21.9116H211.726ZM208.534 16.2257C209.448 16.2257 210.246 16.4657 211.108 16.7252C212.123 17.0306 213.228 17.3631 214.718 17.3631C216.207 17.3631 217.311 17.031 218.327 16.7257C219.19 16.466 219.989 16.2257 220.906 16.2257C222.823 16.2257 224.103 17.5829 224.103 19.5278C224.087 20.2028 223.962 20.8708 223.734 21.5062C221.783 20.0105 219.396 19.3463 216.678 19.0548C215.378 18.9198 214.067 18.9198 212.767 19.0548C210.049 19.3463 207.652 20.0105 205.706 21.5062C205.478 20.8708 205.353 20.2028 205.337 19.5278C205.337 17.5829 206.627 16.2257 208.534 16.2257ZM230.832 31.3637L232.352 29.8488V32.8785L230.832 31.3637ZM234.092 52.156H236.853V50.5742H234.092V52.156ZM212.637 29.1609L214.698 27.8563L216.764 29.1609L214.698 30.4846L212.637 29.1609ZM231.416 28.9696H228.406L229.916 30.4653L231.416 28.9696ZM231.416 33.7484H228.406L229.916 32.2479L231.416 33.7484ZM217.124 7.77185L215.599 9.28671L217.124 10.8016V7.77185ZM227.495 32.8785V29.8488L229.014 31.3637L227.495 32.8785ZM213.202 11.6902H216.208L214.703 10.1897L213.202 11.6902ZM238.601 55.4438H221.231V53.279H238.601V55.4438ZM205.701 36.2187C204.478 36.2187 203.349 36.6212 202.395 36.9611C201.854 37.154 201.369 37.3268 200.956 37.3943C201.108 37.1665 201.186 36.8982 201.181 36.6249C201.133 35.7268 200.389 35.0231 199.487 35.0231C198.585 35.0231 197.84 35.7268 197.792 36.6249C197.785 36.8985 197.864 37.1675 198.018 37.3943C197.604 37.3267 197.118 37.1537 196.575 36.9605C195.619 36.6208 194.489 36.2187 193.273 36.2187C190.032 36.2187 188 38.8614 188 41.6904C188.054 42.8144 188.264 43.9256 188.623 44.9925L190.214 50.187C191.429 50.1316 192.489 49.35 192.899 48.2086C192.393 47.3689 191.484 46.8541 190.502 46.8514C190.817 46.2708 191.326 45.8179 191.94 45.5707C191.828 44.6428 192.254 43.7319 193.038 43.2196C193.831 43.7455 194.269 44.6637 194.178 45.6089C194.777 45.8639 195.28 46.3003 195.616 46.8562C194.648 46.8259 193.743 47.334 193.268 48.1751C193.891 49.2025 195.185 49.7139 196.426 49.7139C198.047 49.7139 198.924 48.7581 199.475 47.6256C200.036 48.7629 200.803 49.7139 202.423 49.7139C203.679 49.7139 204.968 49.2025 205.586 48.1751C205.112 47.3325 204.206 46.8237 203.238 46.8562C203.578 46.304 204.08 45.8687 204.676 45.6089C204.587 44.6653 205.023 43.7488 205.812 43.2196C206.6 43.7284 207.028 44.6412 206.914 45.5707C207.527 45.8199 208.035 46.2723 208.352 46.8514C207.37 46.8541 206.461 47.3689 205.955 48.2086C206.363 49.3508 207.425 50.1329 208.639 50.187H208.678L210.331 44.9829C210.692 43.9162 210.903 42.8051 210.959 41.6808C210.959 38.8518 208.932 36.2092 205.687 36.2092L205.701 36.2187ZM196.498 43.9749L199.456 46.7514L202.48 43.9749H196.498ZM208.477 43.5835C206.526 42.0829 204.134 41.4235 201.411 41.1272C200.116 40.9971 198.81 40.9971 197.515 41.1272C194.787 41.4235 192.395 42.0829 190.449 43.5835C190.228 42.9405 190.113 42.2658 190.109 41.5859C190.109 39.641 191.389 38.2886 193.306 38.2886C194.22 38.2886 195.017 38.5278 195.878 38.7863C196.891 39.0904 197.993 39.4212 199.48 39.4212C200.968 39.4212 202.077 39.0896 203.094 38.7853L203.094 38.7853L203.094 38.7853C203.957 38.5272 204.754 38.2886 205.663 38.2886C207.643 38.2886 208.865 39.641 208.865 41.5859C208.851 42.2607 208.728 42.9288 208.501 43.5643L208.477 43.5835ZM206.406 52.1658H203.645V50.5841H206.406V52.1658ZM229.917 49.9247L227.851 51.2484L229.917 52.5674L231.978 51.2484L229.917 49.9247ZM197.422 51.2484L199.479 49.9247L201.545 51.2484L199.479 52.5674L197.422 51.2484ZM223 52.1658H225.751V50.5841H223V52.1658ZM200.989 33.7727H197.984L199.479 32.2722L200.989 33.7727ZM218.869 30.1166H221.63V28.5348H218.869V30.1166ZM197.984 28.9696H200.989L199.479 30.4653L197.984 28.9696ZM201.909 29.8488L200.395 31.3637L201.909 32.8785V29.8488ZM208.175 55.4438H190.805V53.279H208.175V55.4438ZM192.568 52.1799H195.328V50.5981H192.568V52.1799ZM197.074 32.9029V29.8732L198.593 31.388L197.074 32.9029Z" fill="#A39161"/>
</svg>
