<svg width="365" height="66" viewBox="0 0 365 66" fill="none" xmlns="http://www.w3.org/2000/svg">
<path fill-rule="evenodd" clip-rule="evenodd" d="M89.5088 46.2571H98.5572C108.999 46.2571 113.261 41.5993 113.261 32.8782C113.261 24.0821 108.13 19.5359 98.5572 19.5359H89.5088V46.2571ZM94.9356 23.6008H97.9026C104.263 23.6008 107.721 26.4467 107.721 32.9147C107.721 38.7915 105.312 42.3386 97.837 42.1904H94.9356V23.6008Z" fill="#1C62B7"/>
<path fill-rule="evenodd" clip-rule="evenodd" d="M116.23 36.4793C116.23 31.8644 118.77 26.958 126.09 26.958C133.394 26.958 135.901 32.264 135.486 37.7156L121.459 37.7517C121.509 40.7322 122.621 43.1673 126.124 43.1673C128.199 43.1673 129.975 41.8228 129.975 39.7512H135.054C134.755 44.8754 130.356 46.2935 125.393 46.2559C119.152 46.0742 116.23 41.9685 116.23 36.4793ZM125.924 30.0461C123.052 30.0461 121.807 32.2634 121.658 34.6626H129.974C130.09 32.008 128.712 30.0461 125.924 30.0461Z" fill="#1C62B7"/>
<path d="M156.312 47.1421H151.268L151.236 44.0692C150.39 46.5039 148.044 47.7415 145.17 47.7415C141.754 47.7415 138.53 45.6428 138.498 40.6215V28.4429H143.606V39.909C143.574 42.6071 144.612 44.1064 147.118 44.1435C149.384 44.1435 151.236 42.8316 151.236 39.1981V28.4429H156.312V47.1421Z" fill="#1C62B7"/>
<path d="M163.161 27.8716V25.0251L167.995 22.5046V27.8716H172.611V31.3641H167.995V40.0451C167.995 41.8092 168.606 42.8186 170.42 42.89C171.109 42.89 171.734 42.9615 172.642 42.7099V45.808C170.279 46.1326 167.557 46.7444 165.304 45.5549C163.599 44.6557 163.161 43.0702 163.161 40.5498V31.3641H159.281V27.8716H163.161Z" fill="#1C62B7"/>
<path d="M192.821 37.8945C193.678 39.4939 193.645 41.6009 192.585 43.0546C190.752 45.6692 186.767 46.324 183.689 46.2519C179.317 45.9966 175.433 44.9439 175.618 40.0751H180.932C180.881 42.1821 182.294 42.945 184.312 43.017C186.262 43.017 188.213 42.3998 188.213 40.7283C188.213 39.3842 186.851 38.8031 185.102 38.4396C183.101 38.0402 181.672 37.8584 179.435 37.0219C177.652 36.223 175.887 34.8789 175.887 32.3364C175.887 30.2279 177.652 28.63 179.956 27.7574C181.503 27.1402 183.42 26.9585 185.068 26.9585C188.768 26.9585 192.787 28.1569 192.552 32.5166H187.557C187.557 31.8633 187.406 31.1364 186.817 30.7009C185.724 29.7924 182.361 29.6827 181.318 31.1725C180.141 33.7165 183.774 33.8983 187.793 34.9149C190.332 35.4601 192.047 36.4407 192.821 37.8945Z" fill="#1C62B7"/>
<path d="M205.882 26.9585C209.972 26.9585 214.207 28.7726 214.207 33.7426L209.18 33.7051C209.18 31.3843 207.87 29.9689 205.397 30.0784C204.751 30.1144 204.072 30.3318 203.522 30.6227C201.97 31.4937 201.485 33.924 201.485 36.3543C201.485 38.9284 202.132 41.4322 203.296 42.3376C204.072 43.0633 205.462 43.2822 206.658 43.0633C208.646 42.738 209.244 40.8504 209.293 39.2193L214.207 39.1833C214.272 44.3691 209.891 46.3287 205.316 46.2552C199.206 46.0378 196.394 42.1938 196.394 36.4981C196.394 30.7321 199.804 26.9585 205.882 26.9585Z" fill="#1C62B7"/>
<path d="M217.177 19.5359H222.294V30.712C223.637 28.344 225.636 27.3084 228.339 27.3084C231.761 27.3084 234.991 29.8615 234.991 33.5252V46.2571H229.938V34.931C229.938 32.4146 228.866 30.7503 226.452 30.7503C224.197 30.7503 222.262 32.2295 222.262 35.6347V46.2571H217.177V19.5359Z" fill="#1C62B7"/>
<path fill-rule="evenodd" clip-rule="evenodd" d="M239.444 36.4797C239.444 31.8648 241.984 26.9585 249.304 26.9585C256.608 26.9585 259.114 32.2644 258.699 37.7161L244.673 37.7522C244.723 40.7326 245.835 43.1678 249.337 43.1678C251.412 43.1678 253.188 41.8233 253.188 39.7517H258.268C257.969 44.8759 253.57 46.294 248.607 46.2564C242.366 46.0746 239.444 41.969 239.444 36.4797ZM249.138 30.047C246.25 30.047 245.021 32.2644 244.872 34.6635H253.188C253.304 32.0089 251.91 30.047 249.138 30.047Z" fill="#1C62B7"/>
<path fill-rule="evenodd" clip-rule="evenodd" d="M289.515 45.4789C287.801 46.0334 285.581 46.2571 283.201 46.2571H273.588V19.5359H283.82C288.388 19.5359 293.163 20.982 293.354 26.1335C293.465 29.3948 291.26 31.4688 288.499 32.3956C290.625 32.9516 292.354 33.5812 293.528 35.5833C294.559 37.3617 294.639 39.7346 293.798 41.6984C292.909 43.5519 291.545 44.7743 289.515 45.4789ZM283.82 23.5384H278.633V30.4684H283.899C286.66 30.4684 288.087 29.3195 288.087 27.0585C288.087 24.9461 286.437 23.5384 283.82 23.5384ZM278.633 34.4345L284.344 34.4712C287.754 34.4345 289.007 36.4734 289.007 38.215C289.007 40.4744 287.833 42.2912 284.153 42.2912H278.633V34.4345Z" fill="#1C62B7"/>
<path fill-rule="evenodd" clip-rule="evenodd" d="M307.651 26.9585C312.472 26.9225 316.639 28.7762 316.639 32.4837V45.6402H312.129L311.932 42.9873C310.756 45.3487 307.732 46.4754 305.068 46.2215C301.358 46.1118 298.825 44.0042 298.825 40.5146C298.825 37.7896 300.378 36.0815 302.388 35.1727C304.61 34.1782 307.444 34.1013 309.914 34.0342C310.515 34.0179 311.095 34.0022 311.638 33.9739C311.9 30.9199 310.641 29.6851 307.847 29.6851C305.984 29.7211 304.578 30.7381 304.692 32.7015H299.659C299.724 28.4487 303.058 27.0322 307.651 26.9585ZM303.973 40.2246C303.973 41.9686 305.117 42.8775 307.046 43.0232C311.524 42.9496 311.786 39.825 311.671 36.8085C311.457 36.8085 311.226 36.8059 310.983 36.803C308.262 36.7714 304.003 36.7218 303.973 40.2246Z" fill="#1C62B7"/>
<path d="M321.093 27.4477H326.192V30.4639C327.53 28.0132 329.968 26.9585 332.709 26.9585C335.768 26.9585 338.907 28.7673 338.907 33.2901V46.2571H333.808V34.7218C333.84 32.2727 332.661 30.4639 330.334 30.4639C328.04 30.4639 326.16 31.9705 326.16 35.4385V46.2571H321.093V27.4477Z" fill="#1C62B7"/>
<path fill-rule="evenodd" clip-rule="evenodd" d="M349.82 19.5354H344.846V46.2566H349.82V19.5354ZM349.964 35.6704L357.655 46.2561H364.145L355.649 35.4853L362.866 27.7878H356.928L349.964 35.6704Z" fill="#1C62B7"/>
<path fill-rule="evenodd" clip-rule="evenodd" d="M0.438477 0.237061H65.757V65.5556H0.438477V0.237061ZM40.1297 15.708L14.6149 49.8135H26.1455L51.7565 15.708H40.1297ZM56.6633 56.509H9.53068V9.28547H56.6633V56.509Z" fill="#1C62B7"/>
</svg>
