<svg width="325" height="66" viewBox="0 0 325 66" fill="none" xmlns="http://www.w3.org/2000/svg">
<path fill-rule="evenodd" clip-rule="evenodd" d="M46.5231 0.541057H65.1027V0.537788C79.8121 0.537788 82.1329 5.8889 82.1329 13.7865C82.1329 21.4323 78.0045 27.0351 63.5533 27.0351H58.6502V39.2704C58.6493 40.2277 58.8255 41.1771 59.1699 42.0718C59.4249 42.8368 60.1996 43.6017 61.4874 44.1116C62.2654 44.3666 63.5533 44.6183 65.3609 44.6183V46.1481H45.2319V44.6183C47.0396 44.6183 48.3307 44.3666 49.1021 44.1116C50.3933 43.6017 51.168 43.0917 51.4262 42.0686L51.4271 42.0659C51.6851 41.3019 51.9427 40.5388 51.9427 37.7406V2.06761H46.5231V0.541057ZM14.5279 0.54127H33.3657V2.06456H27.1714V32.3897C27.1714 43.8536 21.7551 47.1649 11.4324 47.1649C2.91728 47.1649 0.854716 43.8536 0.854716 39.5224C0.854716 38.5025 1.36787 35.4461 4.46337 35.4461C7.56218 35.4461 7.82042 37.7376 7.82042 41.0489C7.82042 42.3238 8.59512 45.1252 12.2071 45.1252C18.1398 45.1252 20.7189 42.5787 20.7189 33.1514V2.06782H14.5279V0.54127ZM33.6248 41.0497C34.141 40.2918 35.1731 40.0301 36.2055 40.0298C37.2376 40.0301 38.0119 40.2852 38.7862 41.0497C39.5609 41.8146 39.8191 42.5796 39.8191 43.5994C39.8191 44.6128 39.5609 45.3842 38.7862 46.1491C38.0115 46.9075 37.2368 47.1625 36.2071 47.1625C35.1742 47.1625 34.3995 46.9108 33.6248 46.1491C32.8501 45.381 32.5919 44.6128 32.5919 43.5994C32.5919 42.5796 32.8501 41.8146 33.6248 41.0497ZM78.5225 40.0298C77.4904 40.0301 76.7161 40.2918 75.9418 41.0497C75.1704 41.8146 74.9121 42.5796 74.9121 43.5994C74.9121 44.6128 75.1704 45.381 75.9418 46.1491C76.7165 46.9108 77.4912 47.1625 78.5241 47.1625C79.557 47.1625 80.5867 46.9075 81.1064 46.1491C81.8778 45.381 82.1361 44.6128 82.1361 43.5994C82.1361 42.5796 81.8778 41.8146 81.1031 41.0497C80.3289 40.2852 79.5579 40.0301 78.5225 40.0298ZM62.5207 25.2542H58.6505V2.3232H62.0075C73.1016 2.3232 75.6807 6.9094 75.6807 14.042C75.6807 21.4297 71.2973 25.2542 62.5207 25.2542ZM141.225 38.7574C141.226 39.7972 141.401 40.8297 141.741 41.8138C141.999 42.8336 142.774 43.5986 143.545 44.1085C144.628 44.4627 145.763 44.634 146.903 44.6152V46.145H128.839V44.6152C129.978 44.6338 131.112 44.4625 132.193 44.1085C133.226 43.5986 133.997 43.0886 134.256 42.0687L134.258 42.0608C134.515 41.0436 134.772 40.0289 134.772 38.7574V7.1639H134.256L118.258 46.1417H116.967C116.709 45.6318 99.937 6.90566 99.937 6.90566H99.1623V37.4825L99.4206 40.7971C99.4206 41.8138 99.6788 42.5787 100.195 43.0886C100.712 43.8535 101.228 44.3635 102.261 44.6184C102.619 44.6184 102.922 44.6732 103.246 44.732C103.622 44.8 104.028 44.8734 104.582 44.8734V46.4032H91.6768V44.8799C92.7131 44.8799 93.7427 44.8799 94.2592 44.6184C95.0339 44.3667 95.8086 43.8568 96.3251 43.0919C96.8415 42.3302 97.0998 41.5653 97.0998 40.7971V2.07103H91.4219V0.541204H104.592C104.592 0.796175 119.556 35.1943 119.556 35.1943C119.556 35.3213 119.556 35.385 119.588 35.417C119.62 35.4493 119.685 35.4493 119.814 35.4493L120.073 35.1911C120.073 35.1911 134.004 1.05115 134.262 0.541204H146.125V2.06776H141.225V38.7574ZM166.254 12.7696C156.447 12.7696 150.515 19.1373 150.515 30.0945C150.515 46.3996 163.416 47.4195 165.995 47.4195C171.415 47.4195 181.738 44.1081 181.738 29.8428C181.738 18.6307 175.027 12.7696 166.254 12.7696ZM157.48 30.3499C157.48 41.8171 158.771 45.3801 165.995 45.3801C172.448 45.3801 174.511 41.3039 174.511 29.8367C174.511 21.6842 174.511 14.8065 165.995 14.8065C157.997 14.8065 157.48 21.4325 157.48 30.3499ZM207.028 13.2799C201.347 13.2799 199.287 16.5913 197.735 20.1576H197.218C197.218 20.1576 196.447 15.0614 196.188 13.7866H184.833V15.5714H191.024V37.9924C191.024 40.2839 190.769 41.817 190.256 42.8303C189.736 43.8535 188.187 44.6151 185.866 44.6151H184.833V46.6549H203.929V44.6151H202.896C200.314 44.6151 199.287 44.1085 198.764 43.0886C198.251 42.0687 197.993 40.5389 197.993 38.2474V26.0186C197.993 22.1941 201.088 17.6111 204.704 17.6111C206.404 17.6111 207.307 18.6926 208.157 19.7109C209.242 21.0104 210.241 22.2072 212.702 20.9225C214.768 19.6476 214.252 13.2799 207.028 13.2799ZM279.278 39.7774C279.536 41.8172 280.049 42.8305 282.115 42.8305V42.8338C283.406 42.8338 284.697 41.559 284.697 39.5192H285.73C285.469 44.8703 282.886 46.9101 278.503 46.9101C274.63 46.9101 272.309 44.1054 272.047 41.8107C269.726 44.1087 266.376 47.1618 260.956 47.1618C256.057 47.1618 252.441 43.3405 252.183 39.2642C251.408 28.562 265.856 27.2904 271.796 26.7805V21.4261C271.796 19.3929 271.279 17.863 270.504 16.5882C269.73 15.3133 267.925 14.8067 265.601 14.8067C263.8 14.8067 262.244 15.3199 261.218 16.3332C260.44 17.3564 259.93 18.373 259.665 20.1578C259.152 22.4558 258.116 23.4691 256.311 23.4691C255.54 23.4691 254.765 23.2142 254.249 22.7042C253.736 22.4492 253.477 21.6811 253.477 20.6677C253.477 18.373 254.507 16.8464 256.57 15.3133C258.894 13.5318 262.247 12.7636 266.892 12.7636C271.792 12.7636 275.149 13.5318 276.957 15.3133C278.758 17.1014 279.278 18.8829 279.278 21.9426V39.7774ZM272.312 39.2673V39.5223L272.053 39.7773C268.958 42.5819 266.379 43.6018 264.571 43.6018C259.926 43.6018 259.152 39.7773 259.152 37.9957C259.152 31.883 267.667 28.8233 272.312 28.8233V39.2673ZM319.532 37.7407C319.532 40.0289 320.307 41.562 320.823 42.5786C321.315 43.3037 322.506 43.8037 324.182 44.5072L324.439 44.6151V46.6549H308.693V44.6151C308.997 44.5408 309.302 44.4884 309.594 44.4383C310.289 44.3187 310.91 44.2118 311.272 43.8502C312.05 43.3436 312.308 42.5754 312.563 41.562C312.729 41.0803 312.687 40.3993 312.633 39.519L312.632 39.5179C312.6 38.9948 312.563 38.4013 312.563 37.7375V27.0352C312.563 24.4888 312.308 20.6675 311.537 19.3927C310.759 17.8661 309.471 17.1012 306.889 17.1012C304.306 17.1012 301.727 18.3728 300.439 20.6675C299.148 22.704 299.148 26.2769 299.148 29.8399V38.5024C299.148 40.7938 299.661 42.3237 300.178 43.0886C300.691 43.8535 301.982 44.1085 303.532 44.3634V46.3999H287.276V44.3634C288.567 44.3634 289.6 44.1085 290.117 43.8535C290.895 43.5985 291.66 42.8303 291.921 41.817C292.179 41.0488 292.441 39.7772 292.441 37.9924V15.5714H287.276V13.7866H297.599L298.89 19.6476H299.407L299.517 19.4836C301.076 17.1672 303.692 13.2799 310.246 13.2799C312.05 13.2799 313.596 13.5316 315.146 14.2965C316.437 15.0614 317.725 16.0813 318.499 17.6111C319.274 18.8827 319.532 20.9225 319.532 22.959V37.7407ZM247.026 11.2401C245.993 11.4951 245.476 12.515 244.96 13.7898C244.702 15.0647 244.185 15.8263 243.411 16.078C242.636 16.3363 241.865 16.3363 241.09 15.8263C239.285 14.2965 236.187 12.515 230.509 12.515C221.219 12.515 217.349 18.8827 217.349 24.7405C217.349 31.6214 219.931 34.936 225.861 36.2076C226.122 36.2076 226.122 36.7176 225.861 36.7176C220.961 37.7374 216.316 39.2673 216.316 43.8535C216.316 46.6582 217.865 48.1847 220.189 49.2046C222.507 50.2212 225.861 50.7344 229.992 50.7344C232.172 50.7344 233.978 50.8275 235.408 50.9012C236.344 50.9494 237.119 50.9894 237.733 50.9894C239.288 51.1874 240.783 51.7088 242.119 52.5192C243.152 53.2841 243.669 54.559 243.669 56.0823C243.669 58.377 242.378 59.9068 240.057 61.4366C237.739 62.7115 234.892 63.2214 231.025 63.2214C227.93 63.2214 225.093 62.9632 222.768 61.4366C220.964 60.4168 220.703 58.3803 220.964 56.8504C221.226 55.3206 220.703 53.7941 218.898 53.2841C217.771 53.0386 216.614 53.5582 216.061 54.559C215.541 55.3174 215.283 56.3372 215.283 57.6121C215.283 61.4334 218.382 63.2149 220.703 63.9798C224.315 64.9964 226.642 65.2547 229.734 65.2547C234.124 65.2547 237.475 64.4898 240.057 63.4699C242.639 62.195 244.189 60.6685 245.218 58.8837C246.248 57.1021 246.768 55.3173 246.768 53.5326C246.768 51.2411 246.248 49.2013 245.218 47.9297C242.334 44.2052 238.493 44.0582 230.912 43.7679L230.912 43.7679C229.677 43.7206 228.342 43.6695 226.897 43.5985C221.994 43.5985 220.961 42.5786 220.961 41.0488C220.961 38.7573 222.768 37.9924 229.992 36.7176C237.216 35.6977 243.924 32.8963 243.924 24.4888C243.924 21.9391 243.411 19.9026 242.633 18.376C244.185 18.6277 245.476 18.6277 246.764 18.376C248.317 17.8661 249.085 17.1012 249.605 16.3363C250.121 15.3164 250.376 14.2965 249.863 13.5316C250.121 11.4951 248.83 10.7302 247.026 11.2401ZM224.058 24.9989C224.058 33.6581 226.385 35.1912 230.769 35.1912C234.897 35.1912 237.734 33.9163 237.734 24.7439C237.734 18.3729 236.188 14.2967 230.769 14.2967C226.124 14.2967 224.058 18.8861 224.058 24.9989Z" fill="#54301A"/>
</svg>
