<svg width="401" height="66" viewBox="0 0 401 66" fill="none" xmlns="http://www.w3.org/2000/svg">
<path fill-rule="evenodd" clip-rule="evenodd" d="M47.7261 26.4212C47.3342 27.1161 47.0336 27.649 47.8107 28.5617C50.8463 31.539 52.7144 35.8483 52.3252 40.6276C51.8582 44.3884 50.1458 48.4626 47.6551 51.2049C47.5492 51.324 47.4453 51.442 47.3415 51.5601C46.1471 52.9182 44.9526 54.2762 40.7277 57.1595C38.4378 58.4636 36.2412 59.5917 34.2282 60.6254L34.2277 60.6257L34.2276 60.6257C31.0407 62.2623 28.3141 63.6626 26.406 65.1512C24.4939 63.6213 21.6863 62.1846 18.3722 60.4888C16.4248 59.4924 14.3025 58.4064 12.0842 57.1595C8.01733 54.3146 6.75846 52.9446 5.60463 51.6888L5.60458 51.6887L5.60312 51.6871L5.60251 51.6865L5.60167 51.6856C5.45361 51.5244 5.30725 51.3652 5.15686 51.2049C2.66612 48.4626 0.875904 44.3884 0.486726 40.6276C-0.0581223 35.8483 1.80993 31.539 4.84552 28.5617C5.63836 27.5641 5.30953 27.0181 4.90637 26.3488C4.83458 26.2296 4.76044 26.1064 4.68985 25.9762C4.27315 25.2135 4.02238 24.655 3.71322 23.9665C3.38715 23.2403 2.99612 22.3694 2.27694 20.9618C1.49859 19.5515 1.18725 18.4546 1.34292 17.5144C1.82238 15.852 3.17695 14.8502 4.28359 14.0319C4.79379 13.6545 5.2513 13.3162 5.54604 12.9701C5.60599 12.9097 5.70059 12.861 5.7987 12.8105L5.7987 12.8105C5.95531 12.7298 6.12086 12.6445 6.16872 12.5C6.40223 12.1866 6.24656 11.7948 6.24656 11.7948C6.24656 11.7723 6.16264 11.5938 6.045 11.3435C5.75414 10.7248 5.25711 9.66748 5.31253 9.44433C5.54604 8.81753 8.9708 6.93713 11.8507 5.76188C15.2755 4.50828 17.1435 3.95983 20.257 3.17633C24.0709 2.15778 26.3281 0.434082 26.3281 0.434082C26.3281 0.434082 28.5854 2.23613 32.3993 3.17633C32.779 3.28143 33.1401 3.3807 33.4878 3.47628L33.4885 3.47647C35.9918 4.16458 37.7987 4.66125 40.8055 5.76188C43.6855 6.85878 47.1102 8.81753 47.3437 9.44433C47.4216 9.83608 46.4097 11.7948 46.4097 11.7948C46.4097 11.7948 46.3319 12.1866 46.4875 12.5C46.5506 12.5635 46.6392 12.6141 46.7327 12.6675C46.8699 12.7459 47.0176 12.8303 47.1102 12.9701C47.3911 13.33 47.8647 13.673 48.3991 14.06C49.4934 14.8526 50.8426 15.8297 51.3133 17.5144C51.469 18.4546 51.0798 19.4731 50.3793 20.9618C49.6601 22.3694 49.2691 23.2403 48.943 23.9665C48.6339 24.655 48.3831 25.2135 47.9664 25.9762C47.888 26.1341 47.8052 26.2809 47.7261 26.4212ZM37.0689 57.1601C41.7391 54.6529 43.5293 53.0859 44.8525 51.6756C48.8999 47.288 50.2231 43.8406 50.301 39.688C50.301 35.7705 48.9778 32.1664 46.0979 29.3458C44.6652 28.0348 44.976 27.5464 45.4348 26.8254C45.5244 26.6846 45.6197 26.5349 45.7087 26.3685C46.1606 25.5413 46.3306 25.1508 46.5965 24.54L46.5966 24.5399L46.5966 24.5398L46.5966 24.5398C46.8344 23.9935 47.1489 23.271 47.8102 21.9026C47.9005 21.7095 48.0006 21.5049 48.1045 21.2923C48.7178 20.0386 49.4662 18.5085 49.1334 17.4366C48.5886 16.3397 46.0978 14.616 45.9422 14.5377L45.7711 14.4125C45.0113 13.8567 44.4986 13.4817 43.9185 12.9707C43.6849 12.5006 43.9963 12.2655 43.9963 12.2655C43.9963 12.2655 45.086 10.5418 44.9303 10.2284C44.0741 8.66144 36.2127 6.07589 31.8539 5.05734C29.7524 4.58724 26.1719 2.55014 26.1719 2.55014C26.1719 2.55014 22.5915 4.58724 20.49 5.05734C16.1312 6.07589 8.26978 8.66144 7.41359 10.2284C7.25791 10.5418 8.34761 12.2655 8.34761 12.2655C8.34761 12.2655 8.73679 12.5006 8.42545 12.9707C7.80276 13.5975 7.25791 13.9892 6.40172 14.5377C6.24605 14.616 3.75532 16.3397 3.21047 17.4366C2.87771 18.5085 3.62613 20.0386 4.23936 21.2923C4.34332 21.5049 4.4434 21.7095 4.53367 21.9026C5.19503 23.271 5.5095 23.9935 5.74728 24.5398C6.01321 25.1507 6.1832 25.5412 6.63523 26.3685C6.73316 26.5657 6.83864 26.7375 6.93584 26.8959C7.37942 27.6186 7.65064 28.0605 6.24605 29.3458C3.44397 32.1664 2.12077 35.7705 2.04293 39.688C2.35428 43.8406 3.67748 47.288 7.72493 51.6756C9.04813 53.1642 10.8383 54.6529 15.5085 57.1601C16.6381 57.7489 17.6892 58.2746 18.6823 58.7712L18.6825 58.7713C21.5214 60.191 23.8856 61.3734 26.2498 63.1147C28.4906 61.423 30.8524 60.2589 33.6253 58.8921L33.6254 58.892L33.6261 58.8917L33.6268 58.8913L33.6272 58.8911C34.7065 58.3592 35.848 57.7965 37.0689 57.1601ZM44.9303 43.6048C44.9303 46.0336 43.0623 47.9924 40.6494 47.9924C39.6375 47.9924 38.6256 47.6006 37.9251 46.9738C37.3803 46.4254 36.9911 45.5635 36.9911 44.6233C36.9911 42.978 38.2365 41.5677 39.6375 41.5677C39.677 41.6074 39.7215 41.622 39.7709 41.6381C39.9166 41.6858 40.1056 41.7476 40.338 42.5079C40.7272 42.6646 40.805 42.3512 40.805 41.9594C40.805 41.3326 40.1045 41.0192 39.2483 40.7058C38.9718 40.6014 38.9255 40.2808 38.8777 39.9496C38.8179 39.535 38.7557 39.104 38.2365 39.0605C37.6138 38.9821 37.3803 39.2955 37.5359 39.6873C37.5808 39.9132 37.7034 39.8785 37.8439 39.8388C37.947 39.8096 38.0598 39.7777 38.1586 39.844C38.7813 40.2357 37.9251 41.2543 37.9251 41.2543C36.9911 42.1161 36.3684 43.2914 36.3684 44.545C36.3684 45.3285 36.6019 46.0336 36.9911 46.7388C37.3803 47.2872 37.7695 47.7573 38.2365 47.9924C38.2365 47.9924 38.7035 49.0109 37.5359 49.9511C37.4037 50.0652 37.2715 50.1147 37.1203 50.1713C36.6487 50.3477 35.9929 50.5931 34.5782 53.0851C34.5456 53.1507 34.4721 53.079 34.3462 52.9562C34.1714 52.7856 33.8957 52.5166 33.4885 52.38C33.0215 52.0666 31.6205 52.38 31.5426 53.5552C31.4648 54.6521 32.5545 54.1037 32.8658 53.1635C33.255 52.9284 33.5663 53.3202 33.7998 53.7903C34.1112 54.4171 33.4107 55.9057 31.5426 57.1593C29.8302 58.2562 26.7946 57.7078 26.8725 55.6707C26.9503 54.182 28.974 53.7903 28.7405 55.0439C28.5849 55.749 30.4529 55.9057 29.5967 54.3387C28.6627 52.7717 26.5611 54.182 26.172 55.0439C25.7828 54.1037 23.6812 52.6934 22.7472 54.3387C21.8132 55.9057 23.7591 55.8274 23.6034 55.0439C23.292 53.8686 25.3936 54.182 25.4714 55.6707C25.5493 57.7078 22.5137 58.2562 20.8013 57.1593C18.9333 55.9841 18.2327 54.4171 18.5441 53.7903C18.7776 53.3202 19.0889 52.9284 19.4781 53.1635C19.7894 54.1037 20.8791 54.6521 20.8013 53.5552C20.7235 52.38 19.3224 52.0666 18.8554 52.38C18.4685 52.5098 18.2003 52.7831 18.0246 52.9621C17.8822 53.1072 17.8006 53.1903 17.7657 53.0851C16.3472 50.6458 15.6916 50.375 15.2197 50.1801C15.0702 50.1184 14.9391 50.0642 14.808 49.9511C13.7183 49.0109 14.1075 47.9924 14.1075 47.9924C14.302 47.7573 14.5161 47.581 14.7301 47.4047L14.7302 47.4047C14.9442 47.2284 15.1582 47.0522 15.3528 46.8171C15.742 46.112 15.8977 45.3285 15.8977 44.545C15.8977 43.2914 15.275 42.1161 14.341 41.2543C14.341 41.2543 13.4848 40.2357 14.1075 39.844C14.1612 39.8169 14.2335 39.8366 14.3115 39.8578C14.4595 39.898 14.6282 39.9438 14.7301 39.6873C14.8858 39.2955 14.808 39.1388 14.0296 39.0605C13.4042 39.0155 13.3685 39.4609 13.3339 39.8931C13.3082 40.2139 13.283 40.5273 13.0178 40.6275C12.1616 40.9409 11.5389 41.2543 11.5389 41.8811C11.5389 42.2728 11.6167 42.5862 12.0059 42.4295C12.2383 41.6692 12.4273 41.6074 12.573 41.5598C12.6225 41.5436 12.6669 41.5291 12.7064 41.4893C14.1075 41.4893 15.3528 42.8213 15.3528 44.545C15.3528 45.4068 14.9636 46.347 14.4188 46.8955C13.6404 47.5223 12.7064 47.914 11.6946 47.914C9.35949 47.914 7.4136 45.9553 7.4136 43.5264C7.10226 39.844 9.35949 37.6502 11.3832 36.5533C13.6404 35.6131 15.275 33.0275 15.275 30.0502C15.275 26.8379 13.6404 24.409 10.9162 23.3121C10.3427 22.9272 10.4474 22.7524 10.6324 22.4437L10.6324 22.4437C10.6733 22.3754 10.7182 22.3004 10.7605 22.2152C10.8384 22.0585 10.8384 21.7451 10.8384 21.5101C10.8895 20.944 10.8735 20.9187 10.8344 20.8571C10.814 20.8248 10.7872 20.7827 10.7605 20.6482C10.7605 20.5934 10.7319 20.5386 10.6981 20.4737C10.6352 20.3531 10.5543 20.1978 10.6049 19.9431C10.7605 18.2194 12.6286 18.9245 12.7843 19.6297C12.9095 20.1971 12.7828 20.2572 12.6069 20.3407L12.6068 20.3407C12.5641 20.3609 12.5185 20.3826 12.4729 20.4132C11.6946 20.0998 11.9281 20.6482 12.0059 20.8049C12.1616 21.1967 12.6286 21.3534 13.1734 20.9616C13.4564 20.8667 13.6251 20.5991 13.7487 20.403C13.8291 20.2754 13.8904 20.1781 13.9518 20.1781C14.808 20.4132 15.275 19.473 14.8858 19.3946C14.7332 19.3639 14.5687 19.4175 14.4063 19.4704C14.1544 19.5524 13.9076 19.6328 13.7183 19.3946C12.6286 17.9843 10.7605 18.0627 10.4492 18.6895C9.8265 19.7864 9.35949 19.2379 9.35949 19.2379C9.35949 19.2379 8.5033 18.6111 8.65897 18.6111C10.06 17.8276 10.7605 17.3575 12.9399 15.1637C13.2624 14.7851 13.7517 14.1637 14.28 13.4929C15.2821 12.2205 16.424 10.7706 16.8317 10.4627C18.8554 8.81738 22.6694 5.99679 24.8488 7.79883C25.7049 8.50398 25.3936 9.28748 25.0823 9.52253C24.8365 9.76988 24.6529 9.33006 24.5117 8.99193C24.4292 8.79454 24.3613 8.6318 24.3039 8.66068C24.026 8.70065 24.1126 8.94446 24.2125 9.22576C24.3085 9.49594 24.4167 9.80071 24.2261 9.99263C23.9147 10.3844 23.292 9.91428 23.292 9.52253C23.3699 8.66068 21.3462 10.306 23.7591 11.0112C24.0941 11.1075 24.2231 11.0262 24.3451 10.9492C24.4216 10.901 24.4953 10.8545 24.6153 10.8545C24.745 10.8806 24.8834 10.9502 25.0333 11.0257C25.3331 11.1766 25.679 11.3507 26.0941 11.2462C26.4603 11.2923 26.7726 11.1487 27.047 11.0226C27.2392 10.9343 27.4127 10.8545 27.573 10.8545C27.7517 10.8185 27.8483 10.8816 27.9458 10.9452C28.0606 11.0202 28.1766 11.0959 28.4292 11.0112C30.8421 10.306 28.8184 8.66068 28.974 9.52253C28.974 9.91428 28.4292 10.3844 28.04 9.99263C27.8454 9.79676 27.9427 9.50295 28.0303 9.23851C28.1178 8.97408 28.1957 8.73903 27.9622 8.66068C27.9038 8.63128 27.8344 8.78946 27.7499 8.98201C27.6093 9.30254 27.427 9.71832 27.1838 9.52253C26.8725 9.20913 26.5611 8.50398 27.4173 7.79883C29.5967 6.07514 33.4885 8.89573 35.4344 10.4627C35.8421 10.7706 36.984 12.2205 37.9861 13.4929C38.5143 14.1636 39.0037 14.7851 39.3262 15.1637C41.5056 17.3575 41.9726 17.6709 43.6071 18.6111C43.685 18.6895 42.8288 19.3163 42.8288 19.3163C42.8288 19.3163 42.4396 19.6297 41.7391 18.7678C41.3499 18.2194 39.5597 18.0627 38.47 19.473C38.2807 19.7111 38.0339 19.6308 37.782 19.5487C37.6196 19.4958 37.455 19.4423 37.3024 19.473C36.9133 19.5513 37.3803 20.4915 38.2365 20.2565C38.2978 20.2565 38.3591 20.3538 38.4395 20.4813C38.5631 20.6774 38.7318 20.945 39.0148 21.04C39.5597 21.4317 40.0267 21.275 40.1824 20.8833C40.2602 20.7266 40.4937 20.2565 39.7153 20.4915C39.6803 20.4563 39.6413 20.4329 39.6029 20.4098C39.4703 20.3304 39.3437 20.2545 39.404 19.708C39.5597 19.0029 41.3499 18.2977 41.5834 20.0214C41.6405 20.3663 41.53 20.5425 41.4671 20.6428C41.4443 20.6793 41.4277 20.7057 41.4277 20.7266C41.401 20.861 41.3743 20.9032 41.3539 20.9354C41.3148 20.9971 41.2988 21.0224 41.3499 21.5884C41.3499 21.9018 41.3499 22.1369 41.4277 22.2936C41.4784 22.4126 41.5328 22.5096 41.5797 22.5931C41.7487 22.8945 41.8205 23.0224 41.2721 23.3905C38.6256 24.4874 36.9133 26.9162 36.9133 30.1286C36.9133 33.1059 38.5478 35.6131 40.805 36.6316C42.9844 37.7285 45.2417 39.9223 44.9303 43.6048ZM25.082 58.2569L26.2495 59.9806L27.4171 58.2569L26.2495 56.6116L25.082 58.2569ZM25.7054 10.1495C25.8575 9.90452 25.9739 9.64755 26.064 9.44879C26.2043 9.13906 26.2806 8.97069 26.3281 9.20932C26.4028 9.51018 26.5672 9.73884 26.6921 9.91262C26.8274 10.1009 26.9165 10.2247 26.7951 10.3062C26.4059 10.6196 25.5497 10.3846 25.7054 10.1495ZM45.3993 40.9405C45.555 40.7055 46.7225 40.3921 47.1117 40.7838C47.5107 41.1281 47.534 41.5565 47.5485 41.8227C47.5537 41.9199 47.5579 41.9955 47.5787 42.0374C47.5787 42.3508 46.8003 42.4292 46.8782 41.724C47.0338 41.0189 46.0998 41.2539 45.9441 41.9591C45.8231 42.4463 45.8432 42.9808 45.8582 43.3787L45.8582 43.3789L45.8582 43.3801C45.8625 43.4936 45.8663 43.5959 45.8663 43.6828C45.7106 46.7384 43.3756 48.6188 40.8848 48.6188C40.4956 48.6188 40.1065 48.5405 39.7173 48.4621C39.3706 48.404 39.1527 48.8207 38.9042 49.2956C38.8179 49.4606 38.7279 49.6325 38.6276 49.7941C38.6276 49.7941 40.1065 50.3425 39.9508 51.5178C39.7951 52.6147 38.7054 53.2415 37.9271 52.2229C37.6157 51.8312 38.1606 51.7528 38.7833 51.7528C39.2503 51.4394 39.1724 50.891 38.0827 50.6559C36.7595 50.3425 35.592 53.2415 35.125 54.4167C34.658 55.6703 32.0894 58.961 28.6646 58.1775C28.4311 58.1775 26.3296 61.3115 26.3296 61.3115C26.3296 61.3115 24.228 58.0992 23.9945 58.1775C20.4919 58.961 18.0012 55.592 17.5342 54.4167C17.145 53.2415 15.8996 50.3425 14.5764 50.6559C13.4867 50.891 13.4089 51.4394 13.8759 51.7528C14.4986 51.7528 15.0434 51.8312 14.7321 52.2229C13.9537 53.2415 12.864 52.693 12.7084 51.5178C12.5527 50.4209 14.0316 49.7941 14.0316 49.7941C13.9313 49.6325 13.8413 49.4606 13.755 49.2956C13.5065 48.8207 13.2885 48.404 12.9419 48.4621C12.5527 48.6188 12.1635 48.6188 11.7743 48.6188C9.2836 48.6188 7.18204 46.8168 6.71503 43.8395C6.71503 43.718 6.73748 43.5965 6.76382 43.454C6.82242 43.137 6.90026 42.7158 6.79286 41.9591C6.71503 41.2539 5.781 41.0189 5.85883 41.724C6.01451 42.5075 5.23615 42.4292 5.15832 42.0374C5.15832 41.9916 5.14946 41.934 5.13922 41.8673C5.09688 41.5917 5.03093 41.1624 5.46966 40.7838C5.93667 40.3921 7.02637 40.7055 7.18204 40.9405C7.64905 39.3735 8.58308 38.1199 9.67278 37.2581C9.67278 37.2581 9.67278 37.023 9.51711 36.8663C9.44778 36.8431 9.35787 36.8336 9.2433 36.8216C8.97198 36.7931 8.56238 36.75 7.96039 36.4746C7.84838 36.4182 7.73636 36.5647 7.58084 36.768C7.3041 37.1299 6.88964 37.6718 6.09234 37.5715C5.15832 37.4931 5.23615 36.5529 5.70316 36.6313C5.79608 36.6313 5.91673 36.7429 6.032 36.8496C6.10985 36.9217 6.18526 36.9915 6.24801 37.023C6.94853 37.1797 7.02637 36.1612 7.02637 35.7694C7.02637 35.7364 7.00905 35.658 6.98464 35.5475C6.89335 35.1343 6.70287 34.2722 6.94853 33.654C7.28145 32.7827 8.12699 32.2554 8.65684 31.925C8.74638 31.8691 8.82691 31.8189 8.89442 31.7736C9.05009 31.6952 9.2836 31.1468 8.97226 30.9117C8.27174 30.3633 9.59494 29.8932 9.82845 31.0684C9.93133 31.4827 9.86422 31.7259 9.80688 31.9336C9.77746 32.0402 9.75061 32.1374 9.75061 32.2437C9.7716 32.3493 9.87749 32.4892 10.0011 32.6524C10.336 33.0946 10.801 33.7086 10.062 34.2808C9.51711 34.6725 9.36143 33.9674 9.59494 33.654C10.1398 33.0272 7.80472 32.087 7.72689 34.5158C7.72689 35.4236 9.02518 35.8957 9.58312 36.0986L9.5834 36.0987C9.65137 36.1234 9.70834 36.1442 9.75061 36.1612C12.5527 36.1612 14.8099 33.4973 14.8099 30.1282C14.8099 27.5427 13.4089 25.3489 11.463 24.487C11.1486 24.139 10.428 23.957 9.69083 23.7709C8.60269 23.4962 7.47842 23.2123 7.57122 22.3716C7.64905 21.4314 8.58308 20.8829 9.05009 21.4314C9.17267 21.6782 9.01642 21.7954 8.85155 21.9191C8.70235 22.031 8.5461 22.1483 8.58308 22.3716C8.58308 22.7633 9.36143 22.92 9.90628 22.5283C10.1398 22.3716 10.2176 22.0582 10.2955 21.5881C10.3733 20.9613 9.90628 20.3345 9.36143 19.8644C8.27174 18.9242 6.79286 18.3757 6.79286 18.3757C6.79286 18.3757 9.82845 17.4355 9.90628 16.5737C9.98412 15.8685 9.59494 15.7902 9.2836 16.1819C9.12793 16.417 8.58308 15.9469 9.20576 15.3201C9.75061 14.9283 10.4511 15.2417 10.6846 16.0252C10.9181 16.8087 13.7202 13.3613 14.1094 12.3428C14.2651 11.7943 14.1094 10.6974 13.4867 10.9325C13.0975 11.0892 13.1754 11.4026 13.331 11.5593C13.5646 11.7943 13.4089 12.1861 13.0975 12.1861C12.7862 12.2644 12.3192 11.8727 12.3192 11.3242C12.3192 10.2273 14.4207 9.3655 14.9656 11.0892C15.0194 11.3599 15.1847 11.1817 15.3587 10.994C15.4365 10.91 15.5161 10.8242 15.5883 10.7758C15.6717 10.7158 15.8172 10.5768 16.019 10.3841C17.1344 9.31847 19.9681 6.61125 23.5275 6.5449C24.418 6.5449 24.5699 6.6731 24.6825 6.76816C24.7667 6.83926 24.829 6.89183 25.162 6.8583C25.6445 6.8583 26.066 6.18244 26.2642 5.8645L26.2643 5.86442C26.2899 5.82337 26.3118 5.78828 26.3296 5.7614C26.3916 5.8238 26.4645 5.92486 26.5485 6.04112L26.5485 6.04114C26.7807 6.36278 27.0969 6.80075 27.4971 6.8583C27.8243 6.89123 27.8764 6.8411 27.9483 6.77191C28.0475 6.67651 28.1842 6.5449 29.1317 6.5449C32.7445 6.5449 35.5259 9.2793 36.6335 10.3682L36.6335 10.3683C36.8383 10.5696 36.9859 10.7147 37.0709 10.7758C37.143 10.8242 37.2226 10.91 37.3004 10.994C37.4745 11.1817 37.6398 11.3599 37.6936 11.0892C38.2384 9.3655 40.4178 10.2273 40.34 11.3242C40.34 11.8727 39.873 12.1861 39.5616 12.1861C39.2503 12.1861 39.0946 11.7943 39.2503 11.5593C39.4059 11.3242 39.4838 11.0892 39.0946 10.9325C38.4719 10.7758 38.3163 11.8727 38.4719 12.3428C38.7833 13.3613 41.6632 16.8087 41.8967 16.0252C42.1302 15.3201 42.9085 15.0067 43.3756 15.3201C43.9982 15.8685 43.4534 16.417 43.2977 16.1819C42.9864 15.7118 42.5972 15.8685 42.675 16.5737C42.7529 17.4355 45.7885 18.3757 45.7885 18.3757C45.7885 18.3757 42.1302 19.7077 42.2859 21.5881C42.2859 22.0582 42.4415 22.3716 42.675 22.5283C43.2199 22.92 43.9204 22.7633 43.9982 22.3716C43.9982 22.1541 43.8316 22.0372 43.6757 21.9278C43.4946 21.8008 43.3279 21.684 43.4534 21.4314C43.9982 20.9613 44.9323 21.4314 45.0101 22.3716C45.0564 23.2107 43.9454 23.4951 42.8739 23.7693C42.1446 23.956 41.4336 24.138 41.1183 24.487C39.2503 25.3489 37.8492 27.5427 37.8492 30.1282C37.8492 33.4189 40.1065 36.1612 42.9086 36.1612C42.9506 36.1442 43.0073 36.1236 43.0748 36.0991L43.0758 36.0987L43.076 36.0986C43.634 35.8957 44.9323 35.4236 44.9323 34.5158C44.8544 32.0086 42.5194 33.0272 43.0642 33.654C43.2977 34.0457 43.1421 34.6725 42.5972 34.2808C41.8582 33.7086 42.3232 33.0946 42.658 32.6524C42.7817 32.4892 42.8876 32.3493 42.9086 32.2437C42.942 32.0752 42.9035 31.9502 42.8611 31.8126C42.805 31.6302 42.742 31.4257 42.8307 31.0684C43.0642 29.9715 44.3874 30.4416 43.6869 30.9117C43.3756 31.1468 43.6091 31.6952 43.7647 31.7736C43.8398 31.824 43.933 31.8804 44.0378 31.9439C44.585 32.2754 45.4493 32.7992 45.7106 33.654C45.9563 34.2722 45.7658 35.1343 45.6745 35.5475C45.6501 35.658 45.6328 35.7364 45.6328 35.7694C45.6328 36.1612 45.7106 37.1797 46.3333 37.023C46.3914 36.9938 46.4604 36.9208 46.5321 36.845C46.6525 36.7177 46.7806 36.5822 46.8782 36.6313C47.3452 36.4746 47.3452 37.4148 46.489 37.5715C45.7494 37.6645 45.4216 37.2049 45.1795 36.8655C45.0139 36.6334 44.8884 36.4575 44.6988 36.5529C44.3668 36.6783 43.9905 36.7145 43.6762 36.7448H43.6761C43.4009 36.7713 43.1732 36.7932 43.0642 36.8663C42.9086 36.9447 42.9086 37.2581 42.9086 37.2581C43.9982 38.1199 44.9323 39.3735 45.3993 40.9405ZM32.5544 37.0234L32.4765 36.945C32.3987 36.0048 32.0874 34.8296 31.5425 33.811C30.6085 32.0873 29.0518 30.9121 28.1177 30.677C28.1437 30.6509 28.161 30.6248 28.1783 30.5987C28.2129 30.5465 28.2475 30.4942 28.3512 30.442C29.3631 29.6585 31.5425 30.677 32.6322 32.5574C33.7219 33.8894 33.4884 36.0832 32.5544 37.0234ZM28.4295 39.9227C28.9744 39.9227 29.6749 39.6093 30.3754 39.2176C30.9421 38.9324 30.9286 38.063 30.9216 37.6137L30.9209 37.5717L30.9204 37.5252L30.9202 37.4939C30.7646 33.263 27.262 32.2444 27.262 32.2444V39.8444C27.262 39.924 27.2821 39.9227 27.4446 39.9125C27.6021 39.9025 27.8933 39.8842 28.4295 39.9227ZM27.262 43.7618V41.8814C28.5073 41.803 29.597 41.568 30.0641 41.3329C30.0641 42.0381 28.8187 43.2917 27.262 43.7618ZM27.7971 20.737C27.6512 20.6881 27.5344 20.6489 27.262 20.6489V27.7004C27.4176 27.7004 27.8068 27.7788 28.1182 27.8571L28.1668 27.867C28.5332 27.9414 28.8252 28.0006 28.9744 27.7004C29.7527 26.7602 30.0641 25.82 30.2197 23.5479C30.2197 22.6077 30.1419 21.8242 29.9084 21.4324C29.8027 21.2197 29.3745 21.1153 28.9886 21.0212C28.8058 20.9766 28.6324 20.9343 28.5073 20.884C28.1182 20.8448 27.943 20.786 27.7971 20.737ZM27.262 17.9847C28.196 18.2197 28.9744 18.9249 29.2079 19.5517C29.1881 19.5517 29.0783 19.5214 28.9189 19.4776L28.9188 19.4776L28.9188 19.4775C28.4499 19.3485 27.5524 19.1014 27.262 19.1599V17.9847ZM23.2915 30.0505H25.2374V29.1886C24.5702 29.1886 24.1866 29.141 23.7183 29.083L23.7179 29.0829L23.7175 29.0829C23.5851 29.0664 23.4458 29.0492 23.2915 29.0319V30.0505ZM25.1605 39.8447C25.1605 40.1581 24.2265 40.0798 23.6816 39.6097C23.2924 39.3746 23.2146 38.9045 23.2146 38.9045V31.618H25.1605V39.8447ZM23.3705 41.6459C23.4483 42.4294 23.9931 43.5263 25.1607 43.9181V41.881C24.6462 41.9385 24.1737 41.827 23.774 41.7327C23.6295 41.6986 23.4945 41.6667 23.3705 41.6459ZM25.1605 20.6489V27.4654C25.1605 27.4654 24.1486 27.5437 23.6038 27.387C23.2924 27.2303 23.2146 26.9953 23.2146 26.9953V21.0407C23.8373 20.8056 24.46 20.6489 25.1605 20.6489ZM25.1602 19.0813V17.7494C24.0705 17.8277 23.37 18.5329 23.1365 19.3164C23.1513 19.3164 23.1948 19.3049 23.2628 19.2869L23.263 19.2868L23.2631 19.2868C23.5509 19.2107 24.2792 19.018 25.1602 19.0813ZM21.4247 26.6818C20.2572 26.055 19.868 25.1931 19.868 24.3313C19.868 23.3911 20.4907 22.5292 21.4247 21.8241V26.6818ZM30.6089 28.4827C32.2434 28.9528 33.7223 30.1281 34.5785 31.8518C36.0574 34.8291 35.2012 38.3548 32.7883 40.0785C32.3991 43.1342 29.2857 45.6414 27.4954 45.7197C27.4954 45.7197 27.1063 47.5218 29.7527 49.3238C31.3872 50.4207 29.0522 50.1857 28.3516 49.7156L28.2603 49.6607C27.7705 49.3671 26.4526 48.5771 26.0166 47.9919C25.6711 48.5135 25.1552 48.8208 24.6266 49.1357C24.4406 49.2465 24.253 49.3582 24.0707 49.4805C23.5258 49.7939 22.8253 50.029 22.1248 50.029C20.4124 50.029 19.0114 48.9321 19.0114 47.5218C19.0114 46.7383 19.4784 46.0331 20.1789 45.563C20.4124 45.4847 20.9573 45.4063 21.3464 45.563C21.5944 45.9909 21.3749 46.1591 21.1281 46.3483C20.8325 46.5749 20.4977 46.8316 20.8794 47.6001C21.0351 48.462 21.9691 48.462 22.981 48.3053C22.981 48.3053 24.4599 47.7568 25.0047 46.0331C25.043 45.956 24.8928 45.8979 24.6468 45.8027C24.393 45.7044 24.0373 45.5667 23.6815 45.328C22.981 44.9362 22.3583 44.0744 21.9691 43.5259C19.7897 44.6228 18.3109 43.3692 18.233 42.194C17.9995 41.7239 18.6222 41.0187 18.8557 40.862C19.5562 40.3136 19.7119 40.9404 19.7119 40.9404C19.6794 40.9731 19.6469 41.0024 19.6158 41.0304C19.498 41.1366 19.4005 41.2245 19.4005 41.4105C19.4005 41.9589 19.8676 42.429 20.4124 42.429C20.9573 42.429 21.4243 41.9589 21.4243 41.4105C21.4243 40.9404 21.1908 40.627 20.8016 40.4703C19.6341 39.2167 18.4665 39.1383 17.9217 39.1383C17.9074 39.1383 17.8898 39.1377 17.8692 39.1369C17.6652 39.1292 17.1639 39.1104 16.5985 39.6084C15.9758 40.1569 15.3531 39.6084 16.0536 39.06C17.4841 37.908 17.4686 37.0207 17.4567 36.3372L17.4567 36.3371C17.4557 36.2768 17.4547 36.2182 17.4547 36.161C17.4547 35.3775 17.299 34.594 16.832 33.8889C16.365 33.1837 16.7541 33.1054 17.1433 33.1054C17.3546 33.1054 17.8526 33.9352 18.5401 35.0807C18.8657 35.6233 19.2338 36.2366 19.6341 36.8662C19.8606 37.1854 20.0607 37.3719 20.2345 37.5338L20.2345 37.5338C20.3593 37.6501 20.4705 37.7537 20.5681 37.8847C21.5799 39.2167 21.5021 38.1981 21.5021 38.1981V28.9528C19.2449 28.1693 18.0773 26.4456 18.0773 24.5652C18.0773 22.7632 19.4784 21.1962 21.1908 20.256C21.1908 19.4725 20.5681 18.689 19.7897 18.689C19.0114 18.689 18.8557 19.3941 19.2449 19.8642C19.2449 19.9165 19.2622 19.9687 19.2795 20.0209L19.2795 20.0209C19.3141 20.1254 19.3487 20.2299 19.2449 20.3343C18.8557 20.6477 18.233 20.3343 18.233 20.3343C17.8438 19.9426 17.6103 19.5508 17.6103 19.0024C17.6103 17.9055 18.4665 16.8086 20.1789 16.9653C20.8016 16.9653 21.7356 17.5921 22.1248 18.2189C22.514 17.5137 23.448 16.8869 24.382 16.4952C24.3139 16.413 24.2459 16.3283 24.1765 16.2421L24.1763 16.2418L24.1761 16.2416C23.8492 15.8352 23.4945 15.3942 22.981 15.0065C22.8514 14.9486 22.7246 14.8906 22.5998 14.8337C22.0502 14.5826 21.5426 14.3508 21.0351 14.223C20.8794 14.0663 20.9573 12.9694 21.9691 13.6746C22.9031 13.988 24.0707 14.223 25.0047 14.3797C25.5496 14.4581 26.1722 14.5364 26.8728 14.4581C27.729 14.3797 28.5073 14.223 29.0522 13.9096C29.7527 13.5962 31.3872 13.0478 32.5548 13.0478C32.7883 13.0478 32.7104 13.3612 32.4769 13.7529C31.9321 13.7529 31.3094 13.988 30.531 14.3014C29.13 14.8498 28.0403 15.79 27.8068 16.4952C29.7527 16.9653 30.9202 18.7673 31.3094 19.6292C31.3094 19.6292 32.0877 19.8642 32.6326 18.7673C33.1774 17.6704 33.4109 18.8457 33.1774 19.2374C33.0218 19.4725 33.0218 20.6477 33.0996 20.9611C33.0996 21.2745 33.5666 22.9982 34.0336 23.39C34.6563 23.8601 33.9558 24.5652 33.3331 23.7034C32.7883 22.9199 32.0877 22.5281 31.9321 22.6848C32.0099 22.9199 32.0099 23.2333 32.0099 23.5467V23.5467C31.9321 25.192 31.5429 26.8374 30.6867 28.1693L30.6089 28.4827ZM395.424 37.7291L395.502 25.3498C395.502 22.6859 393.634 22.2941 392.7 22.2941H391.999V21.2756C392.777 21.2756 393.536 21.3147 394.295 21.3539C395.054 21.3931 395.813 21.4323 396.591 21.4323C397.253 21.4323 397.915 21.3931 398.576 21.3539C399.238 21.3147 399.899 21.2756 400.561 21.2756V22.2941H400.094C398.693 22.2941 397.214 22.5292 397.214 26.4467V41.3332C397.214 42.5084 397.214 43.6053 397.448 44.6239H396.202L379.468 25.8199V39.2961C379.468 42.1167 380.012 43.1352 382.503 43.1352H383.048V44.0754C382.348 44.0754 381.647 44.0362 380.946 43.9971C380.246 43.9579 379.545 43.9187 378.845 43.9187C378.105 43.9187 377.366 43.9579 376.627 43.997C375.887 44.0362 375.148 44.0754 374.408 44.0754V43.1352H374.875C377.133 43.1352 377.833 41.5682 377.833 38.9827V25.1931C377.833 23.391 376.354 22.2158 374.875 22.2158H374.486V21.1972C375.109 21.1972 375.731 21.2364 376.354 21.2756C376.977 21.3147 377.6 21.3539 378.222 21.3539C378.738 21.3539 379.234 21.3132 379.72 21.2732C380.187 21.2348 380.644 21.1972 381.102 21.1972L395.424 37.7291ZM358.608 43.2136H358.219V44.2321C358.799 44.2321 359.515 44.1981 360.279 44.1617C361.155 44.1201 362.094 44.0754 362.967 44.0754C363.794 44.0754 364.701 44.1156 365.597 44.1552L365.597 44.1552C366.471 44.1939 367.335 44.2321 368.104 44.2321V43.2919H367.637C366.469 43.2919 365.224 43.1352 365.224 41.4115V24.2529C365.224 22.5292 366.469 22.3725 367.637 22.3725H368.104V21.3539C367.335 21.3539 366.471 21.3922 365.597 21.4308C364.701 21.4705 363.794 21.5106 362.967 21.5106C362.094 21.5106 361.133 21.466 360.236 21.4243C359.454 21.388 358.721 21.3539 358.141 21.3539V22.3725H358.608C359.776 22.3725 361.021 22.5292 361.021 24.2529V41.3332C361.021 43.0569 359.776 43.2136 358.608 43.2136ZM349.423 26.2116C349.19 24.0961 347.867 22.059 345.61 22.059C343.041 22.059 341.64 23.626 341.64 26.2116C341.64 28.6579 343.632 29.6604 345.814 30.758C348.453 32.086 351.369 33.5533 351.369 37.8857C351.369 42.43 347.633 44.7805 343.508 44.7805C341.718 44.7805 339.928 44.1537 338.371 43.2918C338.297 42.5149 338.206 41.7379 338.115 40.9527C338.012 40.0751 337.908 39.1872 337.826 38.2774L338.76 38.0424C339.149 40.863 340.706 43.2135 343.819 43.2135C345.999 43.2135 347.789 41.8032 347.789 39.4527C347.789 36.7787 345.753 35.7213 343.558 34.5818C340.995 33.2505 338.215 31.8072 338.215 27.5435C338.215 23.3126 341.173 20.7271 345.376 20.7271C345.955 20.7271 347.22 20.8774 348.34 21.0105L348.341 21.0105C349.029 21.0922 349.661 21.1673 350.046 21.1972C350.046 22.7642 350.202 24.3312 350.358 25.8982L349.423 26.2116ZM317.121 34.2811L320.235 25.0358L323.193 34.2811H317.121ZM315.169 40.5487L315.169 40.5499C314.961 41.1767 314.788 41.6991 314.788 42.117C314.788 43.1356 316.189 43.2923 317.201 43.2923H317.59V44.2325C316.267 44.1541 314.944 44.0758 313.62 44.0758C312.453 44.0758 311.286 44.1541 310.118 44.2324L310.118 44.2325V43.2923H310.351C311.597 43.2923 312.686 42.5088 313.153 41.1768L318.368 26.1336C318.437 25.9254 318.514 25.7024 318.593 25.4695L318.594 25.4671L318.596 25.4618C318.966 24.3815 319.408 23.0885 319.536 22.0594C320.548 21.6677 321.871 21.0409 322.494 20.6491C322.533 20.6491 322.571 20.6295 322.61 20.6099C322.649 20.5903 322.688 20.5708 322.727 20.5708C322.805 20.5708 322.883 20.5708 322.961 20.6491C323 20.7667 323.058 20.9038 323.116 21.041C323.175 21.1781 323.233 21.3151 323.272 21.4326L329.265 38.5913C329.655 39.7665 330.044 40.9418 330.433 41.9603C330.822 42.9005 331.523 43.2923 332.612 43.2923H332.846V44.2325C331.367 44.1541 329.888 44.0758 328.331 44.0758C326.846 44.0758 325.289 44.1471 323.661 44.2218L323.428 44.2325V43.2923H323.817C324.595 43.2923 325.841 43.1356 325.841 42.3521C325.841 42.0175 325.614 41.2831 325.353 40.4415L325.353 40.4409C325.309 40.2971 325.263 40.1502 325.218 40.0016L323.973 36.2408H316.578L315.488 39.5315C315.385 39.8966 315.273 40.2356 315.169 40.5487ZM285.909 22.2939C286.921 22.2939 288.244 22.3723 288.244 24.8011H288.088V41.2546C288.088 42.5082 286.921 43.0567 285.753 43.0567H285.131V43.9969C285.958 43.9969 286.765 43.9567 287.563 43.9171C288.341 43.8784 289.11 43.8402 289.879 43.8402C290.813 43.8402 291.747 43.8793 292.681 43.9185C293.615 43.9577 294.549 43.9969 295.483 43.9969V43.0567H294.86C293.381 43.0567 292.214 42.9783 292.214 40.4711V33.498H294.393C296.495 37.2588 298.674 40.7845 301.165 44.0752C301.671 44.0752 302.176 44.036 302.682 43.9969L302.683 43.9969L302.683 43.9968C303.189 43.9577 303.694 43.9185 304.2 43.9185C304.745 43.9185 305.271 43.9577 305.796 43.9969C306.321 44.036 306.847 44.0752 307.392 44.0752V43.135C305.835 42.9783 305.212 42.5866 304.278 41.1763L298.752 32.7928C301.32 31.8526 303.266 30.0506 303.266 27.0733C303.266 22.3723 299.686 21.2754 295.561 21.2754C294.732 21.2754 293.939 21.3121 293.122 21.35C292.25 21.3903 291.35 21.4321 290.346 21.4321C289.16 21.4321 287.975 21.3783 286.993 21.3337C286.298 21.3022 285.705 21.2754 285.286 21.2754V22.2939H285.909ZM292.448 32.4008H294.005C297.274 32.4008 298.986 31.1472 298.986 27.308C298.986 24.4091 297.118 22.5287 294.238 22.5287C293.304 22.5287 292.837 22.607 292.37 22.6854V32.4008H292.448ZM264.426 34.2811L267.54 25.0358L270.497 34.2811H264.426ZM262.474 40.5487L262.473 40.5499C262.266 41.1767 262.093 41.6991 262.093 42.117C262.093 43.1356 263.494 43.2923 264.505 43.2923H264.895V44.2325C263.571 44.1541 262.248 44.0758 260.925 44.0758C259.758 44.0758 258.59 44.1541 257.423 44.2324L257.422 44.2325V43.2923H257.656C258.901 43.2923 259.991 42.5088 260.458 41.1768L265.673 26.1336C265.742 25.9254 265.818 25.7024 265.898 25.4695L265.899 25.4671L265.901 25.4618C266.27 24.3815 266.713 23.0885 266.841 22.0594C267.852 21.6677 269.176 21.0409 269.798 20.6491C269.837 20.6491 269.876 20.6295 269.915 20.6099C269.954 20.5903 269.993 20.5708 270.032 20.5708C270.11 20.5708 270.187 20.5708 270.265 20.6491C270.304 20.7666 270.363 20.9037 270.421 21.0409C270.479 21.178 270.538 21.3151 270.577 21.4326L276.57 38.5913C276.959 39.7665 277.348 40.9418 277.737 41.9603C278.127 42.9005 278.827 43.2923 279.917 43.2923H280.073V44.2325C278.594 44.1541 277.115 44.0758 275.558 44.0758C274.072 44.0758 272.516 44.1471 270.888 44.2218L270.654 44.2325V43.2923H271.044C271.822 43.2923 273.067 43.1356 273.067 42.3521C273.067 42.0176 272.84 41.2834 272.58 40.442L272.58 40.4413L272.509 40.2126L272.445 40.0016L271.199 36.2408H263.805L262.793 39.5315C262.689 39.8966 262.577 40.2356 262.474 40.5487ZM247.148 22.059C249.405 22.059 250.729 24.0961 250.962 26.2116L251.896 25.8982C251.741 24.3312 251.585 22.7642 251.585 21.1972C251.2 21.1673 250.567 21.0922 249.879 21.0105C248.759 20.8774 247.493 20.7271 246.915 20.7271C242.712 20.7271 239.754 23.3126 239.754 27.5435C239.754 31.8072 242.533 33.2505 245.097 34.5818C247.291 35.7213 249.328 36.7787 249.328 39.4527C249.328 41.8032 247.537 43.2135 245.358 43.2135C242.245 43.2135 240.688 40.863 240.299 38.0424L239.365 38.2774C239.447 39.1872 239.551 40.0751 239.653 40.9528L239.653 40.9532L239.653 40.9536L239.653 40.9541L239.653 40.9543L239.654 40.9546L239.654 40.9549L239.654 40.9551C239.745 41.7395 239.836 42.5157 239.91 43.2918C241.466 44.1537 243.256 44.7805 245.047 44.7805C249.172 44.7805 252.908 42.43 252.908 37.8857C252.908 33.5533 249.992 32.086 247.352 30.758C245.171 29.6604 243.179 28.6579 243.179 26.2116C243.179 23.626 244.58 22.059 247.148 22.059ZM209.397 25.0358L206.284 34.2811H212.355L209.397 25.0358ZM204.329 40.55C204.433 40.2366 204.545 39.8971 204.649 39.5315L205.739 36.2408H213.133L214.379 40.0016L214.4 40.0727L214.454 40.2461L214.514 40.4409C214.774 41.2828 215.001 42.0175 215.001 42.3521C215.001 43.1356 213.756 43.2923 212.978 43.2923H212.588V44.2325L212.822 44.2217C214.45 44.1471 216.006 44.0758 217.492 44.0758C219.049 44.0758 220.528 44.1541 222.006 44.2324L222.007 44.2325V43.2923H221.773C220.683 43.2923 219.983 42.9005 219.594 41.9603C219.204 40.9418 218.815 39.7665 218.426 38.5913L212.433 21.4326C212.394 21.3151 212.336 21.178 212.277 21.0409C212.219 20.9037 212.16 20.7666 212.121 20.6491C212.044 20.5708 211.966 20.5708 211.888 20.5708C211.849 20.5708 211.81 20.5903 211.771 20.6099C211.732 20.6295 211.693 20.6491 211.654 20.6491C211.032 21.0409 209.709 21.6677 208.697 22.0594C208.569 23.0885 208.126 24.3816 207.757 25.4619L207.756 25.4625C207.676 25.698 207.599 25.9233 207.529 26.1336L202.314 41.1768C201.847 42.5088 200.757 43.2923 199.512 43.2923H199.279V44.2325L199.279 44.2324C200.446 44.1541 201.614 44.0758 202.781 44.0758C204.104 44.0758 205.427 44.1541 206.751 44.2324L206.751 44.2325V43.2923H206.362C205.35 43.2923 203.949 43.1356 203.949 42.117C203.949 41.6991 204.122 41.1768 204.329 40.55ZM176.707 24.8011C176.707 22.3723 175.383 22.2939 174.371 22.2939H173.749V21.2754C174.168 21.2754 174.761 21.3022 175.455 21.3337L175.455 21.3337C176.437 21.3783 177.623 21.4321 178.808 21.4321C179.812 21.4321 180.713 21.3903 181.584 21.35C182.402 21.3121 183.194 21.2754 184.023 21.2754C188.148 21.2754 191.729 22.3723 191.729 27.0733C191.729 30.0506 189.783 31.8526 187.214 32.7928L192.741 41.1763C193.675 42.5866 194.297 42.9783 195.932 43.135V44.0752C195.387 44.0752 194.862 44.036 194.336 43.9969L194.336 43.9969L194.336 43.9968C193.811 43.9577 193.285 43.9185 192.741 43.9185C192.235 43.9185 191.729 43.9577 191.223 43.9968C190.717 44.036 190.211 44.0752 189.705 44.0752C187.214 40.7845 185.035 37.2588 182.933 33.498H180.754V40.4711C180.754 42.9783 181.922 43.0567 183.4 43.0567H184.023V43.9969C183.089 43.9969 182.155 43.9577 181.221 43.9185C180.287 43.8793 179.353 43.8402 178.419 43.8402C177.65 43.8402 176.881 43.8784 176.103 43.9171L176.103 43.9171C175.305 43.9567 174.498 43.9969 173.671 43.9969V43.0567H174.294C175.461 43.0567 176.629 42.5082 176.629 41.2546V24.8011H176.707ZM182.389 32.4008H180.832H180.754V22.6854C181.221 22.607 181.688 22.5287 182.622 22.5287C185.502 22.5287 187.37 24.4091 187.37 27.308C187.37 31.1472 185.658 32.4008 182.389 32.4008ZM157.17 31.3827H161.684C163.241 31.3827 163.786 30.3642 163.786 28.7188H164.797L164.797 28.7195C164.72 29.8945 164.642 31.0696 164.642 32.2446C164.642 33.5765 164.642 34.9085 164.797 36.2404H163.863C163.863 34.4384 163.319 33.0281 161.295 33.0281H157.247V41.4115C157.247 43.2136 158.726 43.2919 160.361 43.2919H160.75V44.2321C160.007 44.2321 159.122 44.1964 158.197 44.1591L158.197 44.1591C157.184 44.1182 156.122 44.0754 155.146 44.0754C154.234 44.0754 153.257 44.1198 152.343 44.1613C151.539 44.1978 150.783 44.2321 150.164 44.2321V43.2919H150.631C151.799 43.2919 153.044 43.1352 153.044 41.4115V24.2529C153.044 22.5292 151.799 22.3725 150.631 22.3725H150.164V21.3539C151.056 21.3539 152.257 21.3868 153.559 21.4224L153.56 21.4224L153.56 21.4224L153.56 21.4225C155.101 21.4646 156.783 21.5106 158.259 21.5106C159.697 21.5106 161.33 21.467 162.873 21.4257L162.873 21.4257C164.252 21.3889 165.559 21.3539 166.588 21.3539C166.51 22.7642 166.588 24.958 166.665 26.3683L165.654 26.6034C165.42 24.3312 164.953 22.7642 162.384 22.7642H157.17V31.3827ZM129.383 34.2811L132.497 25.0358L135.455 34.2811H129.383ZM127.747 39.5315C127.644 39.8971 127.531 40.2366 127.427 40.55C127.22 41.1768 127.047 41.6991 127.047 42.117C127.047 43.1356 128.448 43.2923 129.46 43.2923H129.849V44.2325L129.849 44.2324C128.526 44.1541 127.202 44.0758 125.879 44.0758C124.712 44.0758 123.544 44.1541 122.377 44.2324L122.377 44.2325V43.2923H122.532C123.778 43.2923 124.867 42.5088 125.334 41.1768L130.549 26.1336C130.619 25.9231 130.696 25.6975 130.777 25.4619C131.147 24.3816 131.589 23.0885 131.717 22.0594C132.729 21.6677 134.052 21.0409 134.675 20.6491C134.714 20.6491 134.753 20.6295 134.791 20.6099C134.83 20.5903 134.869 20.5708 134.908 20.5708C134.986 20.5708 135.064 20.5708 135.142 20.6491C135.181 20.7665 135.239 20.9034 135.297 21.0403L135.297 21.0409L135.298 21.0414C135.356 21.1783 135.414 21.3152 135.453 21.4326L141.446 38.5913C141.836 39.7665 142.225 40.9418 142.614 41.9603C143.003 42.9005 143.704 43.2923 144.793 43.2923H145.027V44.2325L145.027 44.2324C143.548 44.1541 142.069 44.0758 140.512 44.0758C139.027 44.0758 137.47 44.1471 135.842 44.2217L135.609 44.2325V43.2923H135.998C136.776 43.2923 138.022 43.1356 138.022 42.3521C138.022 42.0175 137.795 41.2828 137.534 40.4409C137.49 40.2971 137.444 40.1502 137.399 40.0016L136.154 36.2408H128.759L127.747 39.5315ZM112.103 22.059C114.36 22.059 115.683 24.0961 115.917 26.2116L116.851 25.8982L116.851 25.8979C116.695 24.331 116.54 22.7641 116.54 21.1972C116.155 21.1673 115.522 21.0922 114.834 21.0105C113.714 20.8774 112.448 20.7271 111.869 20.7271C107.666 20.7271 104.709 23.3126 104.709 27.5435C104.709 31.8072 107.488 33.2505 110.052 34.5818C112.246 35.7213 114.282 36.7787 114.282 39.4527C114.282 41.8032 112.492 43.2135 110.313 43.2135C107.199 43.2135 105.643 40.863 105.253 38.0424L104.319 38.2774C104.401 39.1872 104.505 40.0751 104.608 40.9528C104.7 41.738 104.791 42.5149 104.864 43.2918C106.421 44.1537 108.211 44.7805 110.001 44.7805C114.127 44.7805 117.863 42.43 117.863 37.8857C117.863 33.5533 114.946 32.086 112.307 30.758C110.126 29.6604 108.133 28.6579 108.133 26.2116C108.133 23.626 109.534 22.059 112.103 22.059ZM89.0641 42.1168C89.0641 43.5271 87.8966 44.7024 86.4956 44.7024C85.0945 44.7024 83.927 43.5271 83.927 42.1168C83.927 40.7065 85.0945 39.5313 86.4956 39.5313C87.8966 39.5313 89.0641 40.7849 89.0641 42.1168ZM71.395 22.3725C72.7961 22.3725 74.1193 22.3725 74.1193 24.0962H74.1971V47.5228C74.1971 48.3847 73.9636 50.03 72.7961 50.03C71.8593 50.03 71.6897 49.3417 71.5075 48.6022C71.2962 47.7443 71.068 46.8177 69.6048 46.8177C68.3594 46.8177 67.6589 47.6795 67.6589 48.6197C67.6589 50.7352 69.6048 51.362 71.4729 51.362C75.5203 51.362 78.3224 47.2094 78.3224 43.3703V24.0962C78.3224 22.6859 79.5677 22.3725 80.5796 22.3725H80.9688V21.3539C80.3498 21.3539 79.5774 21.3882 78.7554 21.4247C77.8203 21.4663 76.8208 21.5106 75.9095 21.5106C75.0607 21.5106 74.128 21.4684 73.2312 21.4278C72.401 21.3901 71.6015 21.3539 70.928 21.3539V22.3725H71.395Z" fill="#001950"/>
</svg>
