<svg width="205" height="66" viewBox="0 0 205 66" fill="none" xmlns="http://www.w3.org/2000/svg">
<path fill-rule="evenodd" clip-rule="evenodd" d="M35.0661 63.7766C33.7053 63.7766 33.4253 62.3847 33.4253 60.2937C33.4253 58.7821 33.4253 56.906 34.9918 56.906C36.4341 56.906 36.6343 58.6397 36.6343 60.5138C36.6343 61.9666 36.6343 63.7766 35.0661 63.7766ZM35.0985 55.5233C32.724 55.5233 31.3666 57.2933 31.3666 60.3824C31.3666 63.4578 32.6601 65.1512 35.0064 65.1512C37.3843 65.1512 38.6937 63.4578 38.6937 60.3824C38.6937 57.2482 37.4161 55.5233 35.0985 55.5233ZM21.3076 63.8766C20.4094 63.8766 19.5037 63.3765 19.5037 62.2573C19.5037 61.6237 20.0177 60.9748 20.4837 60.7856L20.8257 60.8291C21.646 61.0687 22.9272 61.4364 22.9272 62.5679C22.9272 63.335 22.2627 63.8766 21.3076 63.8766V63.8766ZM21.2147 56.7942C22.03 56.7942 22.6235 57.3998 22.6235 58.2363C22.6235 58.8507 22.2835 59.2223 21.9113 59.531L21.803 59.6249L21.6205 59.5658C20.8589 59.3298 19.9124 59.0348 19.9124 57.9555C19.9124 57.3862 20.4015 56.7942 21.2148 56.7942L21.2147 56.7942ZM23.3726 60.2056L23.0501 60.0667L23.362 59.8932C23.9628 59.5372 24.5687 59.0723 24.5687 57.9736C24.5687 56.7552 23.4896 55.5233 21.4289 55.5233C19.3699 55.5233 17.9826 56.5471 17.9826 58.0603C17.9826 59.0723 18.4254 59.5735 19.0882 60.0111L19.3576 60.1845L19.0669 60.3545C18.0339 60.8508 17.5146 61.559 17.5146 62.5081C17.5146 64.1395 18.8966 65.1512 21.126 65.1512C23.4826 65.1512 24.9478 64.0788 24.9478 62.3608C24.9478 61.3717 24.4324 60.6878 23.3726 60.2055M47.3548 58.7245L47.1473 58.7332V56.9733L47.3849 56.939C47.9006 56.8727 49.5643 56.8764 49.7008 56.8764C50.6595 56.8764 50.9164 57.1439 51.2388 57.4873L51.2372 55.5122C50.865 55.6476 50.4521 55.6268 50.1369 55.6268H45.5032V60.16C45.7795 60.0869 46.2491 60.0298 46.6975 60.0071C47.6418 59.9185 48.4232 60.1199 48.9495 60.5832C49.3962 60.9789 49.5785 61.4096 49.5308 62.2113C49.4439 63.7141 48.3861 63.9641 47.2202 63.9641C46.6495 63.9641 45.8167 63.8319 45.2072 63.5512L44.7535 64.6025C45.4783 64.9567 46.3695 65.1508 47.3511 65.1508C50.5001 65.1508 51.5083 63.4139 51.5083 61.9335C51.5083 61.6297 51.5438 60.5797 50.6294 59.7227C49.8622 59.0074 48.7599 58.6672 47.3547 58.7246M10.2316 63.6837L10.245 55.5652C9.39097 56.3494 8.48192 56.8145 7.4453 57.1582L8.32781 57.4273L8.35595 63.6837C8.35595 64.6136 7.89194 64.7594 7.62251 65.0476H10.9644C10.695 64.7594 10.2307 64.6136 10.2307 63.6837" fill="#990000"/>
<path fill-rule="evenodd" clip-rule="evenodd" d="M121.432 51.3821C110.474 51.3821 106.351 44.9063 105.119 39.417L105.121 39.4168C104.8 37.9941 104.675 36.6337 104.675 35.4738C104.675 32.8519 105.068 30.0005 106.217 27.4545C108.158 23.1482 112.26 19.7125 120.258 19.7125C121.709 19.7125 122.947 19.9659 123.622 20.1039C123.783 20.1369 123.912 20.1633 124.004 20.1781C124.376 20.237 124.778 20.2798 125.15 20.2798C125.678 20.2798 125.99 20.0709 126.283 19.874L126.344 19.8334C126.407 19.7932 126.58 19.6981 126.58 19.9559L126.584 24.4424L126.58 24.624C126.58 24.8523 126.394 24.7962 126.342 24.7501C126.251 24.6721 126.144 24.5722 126.021 24.4567C125.113 23.608 123.309 21.9196 120.283 21.9196C120.283 21.9215 120.298 21.923 120.311 21.9242C120.345 21.9276 120.355 21.9286 119.958 21.9286C115.763 21.9286 112.627 23.9932 110.829 27.4546H110.827C109.685 29.6472 109.08 32.3991 109.08 35.5368C109.08 36.8949 109.226 38.1944 109.507 39.4186C110.82 45.1858 115.1 49.2216 120.847 49.2216C122.104 49.2216 123.983 48.8262 125.247 48.4573C127.912 47.6728 129.642 45.7516 130.973 44.2738C131.069 44.1671 131.163 44.0627 131.255 43.9613C131.308 43.9042 131.477 43.9401 131.41 44.119C130.948 45.3307 129.286 49.2147 129.245 49.2702C129.028 49.5705 127.835 50.1435 126.953 50.4442C125.536 50.9309 123.546 51.3821 121.432 51.3821ZM153.44 19.8797C152.809 20.0505 151.82 20.1823 151.177 20.1823H132.381C131.738 20.1823 130.751 20.0506 130.114 19.8797C129.878 19.8357 129.913 19.9989 129.913 19.9989L129.904 24.2702L129.904 24.3599V24.36C129.904 24.5124 129.903 24.5988 129.922 24.674C129.959 24.8342 130.127 24.8028 130.172 24.665C130.172 24.665 130.273 24.2256 130.581 23.8201C131.121 23.1114 132.007 22.1207 133.435 22.1066L135.153 22.1089C135.269 22.1111 135.416 22.1138 135.585 22.1169C136.758 22.1383 138.996 22.1791 139.637 22.2377L139.912 22.2663V27.4522V39.4162V46.5361C139.912 50.0015 137.109 50.6456 137.109 50.6456C136.991 50.6817 136.915 50.8283 137.105 50.8836C137.191 50.9141 137.334 50.9141 137.538 50.9141H146.397C146.607 50.9141 146.746 50.9141 146.83 50.8836C147.019 50.8283 146.945 50.6817 146.826 50.6456C146.826 50.6456 144.027 50.0015 144.027 46.5361L144.025 39.4162L144.018 27.4522L144.016 22.2663L144.286 22.2377C145.016 22.1704 147.482 22.1249 148.406 22.1089L150.128 22.1066C151.552 22.1201 152.434 23.1114 152.981 23.8201C153.291 24.2256 153.386 24.665 153.386 24.665C153.435 24.8013 153.601 24.8326 153.638 24.674C153.658 24.5929 153.658 24.4987 153.658 24.3228L153.658 24.2702L153.649 19.9989C153.649 19.9989 153.684 19.8357 153.442 19.8797H153.44ZM204.343 24.2702L204.338 19.9989C204.338 19.9989 204.378 19.8357 204.136 19.8797C203.503 20.0505 202.517 20.1823 201.869 20.1823H183.442C182.796 20.1823 181.81 20.0506 181.174 19.8797C180.938 19.8357 180.969 19.9989 180.969 19.9989L180.967 24.2702C180.967 24.3268 180.966 24.3758 180.965 24.4188C180.963 24.5358 180.961 24.6091 180.982 24.674C181.017 24.8342 181.183 24.8028 181.23 24.665C181.23 24.665 181.325 24.2256 181.636 23.8201C182.179 23.1114 183.067 22.1207 184.492 22.1066L186.21 22.1089L186.403 22.1126C187.441 22.1325 189.644 22.1749 190.328 22.2377L190.604 22.2663V27.4522V39.4162V46.5361C190.604 50.0015 187.804 50.6456 187.804 50.6456C187.683 50.6817 187.607 50.8283 187.797 50.8836C187.884 50.9141 188.025 50.9141 188.231 50.9141H197.094C197.3 50.9141 197.439 50.9141 197.524 50.8836C197.711 50.8283 197.641 50.6817 197.519 50.6456C197.519 50.6456 194.72 50.0015 194.72 46.5361L194.715 39.4162L194.706 27.4522V22.2663L194.979 22.2377C195.708 22.1704 198.174 22.1249 199.105 22.1089L200.817 22.1066C202.241 22.1201 203.125 23.1114 203.674 23.8201C203.981 24.2256 204.082 24.665 204.082 24.665C204.122 24.8013 204.29 24.8326 204.329 24.674C204.348 24.6093 204.346 24.5364 204.344 24.4203V24.4199V24.4198V24.4196C204.344 24.3764 204.343 24.3272 204.343 24.2702ZM76.5383 36.6431C76.5516 36.6567 74.5782 36.6806 72.1522 36.5538L72.1455 27.4533L72.1436 26.5182C72.1436 25.9857 72.2071 22.5508 72.3078 22.1188C73.4012 21.9837 75.0822 21.9992 76.358 22.0109H76.358C76.6803 22.0139 76.9768 22.0166 77.2314 22.0166C81.6208 22.0166 83.5196 24.3677 84.0359 27.4597H84.0379C84.1416 28.0948 84.1894 28.7552 84.1894 29.4374C84.1894 33.4214 82.4776 36.6431 76.5385 36.6431L76.5383 36.6431ZM77.653 20.1438C83.9428 20.1438 87.0085 23.3361 87.7065 27.4535L87.7065 27.4607C87.8123 28.0843 87.8634 28.7312 87.8634 29.3919C87.8634 34.4554 84.8667 38.6935 77.2811 38.6935C77.2811 38.6935 74.1027 38.6648 72.2269 38.5344V39.4183V47.0111C72.2269 50.4778 75.0262 50.6727 75.0262 50.6727C75.1497 50.7015 75.2202 50.8517 75.0351 50.9091C74.9454 50.9391 74.8043 50.9413 74.5979 50.9413H65.8227C65.6163 50.9413 65.4753 50.9377 65.3924 50.9091C65.1993 50.8519 65.2768 50.7014 65.3968 50.6727C65.3968 50.6727 68.1961 50.4778 68.1961 47.0111V39.4183V27.4542V24.0955C68.1961 20.6278 65.3968 20.4347 65.3968 20.4347C65.2777 20.4035 65.2002 20.2555 65.3924 20.1984C65.4752 20.1686 65.6162 20.1664 65.8227 20.1664L77.653 20.1438ZM98.2853 27.4518V24.0987C98.2853 20.6333 101.09 20.4376 101.09 20.4376C101.211 20.4062 101.282 20.2603 101.092 20.2013C101.006 20.1758 100.865 20.1724 100.658 20.1724H92.1721C91.9661 20.1724 91.8251 20.1747 91.7404 20.2013C91.5498 20.2602 91.624 20.4064 91.7421 20.4376C91.7421 20.4376 94.545 20.6332 94.545 24.0987V27.4518V39.4158V47.0157C94.545 50.4878 91.7421 50.6813 91.7421 50.6813C91.6241 50.7097 91.5499 50.8548 91.7404 50.9136C91.8251 50.9423 91.966 50.9423 92.1721 50.9423H100.658C100.865 50.9423 101.006 50.9423 101.092 50.9136C101.281 50.8548 101.21 50.7097 101.09 50.6813C101.09 50.6813 98.2853 50.4879 98.2853 47.0157V39.4158V27.4518ZM176.493 47.1695C176.856 46.7831 177.069 46.2924 177.069 46.2924L177.071 46.2959C177.117 46.1546 177.292 46.1242 177.331 46.2868C177.347 46.3554 177.346 46.4354 177.345 46.5648C177.344 46.6072 177.344 46.6549 177.344 46.7093L177.339 50.7113C177.339 50.7113 177.343 50.9315 177.158 50.9315L170.829 50.9338H157.532C157.326 50.9338 157.183 50.9306 157.097 50.9051C156.908 50.8459 156.984 50.6993 157.106 50.6668C157.106 50.6668 159.901 50.0227 159.901 46.552V39.416V27.452V24.5543C159.901 21.0864 157.097 20.4432 157.097 20.4432C156.984 20.4107 156.905 20.2659 157.095 20.2077C157.178 20.1822 157.32 20.1754 157.527 20.1754L171.178 20.1845H174.2C174.845 20.1845 175.834 20.0529 176.465 19.8821C176.707 19.8363 176.67 19.9965 176.67 19.9965L176.674 24.3054C176.674 24.351 176.674 24.3917 176.675 24.4284C176.675 24.5587 176.676 24.6386 176.665 24.7092C176.619 24.8644 176.454 24.8383 176.413 24.7024C176.413 24.7024 176.117 24.2628 175.807 23.8542C175.258 23.1497 174.377 22.1683 172.954 22.1525C172.933 22.1525 172.846 22.1474 172.71 22.1395C172.291 22.115 171.409 22.0635 170.592 22.0532C168.182 22.0676 165.718 22.177 164.313 22.2932L164.059 22.3316V27.4515V34.4236H171.25C172.942 34.4236 173.259 33.0297 173.259 33.0297C173.27 32.9723 173.346 32.9347 173.374 33.0297C173.385 33.0725 173.39 33.1406 173.39 33.248V37.6457C173.39 37.7477 173.385 37.8192 173.374 37.8657C173.346 37.9557 173.27 37.9182 173.259 37.8589C173.259 37.8589 172.942 36.4663 171.25 36.4663H164.059V39.4159V48.5996C164.059 48.5996 167.14 48.9648 170.523 48.9648C170.523 48.9648 172.434 48.9918 173.843 48.6371C175.45 48.2327 175.816 47.9177 176.493 47.1695Z" fill="#656565"/>
<path fill-rule="evenodd" clip-rule="evenodd" d="M29.6017 4.86002C29.4615 4.30737 29.0538 3.57472 28.7062 3.24654C30.2606 2.55455 32.1449 2.85728 32.541 3.19147C31.0144 3.52737 30.1171 4.21772 29.6017 4.85995V4.86002ZM40.4018 6.73088C40.0112 7.09334 38.8839 8.27331 38.1489 8.47595C37.6425 8.58211 37.8223 8.23818 38.0352 7.996C39.1278 6.77566 39.7778 5.70436 40.0148 5.16385C40.312 4.51304 40.4452 3.02759 38.5677 3.26535C38.2062 3.30406 37.0567 3.57665 35.7684 4.48042C35.4745 4.68235 35.4796 4.42269 35.5627 4.24376C35.7701 3.79091 36.7695 2.96621 36.9855 2.78732C36.0953 2.06076 31.0191 -0.825571 25.5436 2.84262C24.8639 3.33639 24.2349 3.49537 23.8805 3.63305C23.6467 3.71024 23.0591 4.0472 23.0521 4.99549C23.0738 5.17265 23.1144 5.28494 23.3615 5.22717C24.157 5.00157 24.7465 4.57884 25.2722 4.39611C25.7182 4.1955 26.2058 4.5005 25.668 4.86029C24.9816 5.27085 24.2899 5.68058 23.9355 6.1456C23.7369 6.38447 22.9502 7.3933 24.1242 8.92327C24.4664 8.35651 25.6334 6.95371 27.2967 7.17296C28.9045 7.32026 30.827 9.10574 30.4916 11.8458C30.3465 13.2022 28.9579 14.7855 27.1219 13.9854C26.4822 13.6537 26.0554 13.2091 25.7009 11.9791C25.3256 12.2108 24.7464 12.9644 25.2062 13.8942C25.2858 14.1085 25.2409 14.2417 25.0369 14.4021C24.8262 14.5337 24.7051 14.8417 24.8745 15.1532C26.2957 17.7271 31.0815 16.5665 31.9129 12.8591C31.9737 12.6572 32.2259 12.6335 32.2188 12.9887C32.1049 17.7782 26.6104 20.1838 22.7895 16.0525C22.3313 15.598 21.9093 15.5753 21.2817 15.734C20.5971 15.9419 18.4516 16.4078 16.9974 16.1429C16.9455 17.0702 17.0105 19.538 20.6993 20.4451C21.1746 20.5406 20.8686 20.7898 20.6797 20.8963C18.9351 21.8672 17.545 21.748 16.5406 21.3892C16.9519 23.6764 19.2827 24.6565 20.8731 23.458C22.3654 22.3632 23.3561 22.4484 23.7778 22.5885C24.0873 22.7035 24.2221 22.9587 23.7713 23.014C22.7892 23.1261 21.4389 23.7483 20.8872 25.4715C20.3013 27.3078 19.4333 28.0325 18.9629 28.1428C19.933 28.4308 22.3068 28.3675 23.6209 27.6341C24.5319 27.1243 25.405 25.518 26.591 25.5741C26.7728 25.594 26.8866 25.6181 26.6133 25.8987C26.4751 26.0327 25.5432 26.9401 25.2441 28.307C25.1611 28.6905 24.7739 30.5099 23.842 31.0786C26.5547 32.0681 29.8983 30.4723 30.2236 26.5279C30.251 26.2039 30.469 26.0372 30.6039 26.5279C31.3871 29.3711 29.7722 32.2699 29.5733 32.5267C34.3452 31.9951 34.4732 28.7106 34.4177 28.0507C34.4543 27.3709 33.55 24.4547 34.4939 23.6106C34.7394 23.3869 34.9486 23.4394 34.8794 23.8816C34.7565 24.6504 35.3411 25.8453 35.6471 26.6568C36.4425 28.7648 35.5209 30.5099 34.7672 31.4023C35.2736 31.1566 39.0825 29.5185 38.396 26.0936C38.2491 25.3609 37.2878 23.9034 37.3102 22.3383C37.3232 21.5446 37.803 20.6637 38.0607 20.4636C38.3323 20.2539 38.5189 20.4054 38.46 20.6836C38.3702 21.0776 38.2508 22.4718 38.9182 23.4721C39.11 23.7563 39.7861 24.8224 39.8501 26.7742C42.3727 23.2554 41.2038 21.0776 40.6489 20.2471C38.709 17.337 39.5527 15.4647 39.769 14.9892C39.9159 14.6627 40.2511 14.5969 40.3239 14.9381C40.3962 15.2776 40.2511 17.4833 41.9921 19.5021C42.516 20.2234 42.4332 21.091 42.4937 21.4821C46.1503 14.0706 40.9619 7.41154 40.4015 6.73088M53.8195 20.4195C52.7837 21.9354 52.6628 21.8143 51.9365 23.1706C51.0479 24.822 50.5431 28.4891 52.471 30.985C52.8322 27.6345 55.6019 26.1667 56.4543 24.9674C57.3949 23.6462 56.9438 22.4908 56.5926 21.8353C56.1361 20.9824 56.4198 20.3133 56.5667 19.563C56.9296 17.7267 56.6722 16.5055 56.2798 15.4527C55.531 13.4472 51.9869 11.575 48.6155 14.6684C48.3006 15.0361 38.1414 23.389 43.2383 40.6971C44.0354 43.7045 42.566 45.6627 41.2156 46.7136C39.8151 47.8054 37.0245 48.4438 34.8496 46.8614C29.6456 43.0677 31.8135 35.6823 33.5008 32.8195C33.093 33.1811 31.1652 34.133 27.429 33.9928C27.7921 33.4803 28.5165 32.3246 28.6791 31.8203C25.3058 33.8856 22.2093 31.8526 21.7167 31.2185C22.498 30.814 23.342 30.3623 23.8364 28.7839C22.92 29.5787 19.2443 30.349 16.4676 28.5822C18.0893 27.8294 18.909 26.6566 19.113 26.1669C18.3764 26.4362 13.027 27.6707 7.42887 26.4163C5.26074 25.9413 4.73687 27.5172 4.62791 28.369C3.59764 28.9665 2.92833 31.5537 5.349 32.2573C5.349 33.1635 6.07334 35.4369 9.3998 33.3339C11.9049 31.6441 15.6915 31.3776 17.3788 31.4503C16.3415 35.1439 16.9933 36.4635 21.2809 42.5555C22.7748 44.7313 22.4637 47.6054 19.5954 47.6054C18.9174 47.6054 5.27817 47.6054 5.27817 47.6054V51.3815H52.3516V47.6054C52.3516 47.6054 46.1725 47.6054 45.5206 47.6054C48.5185 44.9278 46.8551 40.0482 46.5165 38.96C42.0334 24.6245 48.1919 17.9586 50.2042 16.1129C52.9755 13.644 56.6394 16.0638 53.8194 20.4197M19.0724 9.44672C20.8791 10.3831 22.971 10.2172 24.2124 9.9734C27.3813 9.3494 28.2253 9.44672 28.8872 9.66708C29.5756 9.89599 29.629 10.4688 29.565 10.6662C29.5114 10.8321 29.366 11.0243 28.8701 10.9629C28.4465 10.9067 27.1343 10.6662 25.217 11.319C21.1782 12.6922 19.4508 10.5487 19.0724 9.44672ZM37.6145 2.18947C37.0143 1.71062 36.0099 1.23233 35.1022 1.05955C36.7136 -0.279952 39.2691 0.7394 37.6145 2.18947ZM5.91228 34.9126C5.59765 34.8476 4.75916 34.6038 4.55511 33.6879C4.3666 34.0564 3.75286 36.9201 6.1768 36.8637C5.27265 36.434 5.79133 35.1703 5.91228 34.9126ZM4.15938 32.9986C3.81206 32.9243 3.11875 32.6268 3.04248 31.8013C2.78314 32.1847 1.05603 34.1316 3.23273 35.4177C2.89577 34.4139 3.53376 33.514 4.15949 32.9986M2.93762 31.0824C2.65402 30.608 2.4865 30.0534 2.85132 29.2348C2.43452 29.4332 -0.430187 30.8052 1.14818 32.9318C1.1569 31.6862 2.34818 31.2071 2.93768 31.0824M3.62471 28.0709C3.70077 27.6786 3.87015 26.8751 4.78655 26.4145C4.43379 26.3869 0.816929 26.2953 1.36858 29.1474C1.72461 27.8085 3.21664 28.0007 3.62471 28.0709ZM10.8708 20.1743C12.5998 22.4373 14.5326 23.0787 16.6056 24.0814C15.3229 23.0715 15.0341 21.0123 14.9736 19.9037C15.6236 20.1984 16.6784 20.5537 18.0336 20.523C16.1474 19.3472 15.7862 17.8935 15.5926 15.8327C14.1488 15.3801 13.2307 15.3906 9.68988 12.5681C7.15887 10.4556 4.96484 11.9198 5.09806 13.191C4.7728 13.3368 2.86753 14.3762 4.19365 16.3704C3.99315 17.1172 4.38564 19.2946 6.78703 19.0068C7.40949 19.0135 9.23004 18.0594 10.8708 20.1743ZM3.23677 17.4373C3.07964 18.3145 3.71731 18.9999 3.97146 19.1097C3.82632 19.1824 2.69384 19.7771 3.3716 20.8967C1.25549 19.8218 2.78892 17.8006 3.2367 17.4373M3.02659 16.6297C2.74655 16.2955 2.57874 15.6978 2.62886 15.1006C2.17938 15.3425 0.0270245 16.1708 1.4188 18.272C1.10225 17.0666 2.62204 16.6903 3.02659 16.6297ZM3.96945 12.6079C2.08681 12.4186 0.260803 13.1133 0.601604 15.2415C0.964722 13.7309 2.47063 14.1169 2.8215 14.1923C3.11897 13.2114 3.66354 12.8089 3.96945 12.6079ZM4.52482 11.8381C5.21483 11.109 5.80434 10.8729 6.39739 10.9003C5.83894 10.6221 3.14176 9.16655 2.42259 11.9249C3.27498 10.9827 4.35727 11.7143 4.52482 11.8379" fill="#990000"/>
</svg>
