<svg width="204" height="72" viewBox="0 0 204 72" fill="none" xmlns="http://www.w3.org/2000/svg">
<g clip-path="url(#clip0_11101_1382)">
<path d="M118.03 13.8547V43.1963C118.03 58.2752 109.945 60.1095 101.791 60.1095C87.251 60.1095 83.4459 52.7735 83.4459 42.5179V13.8547H78.3506V10.8657H99.4825V13.8547H93.979V41.5654C93.979 51.754 96.5607 56.3045 103.423 56.3727C110.489 56.4409 113.886 53.1121 113.886 42.5167V13.8547H108.723V10.8657H122.923V13.8547H118.03ZM125.505 56.4409H131.077V13.8547H125.845V10.8657H149.354C160.293 10.8657 163.961 16.8424 163.961 22.2771C163.961 28.8653 157.166 33.009 151.934 33.484C162.67 34.7739 165.863 41.0222 165.863 45.8455C165.863 55.7625 156.555 59.4299 148.401 59.4299H125.504V56.4409H125.505ZM146.159 32.2611C151.596 32.2611 154.041 28.2539 154.041 22.7522C154.041 18.2699 151.935 13.7865 146.771 13.7865H141.267V32.2611H146.159ZM145.548 56.5091C152.478 56.5091 155.74 52.5701 155.74 45.8455C155.74 39.1209 152.818 35.1137 146.431 35.1137H141.267V56.5091H145.548ZM198.001 24.1785C196.778 16.3004 192.837 13.175 187.469 13.175C182.781 13.175 179.587 15.8912 179.587 20.6463C179.587 25.1297 185.091 27.506 190.051 29.0687C198.408 31.6497 203.436 35.7251 203.436 45.0294C203.436 53.5871 196.778 60.1083 186.314 60.1083C181.897 60.1083 175.783 59.2252 172.114 57.0523L171.638 44.2828H174.765C175.376 52.0268 179.928 57.1205 186.655 57.1205C191.819 57.1205 195.147 53.7247 195.147 48.7663C195.147 43.8078 190.799 41.0904 184.549 39.0539C177.618 36.8128 171.707 32.3293 171.707 24.4513C171.707 15.6902 178.638 10.1873 188.082 10.1873C192.43 10.1873 197.527 11.3419 200.584 13.108L201.059 24.1785H198.001Z" fill="#E60000"/>
<path d="M61.8128 39.8366C57.6487 36.4659 51.6341 36.8332 47.6375 40.4552L46.6931 39.6906L48.2372 37.7845C48.0541 37.3059 47.7464 36.8679 47.3203 36.5233C46.8942 36.1775 46.4011 35.9681 45.8948 35.888L44.3507 37.7941L35.9219 30.9702L44.7972 23.7861L46.0624 25.3476L44.5004 26.6124L45.7655 28.1738L47.3275 26.9091L48.5927 28.4706L47.0307 29.7353L48.2958 31.2968L53.0369 27.4595L48.6058 24.9539L49.889 23.9153L53.9825 26.233L52.5665 21.7484L53.8496 20.7098L55.3805 25.563L60.1215 21.7257L58.8564 20.1642L57.2944 21.4289L56.0292 19.8674L57.5912 18.6027L56.3261 17.0412L54.7641 18.3059L53.4989 16.7444L57.1244 13.8093C57.0299 13.2075 56.7797 12.6212 56.368 12.1138C55.9562 11.6065 55.4356 11.2403 54.8658 11.0226L34.8662 27.213V0.479814C34.3384 0.174696 33.7256 0 33.072 0C32.4185 0 31.8057 0.174696 31.2778 0.479814V5.14275H29.2682V3.13495H27.2585V5.14395H25.2489V3.13495H23.2392V9.23254L27.9755 7.36713V9.01716L23.5983 10.739L27.9755 12.4608V14.1109L23.2392 12.2454V18.343H25.2489V16.334H27.2585V18.343H29.2682V16.334H31.2778V27.2094L11.2783 11.0202C10.7085 11.2379 10.1879 11.6041 9.77612 12.1114C9.36437 12.6188 9.11541 13.2051 9.01965 13.8069L12.6452 16.7421L11.38 18.3035L9.81801 17.0388L8.55285 18.6003L10.1148 19.865L8.84969 21.4265L7.28769 20.1618L6.02253 21.7233L10.7636 25.5606L12.2945 20.7074L13.5776 21.746L12.1616 26.2307L16.2551 23.9129L17.5382 24.9515L13.1072 27.4571L17.8482 31.2944L19.1134 29.7329L17.5514 28.4682L18.8166 26.9067L20.3786 28.1714L21.6437 26.61L20.0817 25.3452L21.3469 23.7837L30.2221 30.9678L21.7933 37.7917L20.2493 35.8856C19.743 35.9657 19.251 36.1751 18.8237 36.5209C18.3976 36.8667 18.09 37.3047 17.9069 37.7821L19.4509 39.6882L18.5066 40.4528C14.51 36.8308 8.4954 36.4635 4.33126 39.8342C0.167129 43.2048 -0.723389 49.1636 1.98886 53.823L0.581269 54.9621C0.675827 55.5639 0.925986 56.1503 1.33773 56.6576C1.74948 57.1649 2.27014 57.5311 2.83988 57.7488L4.24748 56.6097C8.24404 60.2317 14.2586 60.599 18.4228 57.2283C22.5869 53.8577 23.4774 47.8989 20.7652 43.2395L21.7095 42.4749L23.2536 44.381C23.7599 44.3009 24.2518 44.0915 24.6791 43.7457C25.1052 43.3999 25.4129 42.9619 25.596 42.4845L24.0519 40.5784L31.279 34.7273V44.0245H28.8253C28.5692 44.4672 28.422 44.9817 28.422 45.5309C28.422 46.0801 28.5692 46.5946 28.8253 47.0374H31.279V48.2519C25.9491 49.0775 21.8771 53.5191 21.8771 58.8748C21.8771 64.2305 25.9479 68.6721 31.279 69.4977V71.3081C31.8069 71.6132 32.4197 71.7879 33.0732 71.7879C33.7268 71.7879 34.3396 71.6132 34.8674 71.3081V69.4977C40.1974 68.6721 44.2694 64.2305 44.2694 58.8748C44.2694 53.5191 40.1986 49.0775 34.8674 48.2519V47.0374H37.3212C37.5773 46.5946 37.7245 46.0801 37.7245 45.5309C37.7245 44.9817 37.5773 44.4672 37.3212 44.0245H34.8674V34.7273L42.0945 40.5784L40.5505 42.4845C40.7336 42.9631 41.0412 43.4011 41.4673 43.7457C41.8934 44.0915 42.3866 44.3009 42.8929 44.381L44.4369 42.4749L45.3813 43.2395C42.6691 47.9001 43.5596 53.8577 47.7237 57.2283C51.8878 60.599 57.9024 60.2317 61.899 56.6097L63.3066 57.7488C63.8763 57.5311 64.397 57.1649 64.8087 56.6576C65.2205 56.1503 65.4694 55.5639 65.5652 54.9621L64.1576 53.823C66.8699 49.1624 65.9793 43.2048 61.8152 39.8342L61.8128 39.8366ZM16.6142 55.0016C13.6793 57.3767 9.4685 57.1901 6.51208 54.7778L8.04176 53.5394C7.9472 52.9375 7.69704 52.3512 7.2853 51.8439C6.87355 51.3366 6.35288 50.9704 5.78314 50.7526L4.25346 51.9911C2.50714 48.6001 3.20136 44.4421 6.13504 42.0669C8.44512 40.1967 11.4506 40.0783 12.8474 41.8025C13.8457 43.0337 13.6554 44.8417 12.4225 45.8384C11.1909 46.8363 9.38232 46.6461 8.38528 45.4137C7.82033 44.7161 7.636 43.8354 7.80596 43.0206L5.32831 45.026C5.43603 45.903 5.78314 46.761 6.37922 47.498C7.4002 48.758 8.92031 49.3766 10.4249 49.3C10.037 50.7562 10.3255 52.3704 11.3465 53.6315C11.9438 54.3686 12.711 54.8867 13.5465 55.1739L16.0241 53.1685C15.1922 53.1649 14.3676 52.8023 13.8026 52.1047C12.8044 50.8735 12.9947 49.0655 14.2275 48.0688C15.4592 47.0709 17.2677 47.2611 18.2648 48.4936C19.6616 50.2178 18.9207 53.1314 16.6106 55.0016H16.6142ZM37.3774 53.4987C39.5965 53.4987 41.3967 55.9074 41.3967 58.8796C41.3967 62.6535 38.6007 65.8088 34.8662 66.5865V64.6182C34.3384 64.3131 33.7256 64.1384 33.072 64.1384C32.4185 64.1384 31.8057 64.3131 31.2778 64.6182V66.5865C27.5422 65.8088 24.7474 62.6535 24.7474 58.8796C24.7474 55.9074 26.5464 53.4987 28.7667 53.4987C30.3526 53.4987 31.6369 54.7838 31.6369 56.368C31.6369 57.9523 30.3514 59.2373 28.7667 59.2373C27.869 59.2373 27.0682 58.8257 26.5416 58.1808V61.3672C27.2908 61.835 28.1766 62.1067 29.1257 62.1067C30.7476 62.1067 32.1851 61.3157 33.0732 60.0977C33.9602 61.3157 35.3977 62.1067 37.0207 62.1067C37.9699 62.1067 38.8556 61.8362 39.6049 61.3672V58.1808C39.0783 58.8257 38.2775 59.2373 37.3798 59.2373C35.7939 59.2373 34.5096 57.9523 34.5096 56.368C34.5096 54.7838 35.7951 53.4987 37.3798 53.4987H37.3774ZM61.8882 51.9911L60.3585 50.7526C59.7888 50.9704 59.2681 51.3366 58.8564 51.8439C58.4446 52.3512 58.1957 52.9375 58.0999 53.5394L59.6296 54.7778C56.6744 57.1901 52.4624 57.3767 49.5275 55.0016C47.2174 53.1314 46.4765 50.2178 47.8733 48.4936C48.8716 47.2623 50.6789 47.0721 51.9106 48.0688C53.1422 49.0667 53.3325 50.8735 52.3355 52.1047C51.7705 52.8023 50.947 53.1649 50.114 53.1685L52.5916 55.1739C53.4271 54.8867 54.1955 54.3686 54.7916 53.6315C55.8126 52.3716 56.1022 50.7562 55.7132 49.3C57.2178 49.3766 58.7379 48.758 59.7589 47.498C60.3561 46.761 60.7033 45.903 60.8098 45.026L58.3321 43.0206C58.5021 43.8354 58.3178 44.7161 57.7528 45.4137C56.7546 46.6449 54.9472 46.8352 53.7156 45.8384C52.4839 44.8405 52.2936 43.0337 53.2906 41.8025C54.6875 40.0783 57.693 40.1967 60.0031 42.0669C62.9367 44.4421 63.631 48.6001 61.8846 51.9911H61.8882Z" fill="black"/>
</g>
<defs>
<clipPath id="clip0_11101_1382">
<rect width="203" height="71.7927" fill="white" transform="translate(0.438477)"/>
</clipPath>
</defs>
</svg>
