<svg width="28" height="35" viewBox="0 0 28 35" fill="none" xmlns="http://www.w3.org/2000/svg">
    <path d="M23.387 18.61c-.04-4.416 3.56-6.57 3.723-6.665a8.058 8.058 0 0 0-2.753-2.494 7.91 7.91 0 0 0-3.56-.976c-2.643-.274-5.22 1.618-6.569 1.618-1.389 0-3.466-1.59-5.705-1.536A8.303 8.303 0 0 0 4.42 9.805a8.484 8.484 0 0 0-2.965 3.14c-3.062 5.363-.782 13.276 2.158 17.623 1.457 2.126 3.17 4.512 5.395 4.43 2.199-.096 3.022-1.426 5.666-1.426 2.63 0 3.399 1.426 5.665 1.371 2.36-.041 3.844-2.14 5.26-4.292A17.717 17.717 0 0 0 28 25.686a7.584 7.584 0 0 1-3.356-2.831 7.772 7.772 0 0 1-1.257-4.245zM19.071 5.623A7.904 7.904 0 0 0 20.824 0a7.796 7.796 0 0 0-5.058 2.674 7.477 7.477 0 0 0-1.433 2.519 7.561 7.561 0 0 0-.374 2.885c.98.008 1.95-.21 2.835-.637a6.494 6.494 0 0 0 2.277-1.832v.014z" fill="#63C6F7"/>
</svg>
