<svg width="29" height="34" viewBox="0 0 29 34" fill="none" xmlns="http://www.w3.org/2000/svg">
    <path d="M.583.66c-.41.5-.617 1.14-.578 1.79v28.268c-.039.65.168 1.29.578 1.79l.088.089 15.572-15.821v-.371L.67.571l-.088.09z" fill="url(#pay73tmmaa)"/>
    <path d="m21.396 22.054-5.153-5.278v-.37l5.153-5.291.113.063 6.171 3.566c1.76 1.01 1.76 2.67 0 3.693l-6.145 3.553-.139.064z" fill="url(#p4qxt7hx3b)"/>
    <path d="m21.549 21.977-5.304-5.393L.585 32.508a2.026 2.026 0 0 0 2.614.077l18.362-10.608" fill="url(#6y60bakl4c)"/>
    <path d="M21.548 11.19 3.186.584A2.026 2.026 0 0 0 .572.66l15.672 15.924 5.304-5.393z" fill="url(#08tmzyvp3d)"/>
    <defs>
        <linearGradient id="pay73tmmaa" x1="14.86" y1="2.156" x2="-6.581" y2="23.242" gradientUnits="userSpaceOnUse">
            <stop stop-color="#00A0FF"/>
            <stop offset=".01" stop-color="#00A1FF"/>
            <stop offset=".26" stop-color="#00BEFF"/>
            <stop offset=".51" stop-color="#00D2FF"/>
            <stop offset=".76" stop-color="#00DFFF"/>
            <stop offset="1" stop-color="#00E3FF"/>
        </linearGradient>
        <linearGradient id="p4qxt7hx3b" x1="29.98" y1="16.584" x2="-.422" y2="16.584" gradientUnits="userSpaceOnUse">
            <stop stop-color="#FFE000"/>
            <stop offset=".41" stop-color="#FFBD00"/>
            <stop offset=".78" stop-color="orange"/>
            <stop offset="1" stop-color="#FF9C00"/>
        </linearGradient>
        <linearGradient id="6y60bakl4c" x1="18.671" y1="19.523" x2="-10.412" y2="48.112" gradientUnits="userSpaceOnUse">
            <stop stop-color="#FF3A44"/>
            <stop offset="1" stop-color="#C31162"/>
        </linearGradient>
        <linearGradient id="08tmzyvp3d" x1="-3.362" y1="-8.746" x2="9.62" y2="4.022" gradientUnits="userSpaceOnUse">
            <stop stop-color="#32A071"/>
            <stop offset=".07" stop-color="#2DA771"/>
            <stop offset=".48" stop-color="#15CF74"/>
            <stop offset=".8" stop-color="#06E775"/>
            <stop offset="1" stop-color="#00F076"/>
        </linearGradient>
    </defs>
</svg>
