<svg xmlns="http://www.w3.org/2000/svg" width="32.407"
height="32.755">
<g>
    <path
        d="M15.68 27.432v1.142h1.045v-1.046h1.045v-1.572a1.57 1.57 0 00-1.568-1.568.523.523 0 01-.523-.523v-.523h.523a.523.523 0 01.523.523v.523h1.045v-.523a1.566 1.566 0 00-1.045-1.472v-1.137H15.68v1.045h-1.045v1.568a1.57 1.57 0 001.568 1.568.523.523 0 01.523.523v.523h-.523a.523.523 0 01-.523-.523v-.523h-1.045v.519a1.566 1.566 0 001.045 1.476z">
    </path>
    <path
        d="M31.361 17.075h-9.67l3.92-5.227h-2.09V6.621H19.34v5.228h-2.091l3.92 5.227h-4.443V8.189c0-1.492-3.919-1.568-4.7-1.568-.261 0-.872.01-1.568.076v-4.78C10.454.425 6.535.349 5.75.349s-4.7.076-4.7 1.568v15.158A1.046 1.046 0 000 18.12v13.59a1.046 1.046 0 001.045 1.045h30.316a1.046 1.046 0 001.045-1.045V18.12a1.046 1.046 0 00-1.045-1.045zm-10.976-4.181V7.667h2.091v5.227h1.045l-2.091 2.787-2.09-2.787zM8.363 17.075v-1.547a12.171 12.171 0 003.659.5 12.171 12.171 0 003.659-.5v1.547zm-6.272-4.683a12.171 12.171 0 003.659.5c.538 0 1.069-.026 1.568-.075v2.087a15.2 15.2 0 01-1.568.079 7.546 7.546 0 01-3.659-.618zm0-3.136a12.171 12.171 0 003.659.5c.538 0 1.069-.026 1.568-.075v2.088a15.2 15.2 0 01-1.568.08 7.546 7.546 0 01-3.659-.618zm13.59 1.975a7.546 7.546 0 01-3.659.618 7.546 7.546 0 01-3.659-.618V9.256a12.171 12.171 0 003.659.5 12.171 12.171 0 003.659-.5zm0 3.136a7.546 7.546 0 01-3.659.618 7.546 7.546 0 01-3.659-.618v-1.975a12.171 12.171 0 003.659.5 12.171 12.171 0 003.659-.5zm-.142-6.178a9.132 9.132 0 01-3.517.523 9.134 9.134 0 01-3.517-.523 9.132 9.132 0 013.517-.523 9.134 9.134 0 013.517.523zm-8.221 0v.443a15.051 15.051 0 01-1.568.079 7.546 7.546 0 01-3.659-.618V6.119a12.171 12.171 0 003.659.5 12.171 12.171 0 003.659-.5v.721c-1.091.204-2.091.596-2.091 1.349zM2.091 2.983a12.171 12.171 0 003.659.5 12.171 12.171 0 003.659-.5v1.975a7.546 7.546 0 01-3.659.618 7.546 7.546 0 01-3.659-.618zM5.75 1.394a9.134 9.134 0 013.517.523 9.134 9.134 0 01-3.517.523 9.134 9.134 0 01-3.517-.523 9.134 9.134 0 013.517-.523zM2.091 15.528a12.171 12.171 0 003.659.5c.538 0 1.069-.026 1.568-.075v1.12H2.091zM1.045 31.71V18.12h30.316v13.59z">
    </path>
    <path
        d="M2.091 19.165v11.5h28.225v-11.5zm3.083 1.045a2.622 2.622 0 01-2.038 2.038V20.21zm-2.038 7.37a2.622 2.622 0 012.038 2.038H3.136zm3.095 2.039a3.661 3.661 0 00-3.094-3.094v-3.22a3.661 3.661 0 003.094-3.095h6.677a5.736 5.736 0 000 9.408zm9.973-9.408a4.7 4.7 0 11-4.7 4.7 4.709 4.709 0 014.7-4.701zm11.029 9.408a2.622 2.622 0 012.038-2.038v2.038zm2.038-7.37a2.622 2.622 0 01-2.038-2.038h2.038zm-3.094-2.038a3.661 3.661 0 003.094 3.094v3.22a3.661 3.661 0 00-3.094 3.094h-6.678a5.736 5.736 0 000-9.408zM26.135 10.802h4.182V5.576h2.091L28.226 0l-4.182 5.576h2.091zm2.091-9.06l2.091 2.788h-1.046v5.227H27.18V4.53h-1.045z">
    </path>
</g>
</svg>