<?xml version="1.0" encoding="utf-8"?>
<!-- Generator: Adobe Illustrator 23.0.3, SVG Export Plug-In . SVG Version: 6.00 Build 0)  -->
<svg version="1.1" id="Layer_1" xmlns="http://www.w3.org/2000/svg" xmlns:xlink="http://www.w3.org/1999/xlink" x="0px" y="0px"
	 viewBox="0 0 259.4 56.85" style="enable-background:new 0 0 259.4 56.85;" xml:space="preserve">
<style type="text/css">
	.st0{fill:#2B2A2A;}
	.st1{fill:#3875B4;}
	.st2{fill:#3876B4;}
	.st3{clip-path:url(#SVGID_2_);fill:#3876B4;}
	.st4{clip-path:url(#SVGID_4_);fill:#3876B4;}
	.st5{clip-path:url(#SVGID_6_);fill:#3876B4;}
	.st6{clip-path:url(#SVGID_8_);fill:#3876B4;}
	.st7{clip-path:url(#SVGID_10_);fill:#3876B4;}
	.st8{clip-path:url(#SVGID_12_);fill:#3876B4;}
	.st9{clip-path:url(#SVGID_14_);fill:#3876B4;}
	.st10{clip-path:url(#SVGID_16_);fill:#3876B4;}
	.st11{clip-path:url(#SVGID_18_);fill:#3876B4;}
	.st12{clip-path:url(#SVGID_20_);fill:#3876B4;}
	.st13{clip-path:url(#SVGID_22_);fill:#3876B4;}
	.st14{clip-path:url(#SVGID_24_);fill:#3876B4;}
	.st15{clip-path:url(#SVGID_26_);fill:#3876B4;}
	.st16{clip-path:url(#SVGID_28_);fill:#3876B4;}
	.st17{fill:#6AC4EE;}
	.st18{clip-path:url(#SVGID_30_);}
	.st19{clip-path:url(#SVGID_32_);}
	.st20{clip-path:url(#SVGID_34_);fill:#3876B4;}
	.st21{clip-path:url(#SVGID_36_);fill:#3876B4;}
	.st22{clip-path:url(#SVGID_38_);fill:#3876B4;}
	.st23{clip-path:url(#SVGID_40_);fill:#3876B4;}
	.st24{clip-path:url(#SVGID_42_);fill:#3876B4;}
	.st25{clip-path:url(#SVGID_44_);fill:#3876B4;}
	.st26{fill:#FFFFFF;}
	.st27{clip-path:url(#SVGID_46_);}
	.st28{clip-path:url(#SVGID_48_);}
	.st29{clip-path:url(#SVGID_50_);fill:#6AC4EE;}
	.st30{clip-path:url(#SVGID_52_);fill:#6AC4EE;}
	.st31{clip-path:url(#SVGID_54_);fill:#6AC4EE;}
	.st32{clip-path:url(#SVGID_56_);fill:#6AC4EE;}
</style>
<g>
	<g>
		<path class="st17" d="M2.91,18.07c-0.1-0.38,0.3-1.24,0.58-1.3c2.27-0.43,2.29-1.05,4.57-1.02c0.16,0,0.33,0.01,0.5,0.01
			c0.51-0.36,1.05-0.53,1.05-0.53l4.53,0.89c1.02,0.09,2.03,0.18,2.96,0.27c0.39-0.13,0.8-0.26,1.19-0.36
			c1.24-0.32,1.42-1.12,2.17-0.67c0.58,0.36,0.59,2.09,0.56,2.85c0.14,0.13,0.28,0.25,0.44,0.34c1.79,1.08,3.77,1.85,5.5,3
			c4.84,3.22,9.59,6.57,14.38,9.87c2.22,1.53,4.46,3.04,7,4.77c-0.38-2.22-0.7-4.06-1.02-5.9c0.11-0.05,0.22-0.1,0.34-0.16
			c3.4,2.77,6.83,5.52,10.18,8.35c0.32,0.27,0.42,1.08,0.31,1.57c-0.56,2.37-0.72,4.71-0.06,7.08c0.42,1.52,0.84,3.04,1.11,4.59
			c0.19,1.09-0.08,2.28-1.4,2.33c-3.18,0.12-6.36,0.04-9.63,0.04c0.07-2.48,1.92-2.12,3.57-2.46c-1-3.41-1.97-6.7-3.92-9.62
			c-1.05-1.56-2.41-2.28-4.33-1.62c-0.87,0.3-1.78,0.54-2.69,0.64c-2.9,0.31-5.8,0.63-8.71,0.75c-1.29,0.05-2.39-0.57-2.66-2.12
			c-0.09-0.53-0.52-1.01-0.79-1.51c1.28,4.29-0.22,7.71-2.88,10.9c-1.08,1.29-1.93,2.76-2.91,4.12c-0.24,0.34-0.57,0.87-0.87,0.88
			c-2.22,0.08-4.45,0.04-6.67,0.04c-0.03-0.14-0.06-0.28-0.1-0.42c0.39-0.24,0.8-0.71,1.15-0.68c1.42,0.14,1.54-0.86,2.01-1.8
			c2.66-5.44-0.6-10.37-1.21-15.52c-0.02-0.14-0.21-0.25-0.29-0.38c-1.49-2.34-2.96-4.69-4.46-7.01c-1.53-2.37-3.34-4.39-6.2-5.23
			c-0.88-0.26-1.65-0.92-2.47-1.4c0.07-0.15,0.14-0.29,0.21-0.44c0.83,0,3.53,0.05,4.35,0.05c-0.78-0.59-3.61-0.75-4.3-1.24
			C3.45,19.61,3.09,18.78,2.91,18.07z"/>
	</g>
	<g>
		<path class="st17" d="M44.01,29.62c-3.49-2.43-6.68-4.65-9.24-6.43c1.73-2.06,3.5-4.05,5.13-6.14c2.72-3.47,6.17-4.36,10.31-3.2
			c0.45,0.13,1.06,0.07,1.49-0.13c4.18-1.89,8.34-3.82,12.71-5.84c0.27-3.3,1.07-4.18,4.56-4.46c0.92-0.07,1.87,0.08,2.77-0.08
			c1.52-0.26,3.02-0.69,4.53-1.04c0,0.85-0.83,1.37-1.78,1.63C72.98,4.36,71.42,4.61,69.9,5c-1.23,0.31-2.52,0.65-2.06,2.34
			c0.75-0.08,1.33-0.28,1.83-0.17c2.67,0.59,5.31,1.28,7.97,1.89c1.14,0.26,2.3,0.38,3.48,0.57c-0.62,2.71-1.7,4.61-4.55,5.49
			c-4.49,1.38-7.42,4.6-8.81,9.11c-0.71,2.28-1.29,4.59-1.97,6.88c-0.74,2.49-2,4.67-4.04,6.48c-6.4-5.39-12.73-10.74-19.43-16.39
			C42.93,24.19,43.43,26.73,44.01,29.62z"/>
	</g>
	<g>
		<path class="st17" d="M42.04,51.37c0.7-1.84,0.51-3.62-0.21-5.39c-0.48-1.19-1-2.37-1.55-3.67c1.17-0.28,2.16-0.55,3.16-0.75
			c2.34-0.48,4.81,1.36,4.72,3.79c-0.1,2.48-0.57,4.95-1.02,7.4c-0.09,0.51-0.76,1.27-1.2,1.29c-2.42,0.13-4.85,0.06-7.27,0.06
			c-0.08-0.24-0.17-0.48-0.25-0.71c0.66-0.28,1.32-0.77,1.98-0.79C41.35,52.58,41.74,52.16,42.04,51.37z"/>
	</g>
	<g>
		<path class="st17" d="M29.83,46.93c-0.24-0.48-0.47-1.09-0.4-1.59c0.14-0.94,0.51-1.84,0.75-2.64c1.55,0.15,3.04,0.26,4.53,0.46
			c0.36,0.05,0.88,0.28,1.01,0.57c1.32,2.99,2.28,6.08,2.03,9.42c-0.03,0.33-0.41,0.9-0.64,0.91c-2.56,0.07-5.13,0.04-7.69,0.04
			c-0.05-0.24-0.1-0.47-0.16-0.71c1.01-0.38,2.02-0.76,3.32-1.25C31.71,50.51,30.74,48.73,29.83,46.93z"/>
	</g>
	<g>
		<g>
			<path class="st17" d="M64.35,37.03c0.8-1.75,1.54-3.36,2.27-4.98c0.6,0.49,1.33,0.96,1.92,1.57c1.19,1.23,2.37,2.48,3.43,3.82
				c0.25,0.32,0.24,1.19-0.01,1.52c-1.87,2.42-3.83,4.77-5.81,7.2c-0.77-0.98-1.67-2.11-2.67-3.39c1.11-1.31,2.15-2.52,3.23-3.8
				C65.74,38.18,64.91,37.5,64.35,37.03z"/>
		</g>
	</g>
	<g>
		<g>
			<defs>
				<path id="SVGID_45_" d="M75.18,4.35l0.07-0.01c-0.01,0-0.04,0.03-0.09,0.08C75.17,4.4,75.18,4.38,75.18,4.35z"/>
			</defs>
			<use xlink:href="#SVGID_45_"  style="overflow:visible;fill:#6AC4EE;"/>
			<clipPath id="SVGID_2_">
				<use xlink:href="#SVGID_45_"  style="overflow:visible;"/>
			</clipPath>
			<g style="clip-path:url(#SVGID_2_);">
				<rect x="75.17" y="4.35" class="st17" width="0.09" height="0.08"/>
			</g>
			<g style="clip-path:url(#SVGID_2_);">
				<rect x="74.48" y="3.66" class="st17" width="1.45" height="1.45"/>
			</g>
			<g style="clip-path:url(#SVGID_2_);">
				<polygon class="st17" points="75.82,5.11 74.48,5.11 74.48,3.66 75.94,3.66 75.94,5.11 				"/>
			</g>
			<g style="clip-path:url(#SVGID_2_);">
				<polygon class="st17" points="75.31,5.11 74.48,5.11 74.48,3.66 75.94,3.66 75.94,5.11 				"/>
			</g>
			<g style="clip-path:url(#SVGID_2_);">
				<polygon class="st17" points="74.79,5.11 74.48,5.11 74.48,3.66 75.94,3.66 75.94,5.11 				"/>
			</g>
			<g style="clip-path:url(#SVGID_2_);">
				<rect x="74.48" y="3.66" class="st17" width="1.45" height="1.45"/>
			</g>
			<g style="clip-path:url(#SVGID_2_);">
				<rect x="74.48" y="3.66" class="st17" width="1.45" height="1.45"/>
			</g>
			<g style="clip-path:url(#SVGID_2_);">
				<rect x="74.48" y="3.66" class="st17" width="1.45" height="1.45"/>
			</g>
			<g style="clip-path:url(#SVGID_2_);">
				<rect x="74.48" y="3.66" class="st17" width="1.45" height="1.45"/>
			</g>
			<g style="clip-path:url(#SVGID_2_);">
				<rect x="74.48" y="3.66" class="st17" width="1.45" height="1.45"/>
			</g>
			<g style="clip-path:url(#SVGID_2_);">
				<rect x="74.48" y="3.66" class="st17" width="1.45" height="1.45"/>
			</g>
			<g style="clip-path:url(#SVGID_2_);">
				<rect x="74.48" y="3.66" class="st17" width="1.45" height="1.45"/>
			</g>
			<g style="clip-path:url(#SVGID_2_);">
				<rect x="74.48" y="3.66" class="st17" width="1.45" height="1.45"/>
			</g>
			<g style="clip-path:url(#SVGID_2_);">
				<rect x="74.48" y="3.66" class="st17" width="1.45" height="1.45"/>
			</g>
			<g style="clip-path:url(#SVGID_2_);">
				<rect x="74.48" y="3.66" class="st17" width="1.45" height="1.45"/>
			</g>
			<g style="clip-path:url(#SVGID_2_);">
				<rect x="74.48" y="3.66" class="st17" width="1.45" height="1.45"/>
			</g>
			<g style="clip-path:url(#SVGID_2_);">
				<rect x="74.48" y="3.66" class="st17" width="1.45" height="1.45"/>
			</g>
			<g style="clip-path:url(#SVGID_2_);">
				<rect x="74.48" y="3.66" class="st17" width="1.45" height="1.45"/>
			</g>
			<g style="clip-path:url(#SVGID_2_);">
				<rect x="74.48" y="3.66" class="st17" width="1.45" height="1.45"/>
			</g>
			<g style="clip-path:url(#SVGID_2_);">
				<rect x="74.48" y="3.66" class="st17" width="1.45" height="1.45"/>
			</g>
			<g style="clip-path:url(#SVGID_2_);">
				<rect x="74.48" y="3.66" class="st17" width="1.45" height="1.45"/>
			</g>
			<g style="clip-path:url(#SVGID_2_);">
				<rect x="74.48" y="3.66" class="st17" width="1.45" height="1.45"/>
			</g>
			<g style="clip-path:url(#SVGID_2_);">
				<rect x="74.48" y="3.66" class="st17" width="1.45" height="1.45"/>
			</g>
			<g style="clip-path:url(#SVGID_2_);">
				<rect x="74.48" y="3.66" class="st17" width="1.45" height="1.45"/>
			</g>
			<g style="clip-path:url(#SVGID_2_);">
				<rect x="74.48" y="3.66" class="st17" width="1.45" height="1.45"/>
			</g>
			<g style="clip-path:url(#SVGID_2_);">
				<rect x="74.48" y="3.66" class="st17" width="1.45" height="1.45"/>
			</g>
			<g style="clip-path:url(#SVGID_2_);">
				<rect x="74.48" y="3.66" class="st17" width="1.45" height="1.45"/>
			</g>
			<g style="clip-path:url(#SVGID_2_);">
				<rect x="74.48" y="3.66" class="st17" width="1.45" height="1.45"/>
			</g>
			<g style="clip-path:url(#SVGID_2_);">
				<rect x="74.48" y="3.66" class="st17" width="1.45" height="1.45"/>
			</g>
			<g style="clip-path:url(#SVGID_2_);">
				<rect x="74.48" y="3.66" class="st17" width="1.45" height="1.45"/>
			</g>
			<g style="clip-path:url(#SVGID_2_);">
				<rect x="74.48" y="3.66" class="st17" width="1.45" height="1.45"/>
			</g>
			<g style="clip-path:url(#SVGID_2_);">
				<rect x="74.48" y="3.66" class="st17" width="1.45" height="1.45"/>
			</g>
			<g style="clip-path:url(#SVGID_2_);">
				<rect x="74.48" y="3.66" class="st17" width="1.45" height="1.45"/>
			</g>
			<g style="clip-path:url(#SVGID_2_);">
				<rect x="74.48" y="3.66" class="st17" width="1.45" height="1.45"/>
			</g>
			<g style="clip-path:url(#SVGID_2_);">
				<rect x="74.48" y="3.66" class="st17" width="1.45" height="1.45"/>
			</g>
			<g style="clip-path:url(#SVGID_2_);">
				<rect x="74.48" y="3.66" class="st17" width="1.45" height="1.45"/>
			</g>
			<g style="clip-path:url(#SVGID_2_);">
				<rect x="74.48" y="3.66" class="st17" width="1.45" height="1.45"/>
			</g>
			<g style="clip-path:url(#SVGID_2_);">
				<rect x="74.48" y="3.66" class="st17" width="1.45" height="1.45"/>
			</g>
			<g style="clip-path:url(#SVGID_2_);">
				<rect x="74.48" y="3.66" class="st17" width="1.45" height="1.45"/>
			</g>
			<g style="clip-path:url(#SVGID_2_);">
				<rect x="74.48" y="3.66" class="st17" width="1.45" height="1.45"/>
			</g>
			<g style="clip-path:url(#SVGID_2_);">
				<rect x="74.48" y="3.66" class="st17" width="1.45" height="1.45"/>
			</g>
			<g style="clip-path:url(#SVGID_2_);">
				<rect x="74.48" y="3.66" class="st17" width="1.45" height="1.45"/>
			</g>
			<g style="clip-path:url(#SVGID_2_);">
				<rect x="74.48" y="3.66" class="st17" width="1.45" height="1.45"/>
			</g>
			<g style="clip-path:url(#SVGID_2_);">
				<rect x="74.48" y="3.66" class="st17" width="1.45" height="1.45"/>
			</g>
			<g style="clip-path:url(#SVGID_2_);">
				<rect x="74.48" y="3.66" class="st17" width="1.45" height="1.45"/>
			</g>
			<g style="clip-path:url(#SVGID_2_);">
				<rect x="74.48" y="3.66" class="st17" width="1.45" height="1.45"/>
			</g>
			<g style="clip-path:url(#SVGID_2_);">
				<rect x="74.48" y="3.66" class="st17" width="1.45" height="1.45"/>
			</g>
			<g style="clip-path:url(#SVGID_2_);">
				<rect x="74.48" y="3.66" class="st17" width="1.45" height="1.45"/>
			</g>
			<g style="clip-path:url(#SVGID_2_);">
				<rect x="74.48" y="3.66" class="st17" width="1.45" height="1.45"/>
			</g>
			<g style="clip-path:url(#SVGID_2_);">
				<rect x="74.48" y="3.66" class="st17" width="1.45" height="1.45"/>
			</g>
			<g style="clip-path:url(#SVGID_2_);">
				<rect x="74.48" y="3.66" class="st17" width="1.45" height="1.45"/>
			</g>
			<g style="clip-path:url(#SVGID_2_);">
				<rect x="74.48" y="3.66" class="st17" width="1.45" height="1.45"/>
			</g>
			<g style="clip-path:url(#SVGID_2_);">
				<rect x="74.48" y="3.66" class="st17" width="1.45" height="1.45"/>
			</g>
			<g style="clip-path:url(#SVGID_2_);">
				<rect x="74.48" y="3.66" class="st17" width="1.45" height="1.45"/>
			</g>
			<g style="clip-path:url(#SVGID_2_);">
				<rect x="74.48" y="3.66" class="st17" width="1.45" height="1.45"/>
			</g>
			<g style="clip-path:url(#SVGID_2_);">
				<rect x="74.48" y="3.66" class="st17" width="1.45" height="1.45"/>
			</g>
			<g style="clip-path:url(#SVGID_2_);">
				<rect x="74.48" y="3.66" class="st17" width="1.45" height="1.45"/>
			</g>
			<g style="clip-path:url(#SVGID_2_);">
				<rect x="74.48" y="3.66" class="st17" width="1.45" height="1.45"/>
			</g>
			<g style="clip-path:url(#SVGID_2_);">
				<rect x="74.48" y="3.66" class="st17" width="1.45" height="1.45"/>
			</g>
			<g style="clip-path:url(#SVGID_2_);">
				<path class="st17" d="M74.48,5.11V3.66h1.45l1.61-3.25c-0.53,2.84-1.2,5.65-2.01,8.43V5.11H74.48z"/>
			</g>
			<g style="clip-path:url(#SVGID_2_);">
				<path class="st17" d="M74.48,5.11V3.66h1.45l0.83-3.39c-0.53,2.81-1.19,5.6-1.99,8.36V5.11H74.48z"/>
			</g>
			<g style="clip-path:url(#SVGID_2_);">
				<path class="st17" d="M74.48,5.11V3.66h1.45l0.04-3.54c-0.52,2.79-1.18,5.55-1.97,8.28L74.48,5.11z"/>
			</g>
			<g style="clip-path:url(#SVGID_2_);">
				<path class="st17" d="M74.48,5.11V3.66h0.71v-3.69c-0.52,2.76-1.17,5.5-1.96,8.21L74.48,5.11z"/>
			</g>
		</g>
	</g>
	<g>
		<g>
			<defs>
				<path id="SVGID_47_" d="M70.28,6.83c2.31,0.4,4.44-1.94,4.89-2.41C74.49,8.67,70.28,6.83,70.28,6.83z"/>
			</defs>
			<use xlink:href="#SVGID_47_"  style="overflow:visible;fill:#6AC4EE;"/>
			<clipPath id="SVGID_4_">
				<use xlink:href="#SVGID_47_"  style="overflow:visible;"/>
			</clipPath>
			<g style="clip-path:url(#SVGID_4_);">
				<rect x="70.28" y="4.43" class="st17" width="4.89" height="4.25"/>
			</g>
			<g style="clip-path:url(#SVGID_4_);">
				<rect x="69.6" y="3.74" class="st17" width="6.25" height="5.61"/>
			</g>
			<g style="clip-path:url(#SVGID_4_);">
				<polygon class="st17" points="75.82,9.36 69.6,9.36 69.6,3.74 75.85,3.74 75.85,9.36 				"/>
			</g>
			<g style="clip-path:url(#SVGID_4_);">
				<polygon class="st17" points="75.31,9.36 69.6,9.36 69.6,3.74 75.85,3.74 75.85,9.36 				"/>
			</g>
			<g style="clip-path:url(#SVGID_4_);">
				<polygon class="st17" points="74.79,9.36 69.6,9.36 69.6,3.74 75.85,3.74 75.85,9.36 				"/>
			</g>
			<g style="clip-path:url(#SVGID_4_);">
				<polygon class="st17" points="74.28,9.36 69.6,9.36 69.6,3.74 75.85,3.74 75.85,9.36 				"/>
			</g>
			<g style="clip-path:url(#SVGID_4_);">
				<polygon class="st17" points="73.77,9.36 69.6,9.36 69.6,3.74 75.85,3.74 75.85,9.36 				"/>
			</g>
			<g style="clip-path:url(#SVGID_4_);">
				<polygon class="st17" points="73.26,9.36 69.6,9.36 69.6,3.74 75.85,3.74 75.85,9.36 				"/>
			</g>
			<g style="clip-path:url(#SVGID_4_);">
				<polygon class="st17" points="72.75,9.36 69.6,9.36 69.6,3.74 75.85,3.74 75.85,9.36 				"/>
			</g>
			<g style="clip-path:url(#SVGID_4_);">
				<polygon class="st17" points="72.24,9.36 69.6,9.36 69.6,3.74 75.85,3.74 75.85,9.36 				"/>
			</g>
			<g style="clip-path:url(#SVGID_4_);">
				<polygon class="st17" points="71.73,9.36 69.6,9.36 69.6,3.74 75.85,3.74 75.85,9.36 				"/>
			</g>
			<g style="clip-path:url(#SVGID_4_);">
				<polygon class="st17" points="71.22,9.36 69.6,9.36 69.6,3.74 75.85,3.74 75.85,9.36 				"/>
			</g>
			<g style="clip-path:url(#SVGID_4_);">
				<polygon class="st17" points="70.7,9.36 69.6,9.36 69.6,3.74 75.85,3.74 75.85,9.36 				"/>
			</g>
			<g style="clip-path:url(#SVGID_4_);">
				<polygon class="st17" points="70.19,9.36 69.6,9.36 69.6,3.74 75.85,3.74 75.85,9.36 				"/>
			</g>
			<g style="clip-path:url(#SVGID_4_);">
				<polygon class="st17" points="69.68,9.36 69.6,9.36 69.6,3.74 75.85,3.74 75.85,9.36 				"/>
			</g>
			<g style="clip-path:url(#SVGID_4_);">
				<rect x="69.6" y="3.74" class="st17" width="6.25" height="5.61"/>
			</g>
			<g style="clip-path:url(#SVGID_4_);">
				<rect x="69.6" y="3.74" class="st17" width="6.25" height="5.61"/>
			</g>
			<g style="clip-path:url(#SVGID_4_);">
				<rect x="69.6" y="3.74" class="st17" width="6.25" height="5.61"/>
			</g>
			<g style="clip-path:url(#SVGID_4_);">
				<rect x="69.6" y="3.74" class="st17" width="6.25" height="5.61"/>
			</g>
			<g style="clip-path:url(#SVGID_4_);">
				<rect x="69.6" y="3.74" class="st17" width="6.25" height="5.61"/>
			</g>
			<g style="clip-path:url(#SVGID_4_);">
				<rect x="69.6" y="3.74" class="st17" width="6.25" height="5.61"/>
			</g>
			<g style="clip-path:url(#SVGID_4_);">
				<rect x="69.6" y="3.74" class="st17" width="6.25" height="5.61"/>
			</g>
			<g style="clip-path:url(#SVGID_4_);">
				<rect x="69.6" y="3.74" class="st17" width="6.25" height="5.61"/>
			</g>
			<g style="clip-path:url(#SVGID_4_);">
				<rect x="69.6" y="3.74" class="st17" width="6.25" height="5.61"/>
			</g>
			<g style="clip-path:url(#SVGID_4_);">
				<rect x="69.6" y="3.74" class="st17" width="6.25" height="5.61"/>
			</g>
			<g style="clip-path:url(#SVGID_4_);">
				<rect x="69.6" y="3.74" class="st17" width="6.25" height="5.61"/>
			</g>
			<g style="clip-path:url(#SVGID_4_);">
				<rect x="69.6" y="3.74" class="st17" width="6.25" height="5.61"/>
			</g>
			<g style="clip-path:url(#SVGID_4_);">
				<rect x="69.6" y="3.74" class="st17" width="6.25" height="5.61"/>
			</g>
			<g style="clip-path:url(#SVGID_4_);">
				<rect x="69.6" y="3.74" class="st17" width="6.25" height="5.61"/>
			</g>
			<g style="clip-path:url(#SVGID_4_);">
				<rect x="69.6" y="3.74" class="st17" width="6.25" height="5.61"/>
			</g>
			<g style="clip-path:url(#SVGID_4_);">
				<rect x="69.6" y="3.74" class="st17" width="6.25" height="5.61"/>
			</g>
			<g style="clip-path:url(#SVGID_4_);">
				<rect x="69.6" y="3.74" class="st17" width="6.25" height="5.61"/>
			</g>
			<g style="clip-path:url(#SVGID_4_);">
				<rect x="69.6" y="3.74" class="st17" width="6.25" height="5.61"/>
			</g>
			<g style="clip-path:url(#SVGID_4_);">
				<rect x="69.6" y="3.74" class="st17" width="6.25" height="5.61"/>
			</g>
			<g style="clip-path:url(#SVGID_4_);">
				<rect x="69.6" y="3.74" class="st17" width="6.25" height="5.61"/>
			</g>
			<g style="clip-path:url(#SVGID_4_);">
				<rect x="69.6" y="3.74" class="st17" width="6.25" height="5.61"/>
			</g>
			<g style="clip-path:url(#SVGID_4_);">
				<rect x="69.6" y="3.74" class="st17" width="6.25" height="5.61"/>
			</g>
			<g style="clip-path:url(#SVGID_4_);">
				<rect x="69.6" y="3.74" class="st17" width="6.25" height="5.61"/>
			</g>
			<g style="clip-path:url(#SVGID_4_);">
				<rect x="69.6" y="3.74" class="st17" width="6.25" height="5.61"/>
			</g>
			<g style="clip-path:url(#SVGID_4_);">
				<rect x="69.6" y="3.74" class="st17" width="6.25" height="5.61"/>
			</g>
			<g style="clip-path:url(#SVGID_4_);">
				<rect x="69.6" y="3.74" class="st17" width="6.25" height="5.61"/>
			</g>
			<g style="clip-path:url(#SVGID_4_);">
				<rect x="69.6" y="3.74" class="st17" width="6.25" height="5.61"/>
			</g>
			<g style="clip-path:url(#SVGID_4_);">
				<rect x="69.6" y="3.74" class="st17" width="6.25" height="5.61"/>
			</g>
			<g style="clip-path:url(#SVGID_4_);">
				<rect x="69.6" y="3.74" class="st17" width="6.25" height="5.61"/>
			</g>
			<g style="clip-path:url(#SVGID_4_);">
				<rect x="69.6" y="3.74" class="st17" width="6.25" height="5.61"/>
			</g>
			<g style="clip-path:url(#SVGID_4_);">
				<rect x="69.6" y="3.74" class="st17" width="6.25" height="5.61"/>
			</g>
			<g style="clip-path:url(#SVGID_4_);">
				<rect x="69.6" y="3.74" class="st17" width="6.25" height="5.61"/>
			</g>
			<g style="clip-path:url(#SVGID_4_);">
				<rect x="69.6" y="3.74" class="st17" width="6.25" height="5.61"/>
			</g>
			<g style="clip-path:url(#SVGID_4_);">
				<rect x="69.6" y="3.74" class="st17" width="6.25" height="5.61"/>
			</g>
			<g style="clip-path:url(#SVGID_4_);">
				<rect x="69.6" y="3.74" class="st17" width="6.25" height="5.61"/>
			</g>
			<g style="clip-path:url(#SVGID_4_);">
				<rect x="69.6" y="3.74" class="st17" width="6.25" height="5.61"/>
			</g>
			<g style="clip-path:url(#SVGID_4_);">
				<rect x="69.6" y="3.74" class="st17" width="6.25" height="5.61"/>
			</g>
			<g style="clip-path:url(#SVGID_4_);">
				<rect x="69.6" y="3.74" class="st17" width="6.25" height="5.61"/>
			</g>
			<g style="clip-path:url(#SVGID_4_);">
				<rect x="69.6" y="3.74" class="st17" width="6.25" height="5.61"/>
			</g>
			<g style="clip-path:url(#SVGID_4_);">
				<rect x="69.6" y="3.74" class="st17" width="6.25" height="5.61"/>
			</g>
			<g style="clip-path:url(#SVGID_4_);">
				<rect x="69.6" y="3.74" class="st17" width="6.25" height="5.61"/>
			</g>
			<g style="clip-path:url(#SVGID_4_);">
				<rect x="69.6" y="3.74" class="st17" width="6.25" height="5.61"/>
			</g>
			<g style="clip-path:url(#SVGID_4_);">
				<path class="st17" d="M69.6,9.36V3.74h6.25v5.55h1.22c-0.41,1.41-0.85,2.82-1.33,4.22V9.36H69.6z"/>
			</g>
			<g style="clip-path:url(#SVGID_4_);">
				<path class="st17" d="M69.6,9.36V3.74h6.25v5.33h0.46c-0.41,1.4-0.85,2.8-1.32,4.18V9.36H69.6z"/>
			</g>
			<g style="clip-path:url(#SVGID_4_);">
				<path class="st17" d="M69.6,9.36V3.74h6.25l1.7-3.33c-0.53,2.84-1.2,5.65-2.01,8.43c-0.4,1.39-0.84,2.77-1.31,4.14V9.36H69.6z"
					/>
			</g>
			<g style="clip-path:url(#SVGID_4_);">
				<path class="st17" d="M69.6,9.36V3.74h6.25l0.91-3.47c-0.53,2.81-1.19,5.6-1.99,8.36c-0.4,1.38-0.83,2.75-1.3,4.11V9.36H69.6z"
					/>
			</g>
			<g style="clip-path:url(#SVGID_4_);">
				<path class="st17" d="M69.6,9.36V3.74h6.25l0.13-3.62c-0.52,2.79-1.18,5.55-1.97,8.28c-0.4,1.37-0.82,2.72-1.29,4.07V9.36H69.6z
					"/>
			</g>
			<g style="clip-path:url(#SVGID_4_);">
				<path class="st17" d="M69.6,9.36V3.74h5.6v-3.77c-0.52,2.76-1.17,5.5-1.96,8.21c-0.39,1.35-0.82,2.7-1.27,4.03V9.36H69.6z"/>
			</g>
			<g style="clip-path:url(#SVGID_4_);">
				<path class="st17" d="M69.6,9.36V3.74h4.81v-3.92c-0.52,2.74-1.16,5.45-1.94,8.13c-0.39,1.34-0.81,2.67-1.26,4v-2.6H69.6z"/>
			</g>
			<g style="clip-path:url(#SVGID_4_);">
				<path class="st17" d="M69.6,9.36V3.74h4.03v-4.07c-0.51,2.71-1.15,5.4-1.92,8.06c-0.38,1.33-0.8,2.65-1.25,3.96V9.36H69.6z"/>
			</g>
			<g style="clip-path:url(#SVGID_4_);">
				<path class="st17" d="M69.6,9.36V3.74h3.25v-4.22c-0.51,2.69-1.14,5.35-1.9,7.98c-0.38,1.32-0.79,2.62-1.24,3.92V9.36H69.6z"/>
			</g>
			<g style="clip-path:url(#SVGID_4_);">
				<path class="st17" d="M69.6,9.36V3.74h2.46v-4.36c-0.5,2.66-1.13,5.3-1.88,7.91c-0.38,1.3-0.79,2.6-1.23,3.89L69.6,9.36z"/>
			</g>
			<g style="clip-path:url(#SVGID_4_);">
				<path class="st17" d="M69.6,9.36V3.74h1.68v-4.51c-0.5,2.64-1.12,5.25-1.87,7.83h0.19V9.36z"/>
			</g>
			<g style="clip-path:url(#SVGID_4_);">
				<path class="st17" d="M69.6,9.36V3.74h0.89v-4.66c-0.49,2.61-1.11,5.2-1.85,7.76h0.96V9.36z"/>
			</g>
		</g>
	</g>
</g>
<g>
	<path class="st0" d="M87.78,43.37h3.74v1.58h-1.08v5.33h-1.59v-5.33h-1.07V43.37z"/>
	<path class="st0" d="M99.8,43.37h1.83c0.74,0,1.32,0.19,1.75,0.57c0.43,0.38,0.64,0.89,0.64,1.55c0,0.33-0.08,0.66-0.24,0.97
		c-0.16,0.31-0.4,0.55-0.71,0.71l1.25,3.11h-1.65l-1.27-3.14h-0.03v3.14H99.8V43.37z M101.37,44.7v1.64
		c0.69-0.01,1.04-0.26,1.04-0.73c0-0.32-0.08-0.55-0.24-0.69C102.01,44.79,101.74,44.72,101.37,44.7z"/>
	<path class="st0" d="M117.34,50.27h-1.63l-0.26-1.15h-1.66l-0.27,1.15h-1.6l1.83-6.9h1.76L117.34,50.27z M115.14,47.88
		c-0.23-1.03-0.41-2-0.53-2.93h-0.02c-0.13,0.96-0.3,1.93-0.52,2.93H115.14z"/>
	<path class="st0" d="M125.44,43.37h1.46c1.01,0,1.78,0.29,2.31,0.87c0.53,0.58,0.79,1.42,0.79,2.53c0,0.84-0.13,1.52-0.39,2.04
		c-0.26,0.52-0.62,0.89-1.09,1.12c-0.47,0.23-0.98,0.35-1.55,0.35h-1.54V43.37z M127,44.84v3.96c0.48-0.04,0.81-0.21,1.01-0.5
		c0.2-0.29,0.29-0.78,0.29-1.46c0-0.4-0.03-0.74-0.1-1.02c-0.07-0.28-0.17-0.49-0.31-0.64c-0.14-0.15-0.27-0.24-0.4-0.28
		C127.37,44.87,127.2,44.85,127,44.84z"/>
	<path class="st0" d="M138.42,43.37h1.57v6.9h-1.57V43.37z"/>
	<path class="st0" d="M148.83,43.37h1.58l1.99,3.98l-0.06-0.74v-3.24h1.57v6.9h-1.61l-1.95-3.92l0.04,0.86v3.06h-1.57V43.37z"/>
	<path class="st0" d="M167.45,46.41v1.16c0,0.9-0.22,1.6-0.65,2.11c-0.43,0.51-1.03,0.77-1.78,0.77c-0.84,0-1.49-0.32-1.95-0.95
		c-0.46-0.63-0.69-1.54-0.69-2.71c0-1.18,0.23-2.08,0.69-2.69c0.46-0.61,1.13-0.92,2-0.92c0.99,0,1.7,0.53,2.14,1.58l-1.49,0.62
		c-0.12-0.22-0.24-0.38-0.35-0.48c-0.11-0.1-0.25-0.15-0.44-0.15c-0.32,0-0.54,0.17-0.67,0.5c-0.13,0.33-0.2,0.87-0.2,1.62
		c0,0.69,0.08,1.2,0.22,1.53c0.15,0.33,0.39,0.49,0.72,0.49c0.52,0,0.79-0.37,0.81-1.12h-0.73v-1.34H167.45z"/>
	<path class="st0" d="M185.81,43.37h3.17v1.47h-1.6v1.27h1.39v1.43h-1.39v1.26h1.61v1.47h-3.18V43.37z"/>
	<path class="st0" d="M197.04,43.37h1.74c0.45,1.08,0.69,1.7,0.73,1.86h0.02c0.01-0.05,0.07-0.22,0.2-0.53l0.53-1.33h1.74l-1.6,3.29
		l1.74,3.61h-1.74c-0.55-1.3-0.84-2-0.87-2.1h-0.02c-0.06,0.22-0.14,0.44-0.23,0.66l-0.64,1.44h-1.71l1.7-3.59L197.04,43.37z"/>
	<path class="st0" d="M210.28,43.37h1.94c0.68,0,1.23,0.19,1.64,0.58s0.62,0.9,0.62,1.54c0,0.67-0.21,1.2-0.63,1.58
		s-1,0.57-1.74,0.57h-0.27v2.63h-1.57V43.37z M211.85,44.69v1.63c0.35-0.01,0.61-0.07,0.78-0.2c0.17-0.13,0.25-0.33,0.25-0.61
		c0-0.3-0.08-0.51-0.24-0.63S212.21,44.7,211.85,44.69z"/>
	<path class="st0" d="M222.97,43.37h3.17v1.47h-1.6v1.27h1.39v1.43h-1.39v1.26h1.61v1.47h-3.18V43.37z"/>
	<path class="st0" d="M234.7,43.37h1.83c0.74,0,1.32,0.19,1.75,0.57c0.43,0.38,0.64,0.89,0.64,1.55c0,0.33-0.08,0.66-0.24,0.97
		c-0.16,0.31-0.4,0.55-0.71,0.71l1.25,3.11h-1.65l-1.27-3.14h-0.03v3.14h-1.57V43.37z M236.27,44.7v1.64
		c0.69-0.01,1.04-0.26,1.04-0.73c0-0.32-0.08-0.55-0.24-0.69C236.9,44.79,236.64,44.72,236.27,44.7z"/>
	<path class="st0" d="M246.89,43.37h3.74v1.58h-1.08v5.33h-1.59v-5.33h-1.07V43.37z"/>
</g>
<g>
	<path class="st0" d="M102.79,18.4H92.75v4.07h7.96v6.2h-7.96v10.45h-6.2V12.21h16.24V18.4z"/>
	<path class="st0" d="M117.32,12.17c1.85,0,3.6,0.35,5.24,1.06c1.63,0.71,3.06,1.67,4.28,2.88c1.22,1.21,2.18,2.63,2.89,4.27
		c0.71,1.64,1.06,3.39,1.06,5.24s-0.35,3.6-1.06,5.24s-1.67,3.06-2.89,4.27c-1.22,1.21-2.65,2.17-4.28,2.88
		c-1.64,0.71-3.38,1.06-5.24,1.06s-3.6-0.35-5.24-1.06s-3.06-1.67-4.26-2.88s-2.17-2.63-2.87-4.27s-1.06-3.38-1.06-5.24
		s0.35-3.61,1.06-5.24c0.71-1.64,1.67-3.06,2.87-4.27s2.63-2.17,4.26-2.88C113.72,12.53,115.47,12.17,117.32,12.17z M117.34,32.88
		c1,0,1.94-0.19,2.82-0.57c0.88-0.38,1.65-0.9,2.31-1.56c0.66-0.66,1.18-1.43,1.56-2.31s0.57-1.82,0.57-2.82s-0.19-1.94-0.57-2.82
		s-0.9-1.65-1.56-2.31c-0.66-0.66-1.43-1.18-2.31-1.56c-0.88-0.38-1.82-0.57-2.82-0.57c-1,0-1.94,0.19-2.82,0.57
		s-1.65,0.9-2.31,1.56c-0.66,0.66-1.18,1.43-1.56,2.31s-0.57,1.82-0.57,2.82s0.19,1.94,0.57,2.82s0.9,1.65,1.56,2.31
		c0.66,0.66,1.43,1.18,2.31,1.56C115.4,32.69,116.34,32.88,117.34,32.88z"/>
	<path class="st0" d="M141.17,32.15c-0.32,0.05-0.64,0.09-0.95,0.11c-0.32,0.02-0.65,0.05-0.99,0.07v6.78h-6.2v-26.8h6.2
		c1.54,0.02,2.98,0.3,4.33,0.84c1.34,0.54,2.52,1.26,3.54,2.16c1.01,0.9,1.81,1.95,2.38,3.15s0.86,2.48,0.86,3.84
		c0,1.44-0.31,2.78-0.92,4.01c-0.61,1.23-1.47,2.3-2.57,3.2l5.94,9.59h-7.3L141.17,32.15z M139.23,26.1
		c0.66-0.02,1.29-0.14,1.89-0.35c0.6-0.21,1.12-0.48,1.58-0.83c0.45-0.34,0.81-0.74,1.06-1.19c0.26-0.45,0.38-0.93,0.38-1.45
		c0-0.51-0.13-0.99-0.38-1.43c-0.26-0.44-0.61-0.83-1.06-1.17c-0.45-0.34-0.98-0.62-1.58-0.82c-0.6-0.21-1.23-0.32-1.89-0.35V26.1z"
		/>
	<path class="st0" d="M172.73,18.4h-11.07v4.07h8.98v6.2h-8.98v4.25h11.07v6.2h-17.27V12.24l17.27-0.04V18.4z"/>
	<path class="st0" d="M198.03,11.99l-7.92,13.12l8.62,14h-7.29l-4.91-7.99l-4.84,7.99h-7.22l8.4-13.97l-8.07-13.16h7.26l4.44,7.19
		l4.29-7.19H198.03z"/>
	<path class="st17" d="M222.63,12.1v6.2h-5.17v20.82h-6.2V18.29h-5.13v-6.2H222.63z"/>
	<path class="st17" d="M231.46,39.11h-6.2V12.17h6.2V39.11z"/>
	<path class="st17" d="M253.42,11.77v17.19c0,1.42-0.27,2.74-0.83,3.98c-0.55,1.23-1.28,2.31-2.2,3.23
		c-0.92,0.92-1.99,1.64-3.23,2.16c-1.23,0.53-2.55,0.79-3.94,0.79h-0.11c-1.39-0.02-2.7-0.3-3.92-0.83
		c-1.22-0.53-2.32-1.28-3.3-2.25c-0.95-0.98-1.68-2.08-2.18-3.32c-0.5-1.23-0.74-2.55-0.71-3.94l6.2,0.07c0,1.1,0.38,2.05,1.14,2.86
		c0.81,0.81,1.76,1.21,2.86,1.21c0.54,0,1.05-0.1,1.54-0.29s0.92-0.48,1.28-0.84c0.37-0.37,0.66-0.79,0.88-1.28
		c0.22-0.49,0.33-1.01,0.33-1.58V11.77H253.42z"/>
</g>
</svg>
