<?xml version="1.0" encoding="utf-8"?>
<!-- Generator: Adobe Illustrator 25.2.0, SVG Export Plug-In . SVG Version: 6.00 Build 0)  -->
<svg version="1.1" id="Layer_1" xmlns="http://www.w3.org/2000/svg" xmlns:xlink="http://www.w3.org/1999/xlink" x="0px" y="0px"
	 viewBox="0 0 1224.8 287" style="enable-background:new 0 0 1224.8 287;" xml:space="preserve">
<style type="text/css">
	.st0{fill:#FFFFFF;}
	.st1{fill:#056DB3;}
	.st2{fill:#275688;}
</style>
<image style="overflow:visible;enable-background:new    ;" width="1214" height="287" xlink:href="78C8D023.png"  transform="matrix(1 0 0 1 -34.3333 -694.1177)">
</image>
<path class="st0" d="M609,250.6c-27.9-0.3-50.5-17-56.9-42.2c-8.4-33.3,13.6-65.5,47.7-69.7c26.5-3.3,49.4,7.4,61.1,28.6
	c18.9,34.2-2.8,77.2-41.5,82.2C615.9,249.8,612.5,250.2,609,250.6z M639.2,194c0-16.8-13.3-29.7-30.4-29.7c-17,0-30.1,13.2-30,30.1
	c0.1,16.5,13.3,29.4,30.2,29.4C626,223.8,639.2,210.8,639.2,194z"/>
<path class="st0" d="M772.5,247.3c-10.9,0-20.9,0.1-30.8-0.1c-1.3,0-3-1.8-3.9-3.2c-7.9-12.5-15.7-25.1-23.5-37.7
	c-0.8-1.3-1.8-2.6-3.6-5.2c0,16.2,0,30.9,0,45.9c-9.3,0-18.1,0-27.4,0c-0.1-1.4-0.3-3-0.4-4.6c-0.1-31.8-0.2-63.6-0.5-95.5
	c0-4.7,1.1-6.4,6.1-6.2c14.6,0.6,29.4-0.5,43.8,1.3c26.4,3.3,39.1,32.9,23.3,53c-2.9,3.7-6.9,6.6-11,10.3
	C753.6,218.8,762.8,232.7,772.5,247.3z M710.6,187.7c5.2,0,9.7,0.4,14.1-0.1c5.7-0.6,9.6-5.4,9.6-10.9c-0.1-5.5-3.6-9.8-9.4-10.4
	c-4.6-0.5-9.2-0.1-14-0.1c-0.1,1.7-0.3,3-0.3,4.3C710.6,176,710.6,181.4,710.6,187.7z"/>
<path class="st0" d="M863.3,140.8c10.3,0,19.7-0.1,29.2,0.1c1.5,0,3.5,1.6,4.4,3.1c4.9,7.9,9.5,16,14.7,24.9
	c1.8-2.9,3.3-5.2,4.7-7.5c3.5-5.9,6.8-11.8,10.4-17.6c0.8-1.2,2.3-2.8,3.5-2.8c9.7-0.2,19.5-0.1,30.1-0.1c-3,4.9-5.6,9.1-8.3,13.3
	c-7.1,11.3-14.1,22.6-21.4,33.7c-2,3.1-1.9,5.3,0.1,8.4c10.5,16.6,20.7,33.4,31.5,51c-10.8,0-20.8,0.1-30.8-0.1
	c-1.2,0-2.6-1.8-3.3-3.1c-4.6-7.7-9-15.6-13.4-23.4c-0.8-1.4-1.7-2.7-3.1-4.7c-5.3,9.2-10.3,17.5-14.9,26.1
	c-2.1,4.1-4.7,5.6-9.3,5.4c-8.4-0.4-16.8-0.1-26.1-0.1c1.4-2.4,2.4-4,3.4-5.7c9.2-15,18.3-30.1,27.8-45c2.2-3.5,2-5.9-0.2-9.3
	c-9.1-14.1-18-28.4-26.9-42.6C864.8,143.7,864.3,142.6,863.3,140.8z"/>
<path class="st0" d="M852.5,247.1c-23.4,0-46,0-69,0c0-35.4,0-70.6,0-106.1c22.8,0,45.6,0,68.7,0c0,8.3,0,16.5,0,25.4
	c-6.4,0-12.6,0-18.9,0c-6.2,0-12.3,0.1-18.5,0c-2.9,0-4.4,0.8-4.2,4c0.2,3.6,0,7.3,0,11.8c7.7,0,15,0,22.3,0
	c11.9,0,11.9,0,11.9,11.8c0,3.5,0,7,0,11.1c-11.4,0-22.4,0-33.8,0c0,5.6,0,10.5,0,16.1c6.2,0,12.2,0,18.1,0c6.5,0,13-0.2,19.5,0.2
	c1.4,0.1,3.7,1.9,3.8,3C852.6,231.8,852.5,239.3,852.5,247.1z"/>
<path class="st0" d="M474.7,141.1c23.1,0,45.8,0,69.1,0c0,7.9,0.2,15.5-0.2,23.1c0,1-2.7,2.6-4.1,2.6c-10.6,0.2-21.3,0.3-32,0.1
	c-4.2-0.1-6.1,1-5.7,5.6c0.4,3.9,0.1,7.9,0.1,12.3c11.5,0,22.4,0,34,0c0,7.3,0.1,14-0.2,20.8c0,0.9-2.6,2.2-4,2.3
	c-7.8,0.2-15.6,0.1-23.5,0.1c-2,0-3.9,0.2-6.3,0.4c0,13,0,25.6,0,38.6c-9.3,0-18.2,0-27.3,0C474.7,211.7,474.7,176.7,474.7,141.1z"
	/>
<g>
	<path class="st1" d="M1063.4,207.4c0,11.7-0.2,23.3,0.1,35c0.1,4.2-1.5,5.1-5.2,4.9c-5.6-0.3-11.3-0.3-17,0c-4.1,0.2-5.4-1-5.4-5.2
		c0.2-23.1-0.1-46.3,0.2-69.4c0.1-5-1.6-6.4-6.3-6.1c-5.1,0.3-10.3,0-15.5,0.1c-3.1,0.1-4.6-0.8-4.4-4.2c0.2-6,0.1-12,0-18
		c-0.1-2.6,1-3.5,3.5-3.5c24.1,0.1,48.3,0.1,72.4,0c2.6,0,3.5,1,3.5,3.5c-0.1,6.2-0.1,12.3,0,18.5c0.1,3-1.4,3.7-4,3.6
		c-5.2-0.1-10.3,0.2-15.5-0.1c-4.8-0.3-6.8,1.2-6.6,6.4C1063.6,184.4,1063.4,195.9,1063.4,207.4z"/>
	<path class="st1" d="M1142.7,242c4.8-7.8,9.2-15,13.1-21.2c5.6,0.8,10.2,2,14.8,2c9.1-0.1,16.2-7.8,16.2-16.9
		c0-19.7-0.1-39.3-0.1-59c0-1.8,0-3.6,0-5.7c9.3,0,18,0,27.1,0c0.1,1.9,0.3,3.5,0.3,5.1c0,20-0.4,40,0.2,60
		c0.6,18.6-13.3,37.6-35.7,41.8C1166.2,250.5,1154.3,249.1,1142.7,242z"/>
	<path class="st1" d="M1101.8,193.8c0-15.7,0.2-31.3-0.1-47c-0.1-5,1.5-6.3,6.2-6c5.6,0.4,11.3,0.2,17,0c3.2-0.1,4.4,0.8,4.4,4.2
		c-0.1,32.7-0.1,65.3,0,98c0,3.4-1.2,4.3-4.4,4.2c-6.2-0.2-12.3-0.3-18.5,0c-4,0.2-4.7-1.4-4.7-5
		C1101.9,226.1,1101.8,210,1101.8,193.8z"/>
</g>
<g>
	<path class="st2" d="M253.9,181.8c-0.9-5.3-1.7-10.6-2.6-15.9c-0.4-2.5-1.2-4.9-1.3-7.3c-0.1-1.5,0.4-3.7,1.4-4.2
		c1-0.5,3.2,0.1,4.3,1c11.4,9.2,22.7,18.5,34.1,27.8c4.6,3.8,9.3,7.6,13.9,11.4c3.9,3.2,5.8,6.8,4.4,12.2
		c-4.6,17.4-0.5,34.3,3.3,51.2c1.1,4.8,2,9.7,2.5,14.7c0.5,4.9-2.3,7.8-6.9,8.9c-2.2,0.5-4.6,0.9-6.9,0.9c-12.8,0-25.6,0-38.5-0.1
		c-2.8,0-6.6,0.3-6.6-3.4c0-2.7,1.9-5.8,3.8-7.8c1.4-1.4,4.2-1.5,6.5-2.1c3.8-0.9,6.4-3.1,5.1-7c-4.9-15.3-9.1-31-18.3-44.6
		c-5.6-8.2-13-10.3-22.5-8.8c-18.2,2.7-36.6,4.7-54.9,6.9c-9,1.1-17.2,0.1-21.3-10.2c-0.2,2.4-0.3,4.8-0.5,7.1
		c-1.2,13.3-5.9,25.2-13.8,35.9c-6.7,9.1-13.4,18.2-20,27.5c-2.9,4-6.4,6-11.4,5.9c-7.7-0.2-15.3,0-23-0.2c-1.5,0-2.9-1.4-4.4-2.2
		c1.2-1.1,2.4-2.9,3.8-3.1c5.2-0.9,8-4.3,10.2-8.7c7.5-14.7,7.5-30.1,3.7-45.8c-2.9-12.1-5.8-24.3-8.9-36.3c-0.8-3.1-2.4-6.2-4.2-9
		c-8.3-12.9-16.7-25.7-25-38.5c-6.9-10.7-16.5-18-28.5-22.5c-4.6-1.7-8.9-4.5-13.3-6.9c0.2-0.7,0.4-1.3,0.5-2
		c4.9-0.6,9.7-1.3,14.6-1.9c0-0.4,0.1-0.9,0.1-1.3c-3.4-1-7-1.5-10.1-3c-3.1-1.6-6.6-3.6-8.4-6.4c-3.8-5.9-1.5-10.9,5.2-13.1
		c17.6-5.6,35.3-7.9,53.4-2.2c8.4,2.6,16.8,1.5,24.8-2.2c7.9-3.7,9.9-2.6,10.4,5.8c0.4,5.5,2.7,9.8,7.4,12.2
		c43.2,21.4,80,52.7,120.5,78.2c5.3,3.3,10.5,6.7,15.8,10.1C253.1,182.2,253.5,182,253.9,181.8z"/>
	<path class="st2" d="M387.2,33.1c8.2,2.3,16.3,4.6,24.4,6.6c4.3,1.1,8.8,1.5,13.2,2.1c4.1,0.6,6,2.6,4.9,6.8
		c-3,11.2-8.9,20.3-20.6,23.7c-28.4,8.2-44.3,27.9-51.9,55.6c-3.2,11.6-5.9,23.3-10.2,34.4c-3.4,8.6-8.5,16.6-13.7,24.2
		c-4.6,6.7-6.7,6.6-12.9,1.4c-16.4-13.9-32.7-27.9-49-41.9c-13.5-11.6-27.1-23.2-40.7-34.7c-1.2-1-3.1-1.2-4.7-1.7
		c-0.4,1.7-1.3,3.4-1,5c1.7,9.5,3.6,18.9,5.4,28.4c0.3,1.5,0.4,3.1,0.7,5.7c-2.4-1.3-3.8-2-5.1-2.9c-12.6-8.7-25.1-17.6-37.7-26.2
		c-3.7-2.5-4.4-4.7-1.3-8.3c10-11.6,19.2-23.9,29.7-35C227.4,65,241,61,256.4,64.8c8.3,2,16.2,1.2,23.8-2.4
		c17.5-8.1,35-16.3,52.5-24.4c4.7-2.2,7.5-5.6,8.8-10.7c3-12.4,8.6-16,21.1-17.1c12.2-1.1,24.3-3.6,36.4-5.4
		c1.6-0.2,3.3,0.3,4.9,0.5c-0.7,1.7-0.8,4.1-2.1,4.9c-2.5,1.8-5.5,3.1-8.5,3.9c-7.9,2.1-15.9,3.7-23.8,5.5c-1,0.2-2,0.4-2.9,0.8
		c-3.2,1.4-7.6,2.3-6.5,6.8c1,4.4,5.3,2.2,8.2,2.1c9.4-0.5,17.9-3.5,25.1-9.8c0.9-0.8,2.5-0.8,3.8-1.2c-0.1,1.4,0.4,3.2-0.3,4.1
		C394.2,25.9,391,29,387.2,33.1z"/>
	<path class="st2" d="M224.1,281.1c-5.3,0-10.6,0.2-15.9-0.1c-1.5-0.1-2.9-1.7-4.4-2.6c1.1-1.1,2.1-2.3,3.2-3.3
		c0.6-0.5,1.5-0.8,2.2-1.1c13.1-4.4,17.2-13.3,13.5-27.7c-1.8-7-4.9-13.8-7.3-20.7c-2.4-6.9-1.9-8.1,5.1-9.6
		c4.4-0.9,8.8-1.8,13.3-1.9c12.6-0.4,22.1,8.7,21,21.1c-1.1,12.5-3.2,24.9-5.4,37.3c-1,6-4.4,8.3-10.5,8.8c-2.5,0.2-5,0.1-7.5,0.1
		c-2.5,0-5,0-7.5,0C224.1,281.4,224.1,281.3,224.1,281.1z"/>
	<path class="st2" d="M154.4,277.6c2.8-1.5,5.7-3,8.5-4.5c5.5-3,6.3-5.2,3.6-10.9c-2.6-5.4-5.2-10.8-8.1-16
		c-3.9-6.9-3.7-13.9-1.3-21.2c1.1-3.2,3-4.5,6.4-4.2c5.9,0.6,12,0.7,17.8,1.9c2.8,0.6,6.4,2.7,7.6,5.2c6.4,13.1,10.3,27,10.9,41.6
		c0.4,9.2-2.4,12.2-11.5,12.2c-9.3,0-18.6-0.1-27.9-0.5c-2-0.1-4-1.2-6-1.9C154.4,278.8,154.4,278.2,154.4,277.6z"/>
	<path class="st2" d="M383.6,196.5c-1.4,2.5-2.4,5.2-4.1,7.3c-8.5,10.4-17.3,20.7-25.9,31.1c-2.4,2.9-4.2,3.2-6.7,0.1
		c-11.5-13.7-11.6-13.6-0.3-27.4c0.6-0.8,1.3-1.5,1.9-2.3c3.8-4.7,3.7-6-1-9.7c-7.2-5.6-7.2-5.7-3.2-14.1c2.2-4.7,4.5-9.3,6.7-14
		c1.4-3.1,3.4-3.6,5.7-1.3c8.1,8.1,16.2,16.2,24.1,24.5C382.2,192.2,382.6,194.3,383.6,196.5z"/>
</g>
<path class="st0" d="M811.2,105.3c0-14.4,0-28.1,0-42.8c6.1,0.4,12.1,0,17.8,1.2c10.8,2.1,15.9,9.9,15.5,22.1
	c-0.4,10.3-6.5,17.1-17,18.9c-1.8,0.3-3.6,0.6-5.4,0.7C818.7,105.4,815.2,105.3,811.2,105.3z M818.6,83.8c0,3.3,0.1,6.7,0,10
	c-0.1,2.7,1.2,3.4,3.6,3.5c8.4,0.5,14.4-4.7,14.7-12.7c0.3-8.3-5.6-14-14-14.1c-3.3,0-4.5,1.1-4.3,4.4
	C818.8,77.8,818.6,80.8,818.6,83.8z"/>
<path class="st0" d="M711,62.9c8.6,8.2,16.4,15.7,24.2,23.2c0.4-0.2,0.9-0.3,1.3-0.5c0-7.4,0-14.7,0-22.4c3,0,5.2,0,7.8,0
	c0,13.9,0,27.8,0,42.6c-8.4-8.2-16.4-16-25.4-24.7c0,8.7,0,16.2,0,23.9c-2.9,0-5.2,0-7.8,0C711,91.3,711,77.7,711,62.9z"/>
<path class="st0" d="M851.3,63.2c5.3,0,10.3-0.4,15.1,0.1c6.3,0.7,10.3,4.5,11.5,10.7c1.1,5.6-1,10.1-5.7,13.3
	c-0.4,0.3-0.8,0.6-1.7,1.2c3.8,5.5,7.5,10.8,11.3,16.2c-6,1.6-10.1,0.4-12.9-5.2c-2.3-4.7-5.6-8.9-8.5-13.4
	c-0.4,0.1-0.9,0.1-1.3,0.2c0,6.1,0,12.2,0,18.6c-3.1,0-5.4,0-7.9,0C851.3,91.1,851.3,77.4,851.3,63.2z M858,81.9
	c4.7,0.2,9,1.7,11.3-2.5c0.9-1.6,0.5-5.7-0.7-6.5c-2.4-1.5-5.8-1.6-8.7-2.2C859.2,74.3,858.6,77.8,858,81.9z"/>
<path class="st0" d="M514.6,63.2c5.3,0,10.2-0.4,15.1,0.1c6.2,0.7,10.3,4.5,11.6,10.7c1.1,5.6-1.1,10.1-5.7,13.3
	c-0.4,0.3-0.8,0.6-1.7,1.2c3.8,5.5,7.4,10.7,11.2,16.2c-6,1.6-10.1,0.4-12.9-5.2c-2.3-4.7-5.6-8.9-9.8-13.2c0,6.1,0,12.2,0,18.6
	c-3.1,0-5.4,0-7.9,0C514.6,91.1,514.6,77.4,514.6,63.2z M521.9,81.9c4.3,0.4,8.5,1.5,10.7-2.7c0.8-1.5,0.6-4.5-0.4-5.9
	c-2.6-3.5-6.4-3.4-10.3-2.1C521.9,74.8,521.9,78.1,521.9,81.9z"/>
<path class="st0" d="M895.9,97.7c5.6,0,10.8,0,16.3,0c0,2.7,0,4.8,0,7.6c-7.4,0-14.8,0.1-22.2-0.1c-0.8,0-2.3-1.9-2.3-2.9
	c-0.2-12.2-0.2-24.3,0-36.5c0-1,1.9-2.8,2.9-2.8c7.1-0.2,14.2-0.1,21.6-0.1c0,2.6,0,4.7,0,7.6c-2.9,0-5.8,0-8.7,0
	c-8.4,0-8.4,0-7.7,9.2c4.4,0,9,0,13.3,0c1.7,7.3,1.4,7.8-4.9,7.8c-2.6,0-5.3,0-8.3,0C895.9,90.9,895.9,93.8,895.9,97.7z"/>
<path class="st0" d="M574.5,97.6c0,2.9,0,5,0,7.6c-7.5,0-14.8,0.1-22.1-0.1c-0.9,0-2.5-2.1-2.5-3.2c-0.2-11.8-0.1-23.6-0.1-35.5
	c0-2.4,0.7-3.7,3.4-3.6c7,0.1,13.9,0,21.2,0c0,2.6,0,4.8,0,7.6c-5.4,0-10.6,0-16.2,0c0,3.3,0,6,0,9.4c3.6,0,7.3,0.1,10.9,0
	c2.9-0.1,3.7,1.6,3.1,3.7c-0.4,1.5-1.8,3.6-3.1,3.7c-3.5,0.5-7.2,0.2-10.6,0.2c-1.8,10-1.6,10.2,7.3,10.2
	C568.5,97.7,571.3,97.6,574.5,97.6z"/>
<path class="st0" d="M486.9,91.3c0,4.9,0,9.1,0,13.7c-2.7,0-4.9,0-8,0c0-2.8,0-5.6,0-8.3c0-9,0-18,0-26.9c0-6.9,0-6.9,6.6-6.8
	c3.3,0,6.7-0.2,9.9,0.4c8.3,1.4,13.2,7.2,12.9,14.5c-0.4,7.5-6.2,12.9-14.6,13.5C491.6,91.4,489.6,91.3,486.9,91.3z M491,83.6
	c6,0,9.3-2.5,9.3-6.6c0-4.1-3.4-6.2-8.9-6.6c-5.6-0.4-4.7,3.3-4.6,6.5C486.9,80,485.3,84.6,491,83.6z"/>
<path class="st0" d="M806,104.8c-4.7,0.7-8.6,1.6-10.2-3.8c-0.2-0.8-1.7-1.6-2.7-1.6c-4.5-0.2-9-0.2-13.4,0c-1,0-2.6,0.8-2.8,1.5
	c-1.5,5.5-5.5,4.6-10.3,4c6.5-14.1,12.9-27.9,19.7-42.6C793.1,77,799.5,90.7,806,104.8z M792,92.3c-1.9-4.2-3.6-7.7-5.7-12.4
	c-2.2,4.8-3.7,8.3-5.6,12.4C784.8,92.3,787.9,92.3,792,92.3z"/>
<path class="st0" d="M580.4,98c2.2-1.5,4-2.7,5.8-3.9c0,0.4-0.1,0.8-0.1,1.2c3.7,0.8,7.3,1.9,11,2.2c1.3,0.1,3.5-1.7,3.9-3
	c0.4-1.3-0.6-3.7-1.8-4.6c-2.7-2.1-5.8-3.8-8.9-5.5c-6.1-3.4-8.7-7.3-7.9-12c1-5.7,4.7-9.1,11.2-10.4c5.7-1.1,10.6,1.2,13.9,6.9
	c-1.5,1.1-3,2.3-4.7,3.6c-1.5-0.8-2.8-1.8-4.3-2.4c-3.2-1.3-6.4-0.7-7.5,2.5c-0.5,1.3,1.6,4.2,3.3,5.5c2.7,2.1,6.2,3.2,9.1,5.1
	c5,3.2,7,7.9,5.8,12.7c-1.4,5.5-5.2,8.9-11.3,9.6C591,106.3,584.8,105.2,580.4,98z"/>
<path class="st0" d="M918.5,97.9c1.8-1.3,3.7-2.6,5.6-3.9c0,0.5-0.1,1-0.1,1.5c3.7,0.7,7.4,1.8,11.1,2c1.3,0.1,3.3-1.8,3.8-3.2
	c0.4-1.1-0.6-3.4-1.6-4.2c-2.9-2.2-6.1-4-9.3-5.7c-6-3.4-8.6-7.3-7.7-12.1c1.1-5.8,5.2-9.4,11.8-10.4c5.5-0.8,10.3,1.7,13.1,7
	c-2.5,2.7-4.8,4.5-8.7,1.5c-2.7-2-6.1-1.1-7.7,1.9c-1.8,3.3,1,4.7,3.4,6c2.9,1.6,6,2.9,8.8,4.7c5,3.2,7.2,7.9,6.2,12.5
	c-1.3,5.7-5.3,9.2-11.6,9.9C927.1,106.5,921.9,104.3,918.5,97.9z"/>
<path class="st0" d="M641.6,63.1c0,2.4,0,4.5,0,6.5c-0.5,0.3-0.8,0.6-1.1,0.6c-8.9,0.9-8.9,0.9-8.9,9.8c0,8.1,0,16.3,0,24.8
	c-2.5,0-4.7,0-8,0c0-4,0-8.1,0-12.1c0-5.5-0.2-11,0.1-16.5c0.3-4.6-1.4-6.5-6-5.8c-1.3,0.2-2.6-0.1-4.3-0.2c0-2.4,0-4.6,0-7.1
	C622.8,63.1,631.9,63.1,641.6,63.1z"/>
<path class="st0" d="M661.6,103.4c1.2-2.1,2.2-4,3.4-6c2,0.4,3.9,1.1,5.8,1.1c4.8,0,8.5-4.1,8.7-9.7c0.2-6.7,0.1-13.3,0.1-20
	c0-1.8,0.2-3.6,0.3-5.7c2.3,0,4.2,0,6.9,0c0.1,10.7,2.7,21.7-0.6,32.4C683.2,105.1,671.8,108.8,661.6,103.4z"/>
<path class="st0" d="M960.1,105.1c-2.4,0-4.5,0-7.2,0c0-13.9,0-27.8,0-41.9c2.4,0,4.6,0,7.2,0C960.1,77,960.1,90.7,960.1,105.1z"/>
<path class="st0" d="M695.1,63.1c2.5,0,4.7,0,7.2,0c0,13.9,0,27.7,0,41.9c-2.3,0-4.5,0-7.2,0C695.1,91.1,695.1,77.4,695.1,63.1z"/>
<path class="st0" d="M655.4,63.1c0,14,0,27.7,0,41.8c-2.3,0-4.5,0-7.3,0c0-13.9,0-27.7,0-41.8C650.7,63.1,652.9,63.1,655.4,63.1z"/>
<path class="st0" d="M656.6,54.5c-1.9,1.3-3.2,2.8-4.4,2.7c-1.1-0.1-3-2-2.8-2.9c0.1-1.2,1.9-3.1,2.9-3.1
	C653.5,51.2,654.7,52.9,656.6,54.5z"/>
<path class="st0" d="M703.5,54.4c-1.9,1.3-3.2,2.9-4.4,2.8c-1.1-0.1-3-1.9-2.9-2.9c0.1-1.2,1.8-3.1,2.9-3.1
	C700.4,51.2,701.6,52.9,703.5,54.4z"/>
<path class="st0" d="M956.7,49.9c1.6,1.9,3.3,3,3.4,4.2c0,1.1-1.8,2.9-2.9,3c-0.9,0.1-2.9-1.7-3-2.7C954,53.2,955.5,51.9,956.7,49.9
	z"/>
</svg>
